<svg xmlns="http://www.w3.org/2000/svg" viewBox="0 0 2332.52 1220.34"><defs><style>.cls-1{fill:#ccc;}.cls-1,.cls-11{stroke:#8c8c8c;stroke-width:0.4px;}.cls-1,.cls-11,.cls-16{stroke-miterlimit:10;}.cls-2{fill:#cceaff;}.cls-3,.cls-9{font-size:8px;}.cls-14,.cls-15,.cls-3,.cls-8,.cls-9{font-family:SpoqaHanSans-Regular, SpoqaHanSans;}.cls-4,.cls-5,.cls-8{font-size:6px;}.cls-5{fill:#7f7f7f;}.cls-13,.cls-14,.cls-6{fill:#fff;}.cls-7{fill:#ffc67b;}.cls-17,.cls-9{fill:#8c8c8c;}.cls-10{fill:#0a91e5;}.cls-11{fill:#efefef;}.cls-12{fill:#2a3742;}.cls-13{font-size:22px;font-family:NanumGothicBold, Nanum Gothic;font-weight:700;letter-spacing:-0.05em;}.cls-14,.cls-15{font-size:10px;}.cls-16{fill:none;stroke:#ddd;stroke-width:0.4px;}</style></defs><title>Asset 20</title><g id="Layer_2" data-name="Layer 2"><g id="elements"><rect class="cls-1" x="689.45" y="570.26" width="29" height="73.74" rx="2" ry="2"/><rect class="cls-1" x="889.37" y="935.63" width="29" height="73.74" rx="2" ry="2" transform="translate(-68.63 1876.37) rotate(-90)"/><rect class="cls-1" x="1223.04" y="157" width="29" height="29" rx="2" ry="2"/><rect class="cls-1" x="1192" y="206" width="29" height="236" rx="2" ry="2"/></g><g id="people"><circle class="cls-2" cx="211" cy="358" r="18"/><text class="cls-3" transform="translate(199.95 357.03) rotate(0.33)">서광열<tspan class="cls-4"><tspan x="5.68" y="9">812</tspan></tspan></text><circle class="cls-2" cx="211" cy="398" r="18"/><text class="cls-3" transform="translate(199.95 397.03) rotate(0.33)">방다현<tspan class="cls-4"><tspan x="5.68" y="9">505</tspan></tspan></text><circle class="cls-2" cx="211" cy="438" r="18"/><text class="cls-3" transform="translate(199.95 437.03) rotate(0.33)">이지운<tspan class="cls-4"><tspan x="5.68" y="9">516</tspan></tspan></text><circle class="cls-2" cx="265.42" cy="358" r="18"/><text class="cls-3" transform="translate(254.36 357.03) rotate(0.33)">박희수<tspan class="cls-4"><tspan x="0" y="9">내선번호</tspan></tspan></text><circle class="cls-2" cx="265.28" cy="398" r="18"/><text class="cls-3" transform="translate(254.3 390.89) rotate(0.33)">도병권<tspan class="cls-4"><tspan x="5.68" y="9">783</tspan></tspan><tspan class="cls-5"><tspan x="-2.03" y="16">(외부회선)</tspan><tspan x="-9.42" y="23">02-3314-0817</tspan></tspan></text><circle class="cls-2" cx="265.42" cy="438" r="18"/><text class="cls-3" transform="translate(254.36 437.03) rotate(0.33)">임형준<tspan class="cls-4"><tspan x="0" y="9">내선번호</tspan></tspan></text><circle class="cls-2" cx="377.15" cy="318" r="18"/><circle class="cls-2" cx="377.4" cy="358" r="18"/><circle class="cls-2" cx="377.4" cy="398" r="18"/><circle class="cls-2" cx="377.4" cy="438" r="18"/><circle class="cls-2" cx="431.82" cy="318" r="18"/><text class="cls-3" transform="translate(420.76 317.03) rotate(0.33)">이름을<tspan class="cls-5"><tspan x="0" y="9">내선번호</tspan></tspan></text><circle class="cls-2" cx="431.82" cy="358" r="18"/><text class="cls-3" transform="translate(420.76 357.03) rotate(0.33)">이름을<tspan class="cls-5"><tspan x="0" y="9">내선번호</tspan></tspan></text><circle class="cls-2" cx="431.82" cy="398" r="18"/><text class="cls-3" transform="translate(420.76 397.03) rotate(0.33)">이름을<tspan class="cls-5"><tspan x="0" y="9">내선번호</tspan></tspan></text><circle class="cls-6" cx="431.82" cy="438" r="18"/><text class="cls-3" transform="translate(422.89 437.04) rotate(0.33)">A-10<tspan class="cls-5"><tspan x="-2.12" y="9">내선번호</tspan></tspan></text><circle class="cls-2" cx="543.8" cy="318" r="18"/><text class="cls-3" transform="translate(532.75 317.03) rotate(0.33)">이름을<tspan class="cls-4"><tspan x="0" y="9">내선번호</tspan></tspan></text><circle class="cls-2" cx="543.8" cy="358" r="18"/><text class="cls-3" transform="translate(532.75 357.03) rotate(0.33)">이름을<tspan class="cls-4"><tspan x="0" y="9">내선번호</tspan></tspan></text><circle class="cls-2" cx="543.8" cy="398" r="18"/><text class="cls-3" transform="translate(532.75 397.03) rotate(0.33)">이름을<tspan class="cls-4"><tspan x="0" y="9">내선번호</tspan></tspan></text><circle class="cls-2" cx="543.8" cy="438" r="18"/><text class="cls-3" transform="translate(532.75 437.03) rotate(0.33)">이름을<tspan class="cls-4"><tspan x="0" y="9">내선번호</tspan></tspan></text><circle class="cls-2" cx="598.22" cy="318" r="18"/><text class="cls-3" transform="translate(587.16 317.03) rotate(0.33)">이름을<tspan class="cls-4"><tspan x="0" y="9">내선번호</tspan></tspan></text><circle class="cls-2" cx="598.22" cy="358" r="18"/><text class="cls-3" transform="translate(587.16 357.03) rotate(0.33)">이름을<tspan class="cls-4"><tspan x="0" y="9">내선번호</tspan></tspan></text><circle class="cls-2" cx="598.22" cy="398" r="18"/><text class="cls-3" transform="translate(587.16 397.03) rotate(0.33)">이름을<tspan class="cls-4"><tspan x="0" y="9">내선번호</tspan></tspan></text><circle class="cls-2" cx="598.22" cy="438" r="18"/><text class="cls-3" transform="translate(587.16 437.03) rotate(0.33)">이름을<tspan class="cls-4"><tspan x="0" y="9">내선번호</tspan></tspan></text><circle class="cls-2" cx="710.2" cy="318" r="18"/><text class="cls-3" transform="translate(699.15 317.03) rotate(0.33)">이름을<tspan class="cls-4"><tspan x="0" y="9">내선번호</tspan></tspan></text><circle class="cls-2" cx="710.2" cy="358" r="18"/><text class="cls-3" transform="translate(699.15 357.03) rotate(0.33)">이름을<tspan class="cls-4"><tspan x="0" y="9">내선번호</tspan></tspan></text><circle class="cls-2" cx="710.2" cy="398" r="18"/><text class="cls-3" transform="translate(699.15 397.03) rotate(0.33)">이름을<tspan class="cls-4"><tspan x="0" y="9">내선번호</tspan></tspan></text><circle class="cls-6" cx="710.2" cy="438" r="18"/><text class="cls-3" transform="translate(703.45 437.05) rotate(0.33)">B-4<tspan class="cls-4"><tspan x="-4.31" y="9">내선번호</tspan></tspan></text><circle class="cls-2" cx="764.62" cy="318" r="18"/><text class="cls-3" transform="translate(753.56 317.03) rotate(0.33)">이름을<tspan class="cls-4"><tspan x="0" y="9">내선번호</tspan></tspan></text><circle class="cls-2" cx="764.62" cy="358" r="18"/><text class="cls-3" transform="translate(753.56 357.03) rotate(0.33)">이름을<tspan class="cls-4"><tspan x="0" y="9">내선번호</tspan></tspan></text><circle class="cls-2" cx="764.62" cy="398" r="18"/><text class="cls-3" transform="translate(753.56 397.03) rotate(0.33)">이름을<tspan class="cls-4"><tspan x="0" y="9">내선번호</tspan></tspan></text><circle class="cls-2" cx="764.62" cy="438" r="18"/><text class="cls-3" transform="translate(753.56 437.03) rotate(0.33)">이름을<tspan class="cls-4"><tspan x="0" y="9">내선번호</tspan></tspan></text><circle class="cls-2" cx="876.6" cy="318" r="18"/><text class="cls-3" transform="translate(865.55 317.03) rotate(0.33)">이름을<tspan class="cls-4"><tspan x="0" y="9">내선번호</tspan></tspan></text><circle class="cls-2" cx="876.6" cy="358" r="18"/><text class="cls-3" transform="translate(865.55 357.03) rotate(0.33)">이름을<tspan class="cls-4"><tspan x="0" y="9">내선번호</tspan></tspan></text><circle class="cls-2" cx="876.6" cy="398" r="18"/><text class="cls-3" transform="translate(865.55 397.03) rotate(0.33)">이름을<tspan class="cls-4"><tspan x="0" y="9">내선번호</tspan></tspan></text><circle class="cls-2" cx="876.6" cy="438" r="18"/><text class="cls-3" transform="translate(865.55 437.03) rotate(0.33)">이름을<tspan class="cls-4"><tspan x="0" y="9">내선번호</tspan></tspan></text><circle class="cls-2" cx="931.02" cy="318" r="18"/><text class="cls-3" transform="translate(919.96 317.03) rotate(0.33)">이름을<tspan class="cls-4"><tspan x="0" y="9">내선번호</tspan></tspan></text><circle class="cls-2" cx="931.02" cy="358" r="18"/><text class="cls-3" transform="translate(919.96 357.03) rotate(0.33)">이름을<tspan class="cls-4"><tspan x="0" y="9">내선번호</tspan></tspan></text><circle class="cls-2" cx="931.02" cy="398" r="18"/><text class="cls-3" transform="translate(919.96 397.03) rotate(0.33)">이름을<tspan class="cls-4"><tspan x="0" y="9">내선번호</tspan></tspan></text><circle class="cls-6" cx="931.02" cy="438" r="18"/><text class="cls-3" transform="translate(924.35 437.05) rotate(0.33)">C-8<tspan class="cls-4"><tspan x="-4.38" y="9">내선번호</tspan></tspan></text><circle class="cls-7" cx="1043" cy="318" r="18"/><text class="cls-3" transform="translate(1031.95 317.03) rotate(0.33)">이호준<tspan class="cls-4"><tspan x="0" y="9">내선번호</tspan></tspan></text><circle class="cls-2" cx="1043" cy="358" r="18"/><text class="cls-3" transform="translate(1031.95 357.03) rotate(0.33)">이름을<tspan class="cls-4"><tspan x="0" y="9">내선번호</tspan></tspan></text><circle class="cls-2" cx="1043" cy="398" r="18"/><text class="cls-3" transform="translate(1031.95 397.03) rotate(0.33)">이름을<tspan class="cls-4"><tspan x="0" y="9">내선번호</tspan></tspan></text><circle class="cls-6" cx="1043" cy="438" r="18"/><text class="cls-3" transform="translate(1033.95 437.04) rotate(0.33)">C-12<tspan class="cls-4"><tspan x="-2" y="9">내선번호</tspan></tspan></text><circle class="cls-2" cx="1097.42" cy="318" r="18"/><text class="cls-3" transform="translate(1086.36 317.03) rotate(0.33)">이름을<tspan class="cls-4"><tspan x="0" y="9">내선번호</tspan></tspan></text><circle class="cls-2" cx="1097.42" cy="358" r="18"/><text class="cls-3" transform="translate(1086.36 357.03) rotate(0.33)">이름을<tspan class="cls-4"><tspan x="0" y="9">내선번호</tspan></tspan></text><circle class="cls-2" cx="1097.42" cy="398" r="18"/><text class="cls-3" transform="translate(1086.36 397.03) rotate(0.33)">이름을<tspan class="cls-4"><tspan x="0" y="9">내선번호</tspan></tspan></text><circle class="cls-6" cx="1097.42" cy="438" r="18"/><text class="cls-3" transform="translate(1088.36 437.04) rotate(0.33)">C-16<tspan class="cls-4"><tspan x="-2" y="9">내선번호</tspan></tspan></text><circle class="cls-2" cx="1772" cy="272" r="18"/><text class="cls-3" transform="translate(1760.95 271.03) rotate(0.33)">이름을<tspan class="cls-4"><tspan x="0" y="9">내선번호</tspan></tspan></text><circle class="cls-2" cx="1772" cy="312" r="18"/><text class="cls-3" transform="translate(1760.95 311.03) rotate(0.33)">이름을<tspan class="cls-4"><tspan x="0" y="9">내선번호</tspan></tspan></text><circle class="cls-2" cx="1772" cy="352" r="18"/><text class="cls-3" transform="translate(1760.95 351.03) rotate(0.33)">이름을<tspan class="cls-4"><tspan x="0" y="9">내선번호</tspan></tspan></text><circle class="cls-2" cx="1772" cy="392" r="18"/><text class="cls-3" transform="translate(1760.95 391.03) rotate(0.33)">이름을<tspan class="cls-4"><tspan x="0" y="9">내선번호</tspan></tspan></text><circle class="cls-2" cx="1826.42" cy="272" r="18"/><text class="cls-3" transform="translate(1815.36 271.03) rotate(0.33)">이름을<tspan class="cls-4"><tspan x="0" y="9">내선번호</tspan></tspan></text><circle class="cls-7" cx="1772" cy="232" r="18"/><text class="cls-3" transform="translate(1760.95 231.03) rotate(0.33)">이름을<tspan class="cls-4"><tspan x="0" y="9">내선번호</tspan></tspan></text><circle class="cls-2" cx="1826.42" cy="232" r="18"/><text class="cls-3" transform="translate(1815.36 231.03) rotate(0.33)">이름을<tspan class="cls-4"><tspan x="0" y="9">내선번호</tspan></tspan></text><text class="cls-3" transform="translate(1942.18 256.9) rotate(0.33)">임원회의실<tspan class="cls-4"><tspan x="7.36" y="9">내선번호</tspan></tspan></text><text class="cls-3" transform="translate(2067.4 256.93) rotate(0.33)">김홍국<tspan class="cls-4"><tspan x="0" y="9">내선번호</tspan></tspan></text><circle class="cls-2" cx="1826.42" cy="312" r="18"/><text class="cls-3" transform="translate(1815.36 311.03) rotate(0.33)">이름을<tspan class="cls-4"><tspan x="0" y="9">내선번호</tspan></tspan></text><circle class="cls-2" cx="1826.42" cy="352" r="18"/><text class="cls-3" transform="translate(1815.36 351.03) rotate(0.33)">이름을<tspan class="cls-4"><tspan x="0" y="9">내선번호</tspan></tspan></text><circle class="cls-6" cx="1826.42" cy="392" r="18"/><text class="cls-3" transform="translate(1817.33 391.04) rotate(0.33)">K-10<tspan class="cls-4"><tspan x="-1.97" y="9">내선번호</tspan></tspan></text><circle class="cls-2" cx="377.4" cy="774" r="18"/><text class="cls-3" transform="translate(366.35 773.03) rotate(0.33)">이름을<tspan class="cls-4"><tspan x="0" y="9">내선번호</tspan></tspan></text><circle class="cls-2" cx="377.4" cy="814" r="18"/><text class="cls-3" transform="translate(366.35 813.03) rotate(0.33)">이름을<tspan class="cls-4"><tspan x="0" y="9">내선번호</tspan></tspan></text><circle class="cls-2" cx="377.4" cy="854" r="18"/><text class="cls-3" transform="translate(366.35 853.03) rotate(0.33)">이름을<tspan class="cls-4"><tspan x="0" y="9">내선번호</tspan></tspan></text><circle class="cls-2" cx="377.4" cy="894" r="18"/><text class="cls-3" transform="translate(366.35 893.03) rotate(0.33)">이름을<tspan class="cls-4"><tspan x="0" y="9">내선번호</tspan></tspan></text><circle class="cls-6" cx="431.82" cy="774" r="18"/><text class="cls-3" transform="translate(420.76 773.03) rotate(0.33)">이름을<tspan class="cls-4"><tspan x="0" y="9">내선번호</tspan></tspan></text><text class="cls-3" transform="translate(691.21 605.21) rotate(0.33)">팩스OA<tspan class="cls-4"><tspan x="-2.84" y="9">6948-3777</tspan></tspan></text><text class="cls-3" transform="translate(890.21 970.39) rotate(0.33)">팩스OA<tspan class="cls-4"><tspan x="-1.05" y="9">848-6626</tspan></tspan></text><circle class="cls-7" cx="431.82" cy="814" r="18"/><text class="cls-3" transform="translate(420.76 813.03) rotate(0.33)">이름을<tspan class="cls-4"><tspan x="0" y="9">내선번호</tspan></tspan></text><circle class="cls-2" cx="431.82" cy="854" r="18"/><text class="cls-3" transform="translate(420.76 853.03) rotate(0.33)">이름을<tspan class="cls-4"><tspan x="0" y="9">내선번호</tspan></tspan></text><circle class="cls-2" cx="431.82" cy="894" r="18"/><text class="cls-3" transform="translate(420.76 893.03) rotate(0.33)">이름을<tspan class="cls-4"><tspan x="0" y="9">내선번호</tspan></tspan></text><circle class="cls-2" cx="211" cy="774" r="18"/><text class="cls-3" transform="translate(199.95 773.03) rotate(0.33)">이름을<tspan class="cls-4"><tspan x="0" y="9">내선번호</tspan></tspan></text><circle class="cls-2" cx="211" cy="814" r="18"/><text class="cls-3" transform="translate(199.95 813.03) rotate(0.33)">이름을<tspan class="cls-4"><tspan x="0" y="9">내선번호</tspan></tspan></text><circle class="cls-2" cx="211" cy="854" r="18"/><text class="cls-3" transform="translate(199.95 853.03) rotate(0.33)">이름을<tspan class="cls-4"><tspan x="0" y="9">내선번호</tspan></tspan></text><circle class="cls-2" cx="211" cy="894" r="18"/><text class="cls-3" transform="translate(199.95 893.03) rotate(0.33)">이름을<tspan class="cls-4"><tspan x="0" y="9">내선번호</tspan></tspan></text><circle class="cls-2" cx="265.42" cy="774" r="18"/><text class="cls-3" transform="translate(254.36 773.03) rotate(0.33)">이름을<tspan class="cls-4"><tspan x="0" y="9">내선번호</tspan></tspan></text><circle class="cls-2" cx="265.42" cy="814" r="18"/><text class="cls-3" transform="translate(254.36 813.03) rotate(0.33)">이름을<tspan class="cls-4"><tspan x="0" y="9">내선번호</tspan></tspan></text><circle class="cls-2" cx="265.42" cy="854" r="18"/><text class="cls-3" transform="translate(254.36 853.03) rotate(0.33)">이름을<tspan class="cls-4"><tspan x="0" y="9">내선번호</tspan></tspan></text><circle class="cls-2" cx="265.42" cy="894" r="18"/><text class="cls-3" transform="translate(254.36 893.03) rotate(0.33)">이름을<tspan class="cls-4"><tspan x="0" y="9">내선번호</tspan></tspan></text><circle class="cls-2" cx="543.8" cy="774" r="18"/><text class="cls-3" transform="translate(532.75 773.03) rotate(0.33)">이름을<tspan class="cls-4"><tspan x="0" y="9">내선번호</tspan></tspan></text><circle class="cls-2" cx="543.8" cy="814" r="18"/><text class="cls-3" transform="translate(532.75 813.03) rotate(0.33)">이름을<tspan class="cls-4"><tspan x="0" y="9">내선번호</tspan></tspan></text><circle class="cls-2" cx="543.8" cy="854" r="18"/><text class="cls-3" transform="translate(532.75 853.03) rotate(0.33)">이름을<tspan class="cls-4"><tspan x="0" y="9">내선번호</tspan></tspan></text><circle class="cls-2" cx="543.8" cy="894" r="18"/><text class="cls-3" transform="translate(532.75 893.03) rotate(0.33)">이름을<tspan class="cls-4"><tspan x="0" y="9">내선번호</tspan></tspan></text><circle class="cls-2" cx="598.22" cy="774" r="18"/><text class="cls-3" transform="translate(587.16 773.03) rotate(0.33)">이름을<tspan class="cls-4"><tspan x="0" y="9">내선번호</tspan></tspan></text><circle class="cls-2" cx="598.22" cy="814" r="18"/><text class="cls-3" transform="translate(587.16 813.03) rotate(0.33)">이름을<tspan class="cls-4"><tspan x="0" y="9">내선번호</tspan></tspan></text><circle class="cls-2" cx="598.22" cy="854" r="18"/><text class="cls-3" transform="translate(587.16 853.03) rotate(0.33)">이름을<tspan class="cls-4"><tspan x="0" y="9">내선번호</tspan></tspan></text><circle class="cls-2" cx="598.22" cy="894" r="18"/><text class="cls-3" transform="translate(587.16 893.03) rotate(0.33)">이름을<tspan class="cls-4"><tspan x="0" y="9">내선번호</tspan></tspan></text><circle class="cls-2" cx="710.2" cy="774" r="18"/><text class="cls-3" transform="translate(699.15 773.03) rotate(0.33)">이름을<tspan class="cls-4"><tspan x="0" y="9">내선번호</tspan></tspan></text><circle class="cls-2" cx="710.2" cy="814" r="18"/><text class="cls-3" transform="translate(699.15 813.03) rotate(0.33)">이름을<tspan class="cls-4"><tspan x="0" y="9">내선번호</tspan></tspan></text><circle class="cls-2" cx="710.2" cy="854" r="18"/><text class="cls-3" transform="translate(699.15 853.03) rotate(0.33)">이름을<tspan class="cls-4"><tspan x="0" y="9">내선번호</tspan></tspan></text><circle class="cls-2" cx="710.2" cy="894" r="18"/><text class="cls-3" transform="translate(699.15 893.03) rotate(0.33)">이름을<tspan class="cls-4"><tspan x="0" y="9">내선번호</tspan></tspan></text><circle class="cls-2" cx="764.62" cy="774" r="18"/><text class="cls-3" transform="translate(753.56 773.03) rotate(0.33)">이름을<tspan class="cls-4"><tspan x="0" y="9">내선번호</tspan></tspan></text><circle class="cls-2" cx="764.62" cy="814" r="18"/><text class="cls-3" transform="translate(753.56 813.03) rotate(0.33)">이름을<tspan class="cls-4"><tspan x="0" y="9">내선번호</tspan></tspan></text><circle class="cls-2" cx="764.62" cy="854" r="18"/><text class="cls-3" transform="translate(753.56 853.03) rotate(0.33)">이름을<tspan class="cls-4"><tspan x="0" y="9">내선번호</tspan></tspan></text><circle class="cls-2" cx="764.62" cy="894" r="18"/><text class="cls-3" transform="translate(753.56 893.03) rotate(0.33)">이름을<tspan class="cls-4"><tspan x="0" y="9">내선번호</tspan></tspan></text><circle class="cls-6" cx="876.6" cy="774" r="18"/><text class="cls-3" transform="translate(870.13 773.05) rotate(0.33)">E-8<tspan class="cls-4"><tspan x="-4.58" y="9">내선번호</tspan></tspan></text><circle class="cls-6" cx="876.6" cy="814" r="18"/><text class="cls-3" transform="translate(870.13 813.05) rotate(0.33)">E-9<tspan class="cls-4"><tspan x="-4.58" y="9">내선번호</tspan></tspan></text><circle class="cls-6" cx="876.6" cy="854" r="18"/><text class="cls-3" transform="translate(867.75 853.04) rotate(0.33)">E-10<tspan class="cls-4"><tspan x="-2.2" y="9">내선번호</tspan></tspan></text><circle class="cls-6" cx="876.6" cy="894" r="18"/><text class="cls-3" transform="translate(867.75 893.04) rotate(0.33)">E-11<tspan class="cls-4"><tspan x="-2.2" y="9">내선번호</tspan></tspan></text><circle class="cls-2" cx="931.02" cy="774" r="18"/><text class="cls-3" transform="translate(919.96 773.03) rotate(0.33)">이름을<tspan class="cls-4"><tspan x="0" y="9">내선번호</tspan></tspan></text><circle class="cls-2" cx="931.02" cy="814" r="18"/><text class="cls-3" transform="translate(919.96 813.03) rotate(0.33)">이름을<tspan class="cls-4"><tspan x="0" y="9">내선번호</tspan></tspan></text><circle class="cls-2" cx="931.02" cy="854" r="18"/><text class="cls-3" transform="translate(919.96 853.03) rotate(0.33)">이름을<tspan class="cls-4"><tspan x="0" y="9">내선번호</tspan></tspan></text><circle class="cls-2" cx="931.02" cy="894" r="18"/><text class="cls-3" transform="translate(919.96 893.03) rotate(0.33)">이름을<tspan class="cls-4"><tspan x="0" y="9">내선번호</tspan></tspan></text><circle class="cls-2" cx="1043" cy="774" r="18"/><text class="cls-3" transform="translate(1031.95 773.03) rotate(0.33)">이름을<tspan class="cls-4"><tspan x="0" y="9">내선번호</tspan></tspan></text><circle class="cls-2" cx="1043" cy="814" r="18"/><text class="cls-3" transform="translate(1031.95 813.03) rotate(0.33)">이름을<tspan class="cls-4"><tspan x="0" y="9">내선번호</tspan></tspan></text><circle class="cls-2" cx="1043" cy="854" r="18"/><text class="cls-3" transform="translate(1031.95 853.03) rotate(0.33)">이름을<tspan class="cls-4"><tspan x="0" y="9">내선번호</tspan></tspan></text><circle class="cls-2" cx="1043" cy="894" r="18"/><text class="cls-3" transform="translate(1031.95 893.03) rotate(0.33)">이름을<tspan class="cls-4"><tspan x="0" y="9">내선번호</tspan></tspan></text><circle class="cls-2" cx="1097.42" cy="774" r="18"/><text class="cls-3" transform="translate(1086.36 773.03) rotate(0.33)">이름을<tspan class="cls-4"><tspan x="0" y="9">내선번호</tspan></tspan></text><circle class="cls-2" cx="1097.42" cy="814" r="18"/><text class="cls-3" transform="translate(1086.36 813.03) rotate(0.33)">이름을<tspan class="cls-4"><tspan x="0" y="9">내선번호</tspan></tspan></text><circle class="cls-2" cx="1097.42" cy="854" r="18"/><text class="cls-3" transform="translate(1086.36 853.03) rotate(0.33)">이름을<tspan class="cls-4"><tspan x="0" y="9">내선번호</tspan></tspan></text><circle class="cls-2" cx="1097.42" cy="894" r="18"/><text class="cls-3" transform="translate(1086.36 893.03) rotate(0.33)">이름을<tspan class="cls-4"><tspan x="0" y="9">내선번호</tspan></tspan></text><circle class="cls-2" cx="1209.58" cy="774" r="18"/><text class="cls-3" transform="translate(1198.53 773.03) rotate(0.33)">이름을<tspan class="cls-4"><tspan x="0" y="9">내선번호</tspan></tspan></text><circle class="cls-2" cx="1209.58" cy="814" r="18"/><text class="cls-3" transform="translate(1198.53 813.03) rotate(0.33)">이름을<tspan class="cls-4"><tspan x="0" y="9">내선번호</tspan></tspan></text><circle class="cls-2" cx="1209.58" cy="854" r="18"/><text class="cls-3" transform="translate(1198.53 853.03) rotate(0.33)">이름을<tspan class="cls-4"><tspan x="0" y="9">내선번호</tspan></tspan></text><circle class="cls-2" cx="1209.58" cy="894" r="18"/><text class="cls-3" transform="translate(1198.53 893.03) rotate(0.33)">이름을<tspan class="cls-4"><tspan x="0" y="9">내선번호</tspan></tspan></text><circle class="cls-2" cx="1264" cy="774" r="18"/><text class="cls-3" transform="translate(1252.95 773.03) rotate(0.33)">이름을<tspan class="cls-4"><tspan x="0" y="9">내선번호</tspan></tspan></text><circle class="cls-2" cx="1264" cy="814" r="18"/><text class="cls-3" transform="translate(1252.95 813.03) rotate(0.33)">이름을<tspan class="cls-4"><tspan x="0" y="9">내선번호</tspan></tspan></text><text class="cls-3" transform="translate(1495.25 819.35) rotate(0.33)">회의실M<tspan class="cls-4"><tspan x="3.25" y="9">내선번호</tspan></tspan></text><text class="cls-3" transform="translate(1716.82 920.35) rotate(0.33)">대회의실<tspan class="cls-4"><tspan x="3.68" y="9">내선번호</tspan></tspan></text><text class="cls-3" transform="translate(1461.11 942.92) rotate(0.33)">회의실1<tspan class="cls-4"><tspan x="2.38" y="9">내선번호</tspan></tspan></text><text class="cls-3" transform="translate(1463.5 1040.93) rotate(0.33)">원종홍<tspan class="cls-4"><tspan x="0" y="9">내선번호</tspan></tspan></text><circle class="cls-2" cx="1264" cy="854" r="18"/><text class="cls-3" transform="translate(1252.95 853.03) rotate(0.33)">이름을<tspan class="cls-4"><tspan x="0" y="9">내선번호</tspan></tspan></text><circle class="cls-2" cx="1264" cy="894" r="18"/><text class="cls-3" transform="translate(1252.95 893.03) rotate(0.33)">이름을<tspan class="cls-4"><tspan x="0" y="9">내선번호</tspan></tspan></text><circle class="cls-7" cx="405" cy="276" r="18"/><text class="cls-3" transform="translate(393.96 275.12)">송태형<tspan class="cls-4"><tspan x="5.68" y="9">668</tspan></tspan></text><text class="cls-3" transform="translate(219.46 650.12)">전정완<tspan class="cls-4"><tspan x="5.68" y="9">668</tspan></tspan></text><text class="cls-3" transform="translate(305.08 650.12)">회의실2<tspan class="cls-4"><tspan x="8.06" y="9">668</tspan></tspan></text><text class="cls-3" transform="translate(211.6 559.37)">프로젝트룸<tspan class="cls-4"><tspan x="13.04" y="9">668</tspan></tspan></text><text class="cls-3" transform="translate(305.08 559.37)">회의실3<tspan class="cls-4"><tspan x="8.06" y="9">668</tspan></tspan></text><circle class="cls-7" cx="738" cy="937" r="18"/><text class="cls-3" transform="translate(726.96 936.12)">전창근<tspan class="cls-4"><tspan x="5.68" y="9">668</tspan></tspan></text><circle class="cls-7" cx="1071" cy="937" r="18"/><text class="cls-3" transform="translate(1059.96 936.12)">전창근<tspan class="cls-4"><tspan x="5.68" y="9">668</tspan></tspan></text><text class="cls-3" transform="translate(366.16 309.46) rotate(0.33)">마성준<tspan class="cls-4"><tspan x="5.68" y="9">783</tspan></tspan><tspan class="cls-5"><tspan x="-2.03" y="16">(외부회선)</tspan><tspan x="-9.42" y="23">02-3314-0817</tspan></tspan></text><text class="cls-3" transform="translate(366.16 349.46) rotate(0.33)">유창호<tspan class="cls-4"><tspan x="5.68" y="9">783</tspan></tspan><tspan class="cls-5"><tspan x="-2.03" y="16">(외부회선)</tspan><tspan x="-9.42" y="23">02-3314-0817</tspan></tspan></text><text class="cls-3" transform="translate(366.16 389.46) rotate(0.33)">김윤형<tspan class="cls-4"><tspan x="5.68" y="9">783</tspan></tspan><tspan class="cls-5"><tspan x="-2.03" y="16">(외부회선)</tspan><tspan x="-9.42" y="23">02-3314-0817</tspan></tspan></text><text class="cls-3" transform="translate(366.16 429.46) rotate(0.33)">강효원<tspan class="cls-4"><tspan x="5.68" y="9">783</tspan></tspan><tspan class="cls-5"><tspan x="-2.03" y="16">(외부회선)</tspan><tspan x="-9.42" y="23">02-3314-0817</tspan></tspan></text><text class="cls-8" transform="translate(364.14 468.86) rotate(0.33)">(발신번호)<tspan x="-2.53" y="9">1544-4370</tspan></text><text class="cls-9" transform="translate(1372.93 609.38) rotate(0.33)">엘리베이터홀</text><text class="cls-9" transform="translate(747.68 560.41) rotate(0.33)">화장실(남)<tspan x="6.38" y="9">샤워실</tspan></text><text class="cls-9" transform="translate(747.66 653.84) rotate(0.33)">화장실(여)</text><text class="cls-9" transform="translate(2039.63 565.27) rotate(0.33)">화장실(남)</text><text class="cls-9" transform="translate(2039.61 653.84) rotate(0.33)">화장실(여)</text><text class="cls-9" transform="translate(1886.93 924.87) rotate(0.33)">문서고</text><text class="cls-9" transform="translate(2055.97 924.87) rotate(0.33)">공조실</text><text class="cls-3" transform="translate(1336.35 305.42) rotate(0.33)">빨간 리본</text><text class="cls-3" transform="translate(1223.29 174.42) rotate(0.33)">전화박스</text><text class="cls-3" transform="translate(1198.63 326.1) rotate(0.33)">책장</text></g><g id="UI"><rect class="cls-10" x="48.5" y="1180.14" width="136" height="40"/><rect class="cls-11" x="188" y="1180.14" width="136" height="40"/><rect class="cls-12" width="2332.52" height="114"/><rect class="cls-6" x="257" y="20" width="320" height="40"/><text class="cls-13" transform="translate(50 45)">GABIA FLOOR MAP</text><text class="cls-14" transform="translate(256.42 90)">5층</text><text class="cls-14" transform="translate(292 90)">경영지원실</text><text class="cls-14" transform="translate(94 1203)">4층 사무실</text><text class="cls-15" transform="translate(233.5 1203)">5층 사무실</text><text class="cls-14" transform="translate(356.8 90)">하이웍스개발실</text><text class="cls-14" transform="translate(439.6 90)">인프라플랫폼개발실</text><text class="cls-14" transform="translate(541.6 90)">마케팅실</text><text class="cls-14" transform="translate(597.6 90)">디자인실</text><line class="cls-16" x1="282" y1="81" x2="282" y2="91"/><line class="cls-16" x1="347" y1="81" x2="347" y2="91"/><line class="cls-16" x1="430" y1="81" x2="430" y2="91"/><line class="cls-16" x1="532" y1="81" x2="532" y2="91"/><line class="cls-16" x1="588" y1="81" x2="588" y2="91"/><rect class="cls-11" x="327" y="1180.14" width="40" height="40"/><polygon class="cls-17" points="353 1199.64 347.5 1199.64 347.5 1194.14 346.5 1194.14 346.5 1199.64 341 1199.64 341 1200.64 346.5 1200.64 346.5 1206.14 347.5 1206.14 347.5 1200.64 353 1200.64 353 1199.64"/></g></g></svg>