<svg xmlns="http://www.w3.org/2000/svg" viewBox="0 0 1685.2 800.2"><defs><style>.cls-1{fill:#cae8ff;}.cls-2{fill:#8cb8d3;}.cls-3{fill:#e5e5e5;stroke:#b5b5b5;stroke-linejoin:round;stroke-width:0.4px;}.cls-4{fill:#c5c5e8;}.cls-5{fill:#a6a6dd;}.cls-6{fill:#f7f06d;}.cls-7{fill:#e5c613;}.cls-8{fill:#565656;}.cls-10,.cls-9{isolation:isolate;font-family:SpoqaHanSans-Regular, SpoqaHanSans;}.cls-9{font-size:8px;}.cls-10{font-size:6px;}</style></defs><title>floor4_2</title><g id="Layer_2" data-name="Layer 2"><g id="Layer_3" data-name="Layer 3"><rect class="cls-1" x="50.2" y="90.4" width="49.6" height="34.6" rx="1.8" ry="1.8"/><path class="cls-2" d="M98,90.6a1.6,1.6,0,0,1,1.6,1.6v31a1.6,1.6,0,0,1-1.6,1.6H52a1.6,1.6,0,0,1-1.6-1.6v-31A1.6,1.6,0,0,1,52,90.6H98m0-.4H52a2,2,0,0,0-2,2v31a2,2,0,0,0,2,2H98a2,2,0,0,0,2-2v-31a2,2,0,0,0-2-2Z"/><rect class="cls-1" x="50.2" y="125.4" width="49.6" height="34.6" rx="1.8" ry="1.8"/><path class="cls-2" d="M98,125.6a1.6,1.6,0,0,1,1.6,1.6v31a1.6,1.6,0,0,1-1.6,1.6H52a1.6,1.6,0,0,1-1.6-1.6v-31a1.6,1.6,0,0,1,1.6-1.6H98m0-.4H52a2,2,0,0,0-2,2v31a2,2,0,0,0,2,2H98a2,2,0,0,0,2-2v-31a2,2,0,0,0-2-2Z"/><rect class="cls-1" x="100.2" y="90.4" width="49.6" height="34.6" rx="1.8" ry="1.8"/><path class="cls-2" d="M148,90.6a1.6,1.6,0,0,1,1.6,1.6v31a1.6,1.6,0,0,1-1.6,1.6H102a1.6,1.6,0,0,1-1.6-1.6v-31a1.6,1.6,0,0,1,1.6-1.6h46m0-.4H102a2,2,0,0,0-2,2v31a2,2,0,0,0,2,2h46a2,2,0,0,0,2-2v-31a2,2,0,0,0-2-2Z"/><rect class="cls-1" x="100.2" y="125.4" width="49.6" height="34.6" rx="1.8" ry="1.8"/><path class="cls-2" d="M148,125.6a1.6,1.6,0,0,1,1.6,1.6v31a1.6,1.6,0,0,1-1.6,1.6H102a1.6,1.6,0,0,1-1.6-1.6v-31a1.6,1.6,0,0,1,1.6-1.6h46m0-.4H102a2,2,0,0,0-2,2v31a2,2,0,0,0,2,2h46a2,2,0,0,0,2-2v-31a2,2,0,0,0-2-2Z"/><rect class="cls-1" x="150.2" y="90.4" width="49.6" height="34.6" rx="1.8" ry="1.8"/><path class="cls-2" d="M198,90.6a1.6,1.6,0,0,1,1.6,1.6v31a1.6,1.6,0,0,1-1.6,1.6H152a1.6,1.6,0,0,1-1.6-1.6v-31a1.6,1.6,0,0,1,1.6-1.6h46m0-.4H152a2,2,0,0,0-2,2v31a2,2,0,0,0,2,2h46a2,2,0,0,0,2-2v-31a2,2,0,0,0-2-2Z"/><rect class="cls-1" x="150.2" y="125.4" width="49.6" height="34.6" rx="1.8" ry="1.8"/><path class="cls-2" d="M198,125.6a1.6,1.6,0,0,1,1.6,1.6v31a1.6,1.6,0,0,1-1.6,1.6H152a1.6,1.6,0,0,1-1.6-1.6v-31a1.6,1.6,0,0,1,1.6-1.6h46m0-.4H152a2,2,0,0,0-2,2v31a2,2,0,0,0,2,2h46a2,2,0,0,0,2-2v-31a2,2,0,0,0-2-2Z"/><rect class="cls-1" x="200.2" y="90.4" width="49.6" height="34.6" rx="1.8" ry="1.8"/><path class="cls-2" d="M248,90.6a1.6,1.6,0,0,1,1.6,1.6v31a1.6,1.6,0,0,1-1.6,1.6H202a1.6,1.6,0,0,1-1.6-1.6v-31a1.6,1.6,0,0,1,1.6-1.6h46m0-.4H202a2,2,0,0,0-2,2v31a2,2,0,0,0,2,2h46a2,2,0,0,0,2-2v-31a2,2,0,0,0-2-2Z"/><rect class="cls-1" x="200.2" y="125.4" width="49.6" height="34.6" rx="1.8" ry="1.8"/><path class="cls-2" d="M248,125.6a1.6,1.6,0,0,1,1.6,1.6v31a1.6,1.6,0,0,1-1.6,1.6H202a1.6,1.6,0,0,1-1.6-1.6v-31a1.6,1.6,0,0,1,1.6-1.6h46m0-.4H202a2,2,0,0,0-2,2v31a2,2,0,0,0,2,2h46a2,2,0,0,0,2-2v-31a2,2,0,0,0-2-2Z"/><rect class="cls-1" x="50.2" y="180.4" width="49.6" height="34.6" rx="1.8" ry="1.8"/><path class="cls-2" d="M98,180.6a1.6,1.6,0,0,1,1.6,1.6v31a1.6,1.6,0,0,1-1.6,1.6H52a1.6,1.6,0,0,1-1.6-1.6v-31a1.6,1.6,0,0,1,1.6-1.6H98m0-.4H52a2,2,0,0,0-2,2v31a2,2,0,0,0,2,2H98a2,2,0,0,0,2-2v-31a2,2,0,0,0-2-2Z"/><rect class="cls-1" x="50.2" y="215.4" width="49.6" height="34.6" rx="1.8" ry="1.8"/><path class="cls-2" d="M98,215.6a1.6,1.6,0,0,1,1.6,1.6v31a1.6,1.6,0,0,1-1.6,1.6H52a1.6,1.6,0,0,1-1.6-1.6v-31a1.6,1.6,0,0,1,1.6-1.6H98m0-.4H52a2,2,0,0,0-2,2v31a2,2,0,0,0,2,2H98a2,2,0,0,0,2-2v-31a2,2,0,0,0-2-2Z"/><rect class="cls-1" x="100.2" y="180.4" width="49.6" height="34.6" rx="1.8" ry="1.8"/><path class="cls-2" d="M148,180.6a1.6,1.6,0,0,1,1.6,1.6v31a1.6,1.6,0,0,1-1.6,1.6H102a1.6,1.6,0,0,1-1.6-1.6v-31a1.6,1.6,0,0,1,1.6-1.6h46m0-.4H102a2,2,0,0,0-2,2v31a2,2,0,0,0,2,2h46a2,2,0,0,0,2-2v-31a2,2,0,0,0-2-2Z"/><rect class="cls-1" x="100.2" y="215.4" width="49.6" height="34.6" rx="1.8" ry="1.8"/><path class="cls-2" d="M148,215.6a1.6,1.6,0,0,1,1.6,1.6v31a1.6,1.6,0,0,1-1.6,1.6H102a1.6,1.6,0,0,1-1.6-1.6v-31a1.6,1.6,0,0,1,1.6-1.6h46m0-.4H102a2,2,0,0,0-2,2v31a2,2,0,0,0,2,2h46a2,2,0,0,0,2-2v-31a2,2,0,0,0-2-2Z"/><rect class="cls-1" x="150.2" y="180.4" width="49.6" height="34.6" rx="1.8" ry="1.8"/><path class="cls-2" d="M198,180.6a1.6,1.6,0,0,1,1.6,1.6v31a1.6,1.6,0,0,1-1.6,1.6H152a1.6,1.6,0,0,1-1.6-1.6v-31a1.6,1.6,0,0,1,1.6-1.6h46m0-.4H152a2,2,0,0,0-2,2v31a2,2,0,0,0,2,2h46a2,2,0,0,0,2-2v-31a2,2,0,0,0-2-2Z"/><rect class="cls-1" x="150.2" y="215.4" width="49.6" height="34.6" rx="1.8" ry="1.8"/><path class="cls-2" d="M198,215.6a1.6,1.6,0,0,1,1.6,1.6v31a1.6,1.6,0,0,1-1.6,1.6H152a1.6,1.6,0,0,1-1.6-1.6v-31a1.6,1.6,0,0,1,1.6-1.6h46m0-.4H152a2,2,0,0,0-2,2v31a2,2,0,0,0,2,2h46a2,2,0,0,0,2-2v-31a2,2,0,0,0-2-2Z"/><rect class="cls-3" x="200" y="180.2" width="50" height="35" rx="2" ry="2"/><rect class="cls-1" x="200.2" y="215.4" width="49.6" height="34.6" rx="1.8" ry="1.8"/><path class="cls-2" d="M248,215.6a1.6,1.6,0,0,1,1.6,1.6v31a1.6,1.6,0,0,1-1.6,1.6H202a1.6,1.6,0,0,1-1.6-1.6v-31a1.6,1.6,0,0,1,1.6-1.6h46m0-.4H202a2,2,0,0,0-2,2v31a2,2,0,0,0,2,2h46a2,2,0,0,0,2-2v-31a2,2,0,0,0-2-2Z"/><rect class="cls-1" x="50.2" y="270.4" width="49.6" height="34.6" rx="1.8" ry="1.8"/><path class="cls-2" d="M98,270.6a1.6,1.6,0,0,1,1.6,1.6v31a1.6,1.6,0,0,1-1.6,1.6H52a1.6,1.6,0,0,1-1.6-1.6v-31a1.6,1.6,0,0,1,1.6-1.6H98m0-.4H52a2,2,0,0,0-2,2v31a2,2,0,0,0,2,2H98a2,2,0,0,0,2-2v-31a2,2,0,0,0-2-2Z"/><rect class="cls-1" x="50.2" y="305.4" width="49.6" height="34.6" rx="1.8" ry="1.8"/><path class="cls-2" d="M98,305.6a1.6,1.6,0,0,1,1.6,1.6v31a1.6,1.6,0,0,1-1.6,1.6H52a1.6,1.6,0,0,1-1.6-1.6v-31a1.6,1.6,0,0,1,1.6-1.6H98m0-.4H52a2,2,0,0,0-2,2v31a2,2,0,0,0,2,2H98a2,2,0,0,0,2-2v-31a2,2,0,0,0-2-2Z"/><rect class="cls-1" x="100.2" y="270.4" width="49.6" height="34.6" rx="1.8" ry="1.8"/><path class="cls-2" d="M148,270.6a1.6,1.6,0,0,1,1.6,1.6v31a1.6,1.6,0,0,1-1.6,1.6H102a1.6,1.6,0,0,1-1.6-1.6v-31a1.6,1.6,0,0,1,1.6-1.6h46m0-.4H102a2,2,0,0,0-2,2v31a2,2,0,0,0,2,2h46a2,2,0,0,0,2-2v-31a2,2,0,0,0-2-2Z"/><rect class="cls-1" x="100.2" y="305.4" width="49.6" height="34.6" rx="1.8" ry="1.8"/><path class="cls-2" d="M148,305.6a1.6,1.6,0,0,1,1.6,1.6v31a1.6,1.6,0,0,1-1.6,1.6H102a1.6,1.6,0,0,1-1.6-1.6v-31a1.6,1.6,0,0,1,1.6-1.6h46m0-.4H102a2,2,0,0,0-2,2v31a2,2,0,0,0,2,2h46a2,2,0,0,0,2-2v-31a2,2,0,0,0-2-2Z"/><rect class="cls-1" x="150.2" y="270.4" width="49.6" height="34.6" rx="1.8" ry="1.8"/><path class="cls-2" d="M198,270.6a1.6,1.6,0,0,1,1.6,1.6v31a1.6,1.6,0,0,1-1.6,1.6H152a1.6,1.6,0,0,1-1.6-1.6v-31a1.6,1.6,0,0,1,1.6-1.6h46m0-.4H152a2,2,0,0,0-2,2v31a2,2,0,0,0,2,2h46a2,2,0,0,0,2-2v-31a2,2,0,0,0-2-2Z"/><rect class="cls-1" x="150.2" y="305.4" width="49.6" height="34.6" rx="1.8" ry="1.8"/><path class="cls-2" d="M198,305.6a1.6,1.6,0,0,1,1.6,1.6v31a1.6,1.6,0,0,1-1.6,1.6H152a1.6,1.6,0,0,1-1.6-1.6v-31a1.6,1.6,0,0,1,1.6-1.6h46m0-.4H152a2,2,0,0,0-2,2v31a2,2,0,0,0,2,2h46a2,2,0,0,0,2-2v-31a2,2,0,0,0-2-2Z"/><rect class="cls-1" x="200.2" y="270.4" width="49.6" height="34.6" rx="1.8" ry="1.8"/><path class="cls-2" d="M248,270.6a1.6,1.6,0,0,1,1.6,1.6v31a1.6,1.6,0,0,1-1.6,1.6H202a1.6,1.6,0,0,1-1.6-1.6v-31a1.6,1.6,0,0,1,1.6-1.6h46m0-.4H202a2,2,0,0,0-2,2v31a2,2,0,0,0,2,2h46a2,2,0,0,0,2-2v-31a2,2,0,0,0-2-2Z"/><rect class="cls-1" x="200.2" y="305.4" width="49.6" height="34.6" rx="1.8" ry="1.8"/><path class="cls-2" d="M248,305.6a1.6,1.6,0,0,1,1.6,1.6v31a1.6,1.6,0,0,1-1.6,1.6H202a1.6,1.6,0,0,1-1.6-1.6v-31a1.6,1.6,0,0,1,1.6-1.6h46m0-.4H202a2,2,0,0,0-2,2v31a2,2,0,0,0,2,2h46a2,2,0,0,0,2-2v-31a2,2,0,0,0-2-2Z"/><rect class="cls-1" x="100.2" y="0.4" width="49.6" height="34.6" rx="1.8" ry="1.8"/><path class="cls-2" d="M148,.6a1.6,1.6,0,0,1,1.6,1.6v31a1.6,1.6,0,0,1-1.6,1.6H102a1.6,1.6,0,0,1-1.6-1.6V2.2A1.6,1.6,0,0,1,102,.6h46m0-.4H102a2,2,0,0,0-2,2v31a2,2,0,0,0,2,2h46a2,2,0,0,0,2-2V2.2a2,2,0,0,0-2-2Z"/><rect class="cls-1" x="100.2" y="35.4" width="49.6" height="34.6" rx="1.8" ry="1.8"/><path class="cls-2" d="M148,35.6a1.6,1.6,0,0,1,1.6,1.6v31a1.6,1.6,0,0,1-1.6,1.6H102a1.6,1.6,0,0,1-1.6-1.6v-31a1.6,1.6,0,0,1,1.6-1.6h46m0-.4H102a2,2,0,0,0-2,2v31a2,2,0,0,0,2,2h46a2,2,0,0,0,2-2v-31a2,2,0,0,0-2-2Z"/><rect class="cls-1" x="150.2" y="0.4" width="49.6" height="34.6" rx="1.8" ry="1.8"/><path class="cls-2" d="M198,.6a1.6,1.6,0,0,1,1.6,1.6v31a1.6,1.6,0,0,1-1.6,1.6H152a1.6,1.6,0,0,1-1.6-1.6V2.2A1.6,1.6,0,0,1,152,.6h46m0-.4H152a2,2,0,0,0-2,2v31a2,2,0,0,0,2,2h46a2,2,0,0,0,2-2V2.2a2,2,0,0,0-2-2Z"/><rect class="cls-1" x="150.2" y="35.4" width="49.6" height="34.6" rx="1.8" ry="1.8"/><path class="cls-2" d="M198,35.6a1.6,1.6,0,0,1,1.6,1.6v31a1.6,1.6,0,0,1-1.6,1.6H152a1.6,1.6,0,0,1-1.6-1.6v-31a1.6,1.6,0,0,1,1.6-1.6h46m0-.4H152a2,2,0,0,0-2,2v31a2,2,0,0,0,2,2h46a2,2,0,0,0,2-2v-31a2,2,0,0,0-2-2Z"/><rect class="cls-1" x="200.2" y="0.4" width="49.6" height="34.6" rx="1.8" ry="1.8"/><path class="cls-2" d="M248,.6a1.6,1.6,0,0,1,1.6,1.6v31a1.6,1.6,0,0,1-1.6,1.6H202a1.6,1.6,0,0,1-1.6-1.6V2.2A1.6,1.6,0,0,1,202,.6h46m0-.4H202a2,2,0,0,0-2,2v31a2,2,0,0,0,2,2h46a2,2,0,0,0,2-2V2.2a2,2,0,0,0-2-2Z"/><rect class="cls-1" x="200.2" y="35.4" width="49.6" height="34.6" rx="1.8" ry="1.8"/><path class="cls-2" d="M248,35.6a1.6,1.6,0,0,1,1.6,1.6v31a1.6,1.6,0,0,1-1.6,1.6H202a1.6,1.6,0,0,1-1.6-1.6v-31a1.6,1.6,0,0,1,1.6-1.6h46m0-.4H202a2,2,0,0,0-2,2v31a2,2,0,0,0,2,2h46a2,2,0,0,0,2-2v-31a2,2,0,0,0-2-2Z"/><rect class="cls-1" x="15.2" y="100.4" width="34.6" height="49.6" rx="1.8" ry="1.8"/><path class="cls-2" d="M48,100.6a1.6,1.6,0,0,1,1.6,1.6v46a1.6,1.6,0,0,1-1.6,1.6H17a1.6,1.6,0,0,1-1.6-1.6v-46a1.6,1.6,0,0,1,1.6-1.6H48m0-.4H17a2,2,0,0,0-2,2v46a2,2,0,0,0,2,2H48a2,2,0,0,0,2-2v-46a2,2,0,0,0-2-2Z"/><rect class="cls-1" x="50.2" y="360.4" width="49.6" height="34.6" rx="1.8" ry="1.8"/><path class="cls-2" d="M98,360.6a1.6,1.6,0,0,1,1.6,1.6v31a1.6,1.6,0,0,1-1.6,1.6H52a1.6,1.6,0,0,1-1.6-1.6v-31a1.6,1.6,0,0,1,1.6-1.6H98m0-.4H52a2,2,0,0,0-2,2v31a2,2,0,0,0,2,2H98a2,2,0,0,0,2-2v-31a2,2,0,0,0-2-2Z"/><rect class="cls-1" x="50.2" y="395.4" width="49.6" height="34.6" rx="1.8" ry="1.8"/><path class="cls-2" d="M98,395.6a1.6,1.6,0,0,1,1.6,1.6v31a1.6,1.6,0,0,1-1.6,1.6H52a1.6,1.6,0,0,1-1.6-1.6v-31a1.6,1.6,0,0,1,1.6-1.6H98m0-.4H52a2,2,0,0,0-2,2v31a2,2,0,0,0,2,2H98a2,2,0,0,0,2-2v-31a2,2,0,0,0-2-2Z"/><rect class="cls-1" x="100.2" y="360.4" width="49.6" height="34.6" rx="1.8" ry="1.8"/><path class="cls-2" d="M148,360.6a1.6,1.6,0,0,1,1.6,1.6v31a1.6,1.6,0,0,1-1.6,1.6H102a1.6,1.6,0,0,1-1.6-1.6v-31a1.6,1.6,0,0,1,1.6-1.6h46m0-.4H102a2,2,0,0,0-2,2v31a2,2,0,0,0,2,2h46a2,2,0,0,0,2-2v-31a2,2,0,0,0-2-2Z"/><rect class="cls-1" x="100.2" y="395.4" width="49.6" height="34.6" rx="1.8" ry="1.8"/><path class="cls-2" d="M148,395.6a1.6,1.6,0,0,1,1.6,1.6v31a1.6,1.6,0,0,1-1.6,1.6H102a1.6,1.6,0,0,1-1.6-1.6v-31a1.6,1.6,0,0,1,1.6-1.6h46m0-.4H102a2,2,0,0,0-2,2v31a2,2,0,0,0,2,2h46a2,2,0,0,0,2-2v-31a2,2,0,0,0-2-2Z"/><rect class="cls-1" x="150.2" y="360.4" width="49.6" height="34.6" rx="1.8" ry="1.8"/><path class="cls-2" d="M198,360.6a1.6,1.6,0,0,1,1.6,1.6v31a1.6,1.6,0,0,1-1.6,1.6H152a1.6,1.6,0,0,1-1.6-1.6v-31a1.6,1.6,0,0,1,1.6-1.6h46m0-.4H152a2,2,0,0,0-2,2v31a2,2,0,0,0,2,2h46a2,2,0,0,0,2-2v-31a2,2,0,0,0-2-2Z"/><rect class="cls-1" x="150.2" y="395.4" width="49.6" height="34.6" rx="1.8" ry="1.8"/><path class="cls-2" d="M198,395.6a1.6,1.6,0,0,1,1.6,1.6v31a1.6,1.6,0,0,1-1.6,1.6H152a1.6,1.6,0,0,1-1.6-1.6v-31a1.6,1.6,0,0,1,1.6-1.6h46m0-.4H152a2,2,0,0,0-2,2v31a2,2,0,0,0,2,2h46a2,2,0,0,0,2-2v-31a2,2,0,0,0-2-2Z"/><rect class="cls-1" x="200.2" y="360.4" width="49.6" height="34.6" rx="1.8" ry="1.8"/><path class="cls-2" d="M248,360.6a1.6,1.6,0,0,1,1.6,1.6v31a1.6,1.6,0,0,1-1.6,1.6H202a1.6,1.6,0,0,1-1.6-1.6v-31a1.6,1.6,0,0,1,1.6-1.6h46m0-.4H202a2,2,0,0,0-2,2v31a2,2,0,0,0,2,2h46a2,2,0,0,0,2-2v-31a2,2,0,0,0-2-2Z"/><rect class="cls-1" x="200.2" y="395.4" width="49.6" height="34.6" rx="1.8" ry="1.8"/><path class="cls-2" d="M248,395.6a1.6,1.6,0,0,1,1.6,1.6v31a1.6,1.6,0,0,1-1.6,1.6H202a1.6,1.6,0,0,1-1.6-1.6v-31a1.6,1.6,0,0,1,1.6-1.6h46m0-.4H202a2,2,0,0,0-2,2v31a2,2,0,0,0,2,2h46a2,2,0,0,0,2-2v-31a2,2,0,0,0-2-2Z"/><rect class="cls-1" x="15.2" y="370.4" width="34.6" height="49.6" rx="1.8" ry="1.8"/><path class="cls-2" d="M48,370.6a1.6,1.6,0,0,1,1.6,1.6v46a1.6,1.6,0,0,1-1.6,1.6H17a1.6,1.6,0,0,1-1.6-1.6v-46a1.6,1.6,0,0,1,1.6-1.6H48m0-.4H17a2,2,0,0,0-2,2v46a2,2,0,0,0,2,2H48a2,2,0,0,0,2-2v-46a2,2,0,0,0-2-2Z"/><rect class="cls-1" x="50.2" y="450.4" width="49.6" height="34.6" rx="1.8" ry="1.8"/><path class="cls-2" d="M98,450.6a1.6,1.6,0,0,1,1.6,1.6v31a1.6,1.6,0,0,1-1.6,1.6H52a1.6,1.6,0,0,1-1.6-1.6v-31a1.6,1.6,0,0,1,1.6-1.6H98m0-.4H52a2,2,0,0,0-2,2v31a2,2,0,0,0,2,2H98a2,2,0,0,0,2-2v-31a2,2,0,0,0-2-2Z"/><rect class="cls-1" x="50.2" y="485.4" width="49.6" height="34.6" rx="1.8" ry="1.8"/><path class="cls-2" d="M98,485.6a1.6,1.6,0,0,1,1.6,1.6v31a1.6,1.6,0,0,1-1.6,1.6H52a1.6,1.6,0,0,1-1.6-1.6v-31a1.6,1.6,0,0,1,1.6-1.6H98m0-.4H52a2,2,0,0,0-2,2v31a2,2,0,0,0,2,2H98a2,2,0,0,0,2-2v-31a2,2,0,0,0-2-2Z"/><rect class="cls-1" x="100.2" y="450.4" width="49.6" height="34.6" rx="1.8" ry="1.8"/><path class="cls-2" d="M148,450.6a1.6,1.6,0,0,1,1.6,1.6v31a1.6,1.6,0,0,1-1.6,1.6H102a1.6,1.6,0,0,1-1.6-1.6v-31a1.6,1.6,0,0,1,1.6-1.6h46m0-.4H102a2,2,0,0,0-2,2v31a2,2,0,0,0,2,2h46a2,2,0,0,0,2-2v-31a2,2,0,0,0-2-2Z"/><rect class="cls-1" x="100.2" y="485.4" width="49.6" height="34.6" rx="1.8" ry="1.8"/><path class="cls-2" d="M148,485.6a1.6,1.6,0,0,1,1.6,1.6v31a1.6,1.6,0,0,1-1.6,1.6H102a1.6,1.6,0,0,1-1.6-1.6v-31a1.6,1.6,0,0,1,1.6-1.6h46m0-.4H102a2,2,0,0,0-2,2v31a2,2,0,0,0,2,2h46a2,2,0,0,0,2-2v-31a2,2,0,0,0-2-2Z"/><rect class="cls-1" x="150.2" y="450.4" width="49.6" height="34.6" rx="1.8" ry="1.8"/><path class="cls-2" d="M198,450.6a1.6,1.6,0,0,1,1.6,1.6v31a1.6,1.6,0,0,1-1.6,1.6H152a1.6,1.6,0,0,1-1.6-1.6v-31a1.6,1.6,0,0,1,1.6-1.6h46m0-.4H152a2,2,0,0,0-2,2v31a2,2,0,0,0,2,2h46a2,2,0,0,0,2-2v-31a2,2,0,0,0-2-2Z"/><rect class="cls-1" x="150.2" y="485.4" width="49.6" height="34.6" rx="1.8" ry="1.8"/><path class="cls-2" d="M198,485.6a1.6,1.6,0,0,1,1.6,1.6v31a1.6,1.6,0,0,1-1.6,1.6H152a1.6,1.6,0,0,1-1.6-1.6v-31a1.6,1.6,0,0,1,1.6-1.6h46m0-.4H152a2,2,0,0,0-2,2v31a2,2,0,0,0,2,2h46a2,2,0,0,0,2-2v-31a2,2,0,0,0-2-2Z"/><rect class="cls-1" x="200.2" y="450.4" width="49.6" height="34.6" rx="1.8" ry="1.8"/><path class="cls-2" d="M248,450.6a1.6,1.6,0,0,1,1.6,1.6v31a1.6,1.6,0,0,1-1.6,1.6H202a1.6,1.6,0,0,1-1.6-1.6v-31a1.6,1.6,0,0,1,1.6-1.6h46m0-.4H202a2,2,0,0,0-2,2v31a2,2,0,0,0,2,2h46a2,2,0,0,0,2-2v-31a2,2,0,0,0-2-2Z"/><rect class="cls-1" x="200.2" y="485.4" width="49.6" height="34.6" rx="1.8" ry="1.8"/><path class="cls-2" d="M248,485.6a1.6,1.6,0,0,1,1.6,1.6v31a1.6,1.6,0,0,1-1.6,1.6H202a1.6,1.6,0,0,1-1.6-1.6v-31a1.6,1.6,0,0,1,1.6-1.6h46m0-.4H202a2,2,0,0,0-2,2v31a2,2,0,0,0,2,2h46a2,2,0,0,0,2-2v-31a2,2,0,0,0-2-2Z"/><rect class="cls-4" x="50.2" y="550.4" width="49.6" height="34.6" rx="1.8" ry="1.8"/><path class="cls-5" d="M98,550.6a1.6,1.6,0,0,1,1.6,1.6v31a1.6,1.6,0,0,1-1.6,1.6H52a1.6,1.6,0,0,1-1.6-1.6v-31a1.6,1.6,0,0,1,1.6-1.6H98m0-.4H52a2,2,0,0,0-2,2v31a2,2,0,0,0,2,2H98a2,2,0,0,0,2-2v-31a2,2,0,0,0-2-2Z"/><rect class="cls-4" x="50.2" y="585.4" width="49.6" height="34.6" rx="1.8" ry="1.8"/><path class="cls-5" d="M98,585.6a1.6,1.6,0,0,1,1.6,1.6v31a1.6,1.6,0,0,1-1.6,1.6H52a1.6,1.6,0,0,1-1.6-1.6v-31a1.6,1.6,0,0,1,1.6-1.6H98m0-.4H52a2,2,0,0,0-2,2v31a2,2,0,0,0,2,2H98a2,2,0,0,0,2-2v-31a2,2,0,0,0-2-2Z"/><rect class="cls-4" x="0.2" y="550.4" width="49.6" height="34.6" rx="1.8" ry="1.8"/><path class="cls-5" d="M48,550.6a1.6,1.6,0,0,1,1.6,1.6v31a1.6,1.6,0,0,1-1.6,1.6H2a1.6,1.6,0,0,1-1.6-1.6v-31A1.6,1.6,0,0,1,2,550.6H48m0-.4H2a2,2,0,0,0-2,2v31a2,2,0,0,0,2,2H48a2,2,0,0,0,2-2v-31a2,2,0,0,0-2-2Z"/><rect class="cls-4" x="0.2" y="585.4" width="49.6" height="34.6" rx="1.8" ry="1.8"/><path class="cls-5" d="M48,585.6a1.6,1.6,0,0,1,1.6,1.6v31a1.6,1.6,0,0,1-1.6,1.6H2a1.6,1.6,0,0,1-1.6-1.6v-31A1.6,1.6,0,0,1,2,585.6H48m0-.4H2a2,2,0,0,0-2,2v31a2,2,0,0,0,2,2H48a2,2,0,0,0,2-2v-31a2,2,0,0,0-2-2Z"/><rect class="cls-4" x="100.2" y="550.4" width="49.6" height="34.6" rx="1.8" ry="1.8"/><path class="cls-5" d="M148,550.6a1.6,1.6,0,0,1,1.6,1.6v31a1.6,1.6,0,0,1-1.6,1.6H102a1.6,1.6,0,0,1-1.6-1.6v-31a1.6,1.6,0,0,1,1.6-1.6h46m0-.4H102a2,2,0,0,0-2,2v31a2,2,0,0,0,2,2h46a2,2,0,0,0,2-2v-31a2,2,0,0,0-2-2Z"/><rect class="cls-4" x="100.2" y="585.4" width="49.6" height="34.6" rx="1.8" ry="1.8"/><path class="cls-5" d="M148,585.6a1.6,1.6,0,0,1,1.6,1.6v31a1.6,1.6,0,0,1-1.6,1.6H102a1.6,1.6,0,0,1-1.6-1.6v-31a1.6,1.6,0,0,1,1.6-1.6h46m0-.4H102a2,2,0,0,0-2,2v31a2,2,0,0,0,2,2h46a2,2,0,0,0,2-2v-31a2,2,0,0,0-2-2Z"/><rect class="cls-4" x="150.2" y="550.4" width="49.6" height="34.6" rx="1.8" ry="1.8"/><path class="cls-5" d="M198,550.6a1.6,1.6,0,0,1,1.6,1.6v31a1.6,1.6,0,0,1-1.6,1.6H152a1.6,1.6,0,0,1-1.6-1.6v-31a1.6,1.6,0,0,1,1.6-1.6h46m0-.4H152a2,2,0,0,0-2,2v31a2,2,0,0,0,2,2h46a2,2,0,0,0,2-2v-31a2,2,0,0,0-2-2Z"/><rect class="cls-4" x="150.2" y="585.4" width="49.6" height="34.6" rx="1.8" ry="1.8"/><path class="cls-5" d="M198,585.6a1.6,1.6,0,0,1,1.6,1.6v31a1.6,1.6,0,0,1-1.6,1.6H152a1.6,1.6,0,0,1-1.6-1.6v-31a1.6,1.6,0,0,1,1.6-1.6h46m0-.4H152a2,2,0,0,0-2,2v31a2,2,0,0,0,2,2h46a2,2,0,0,0,2-2v-31a2,2,0,0,0-2-2Z"/><rect class="cls-4" x="200.2" y="550.4" width="49.6" height="34.6" rx="1.8" ry="1.8"/><path class="cls-5" d="M248,550.6a1.6,1.6,0,0,1,1.6,1.6v31a1.6,1.6,0,0,1-1.6,1.6H202a1.6,1.6,0,0,1-1.6-1.6v-31a1.6,1.6,0,0,1,1.6-1.6h46m0-.4H202a2,2,0,0,0-2,2v31a2,2,0,0,0,2,2h46a2,2,0,0,0,2-2v-31a2,2,0,0,0-2-2Z"/><rect class="cls-4" x="200.2" y="585.4" width="49.6" height="34.6" rx="1.8" ry="1.8"/><path class="cls-5" d="M248,585.6a1.6,1.6,0,0,1,1.6,1.6v31a1.6,1.6,0,0,1-1.6,1.6H202a1.6,1.6,0,0,1-1.6-1.6v-31a1.6,1.6,0,0,1,1.6-1.6h46m0-.4H202a2,2,0,0,0-2,2v31a2,2,0,0,0,2,2h46a2,2,0,0,0,2-2v-31a2,2,0,0,0-2-2Z"/><rect class="cls-4" x="50.2" y="640.4" width="49.6" height="34.6" rx="1.8" ry="1.8"/><path class="cls-5" d="M98,640.6a1.6,1.6,0,0,1,1.6,1.6v31a1.6,1.6,0,0,1-1.6,1.6H52a1.6,1.6,0,0,1-1.6-1.6v-31a1.6,1.6,0,0,1,1.6-1.6H98m0-.4H52a2,2,0,0,0-2,2v31a2,2,0,0,0,2,2H98a2,2,0,0,0,2-2v-31a2,2,0,0,0-2-2Z"/><rect class="cls-4" x="50.2" y="675.4" width="49.6" height="34.6" rx="1.8" ry="1.8"/><path class="cls-5" d="M98,675.6a1.6,1.6,0,0,1,1.6,1.6v31a1.6,1.6,0,0,1-1.6,1.6H52a1.6,1.6,0,0,1-1.6-1.6v-31a1.6,1.6,0,0,1,1.6-1.6H98m0-.4H52a2,2,0,0,0-2,2v31a2,2,0,0,0,2,2H98a2,2,0,0,0,2-2v-31a2,2,0,0,0-2-2Z"/><rect class="cls-4" x="0.2" y="640.4" width="49.6" height="34.6" rx="1.8" ry="1.8"/><path class="cls-5" d="M48,640.6a1.6,1.6,0,0,1,1.6,1.6v31a1.6,1.6,0,0,1-1.6,1.6H2a1.6,1.6,0,0,1-1.6-1.6v-31A1.6,1.6,0,0,1,2,640.6H48m0-.4H2a2,2,0,0,0-2,2v31a2,2,0,0,0,2,2H48a2,2,0,0,0,2-2v-31a2,2,0,0,0-2-2Z"/><rect class="cls-4" x="0.2" y="675.4" width="49.6" height="34.6" rx="1.8" ry="1.8"/><path class="cls-5" d="M48,675.6a1.6,1.6,0,0,1,1.6,1.6v31a1.6,1.6,0,0,1-1.6,1.6H2a1.6,1.6,0,0,1-1.6-1.6v-31A1.6,1.6,0,0,1,2,675.6H48m0-.4H2a2,2,0,0,0-2,2v31a2,2,0,0,0,2,2H48a2,2,0,0,0,2-2v-31a2,2,0,0,0-2-2Z"/><rect class="cls-4" x="100.2" y="640.4" width="49.6" height="34.6" rx="1.8" ry="1.8"/><path class="cls-5" d="M148,640.6a1.6,1.6,0,0,1,1.6,1.6v31a1.6,1.6,0,0,1-1.6,1.6H102a1.6,1.6,0,0,1-1.6-1.6v-31a1.6,1.6,0,0,1,1.6-1.6h46m0-.4H102a2,2,0,0,0-2,2v31a2,2,0,0,0,2,2h46a2,2,0,0,0,2-2v-31a2,2,0,0,0-2-2Z"/><rect class="cls-4" x="100.2" y="675.4" width="49.6" height="34.6" rx="1.8" ry="1.8"/><path class="cls-5" d="M148,675.6a1.6,1.6,0,0,1,1.6,1.6v31a1.6,1.6,0,0,1-1.6,1.6H102a1.6,1.6,0,0,1-1.6-1.6v-31a1.6,1.6,0,0,1,1.6-1.6h46m0-.4H102a2,2,0,0,0-2,2v31a2,2,0,0,0,2,2h46a2,2,0,0,0,2-2v-31a2,2,0,0,0-2-2Z"/><rect class="cls-4" x="150.2" y="640.4" width="49.6" height="34.6" rx="1.8" ry="1.8"/><path class="cls-5" d="M198,640.6a1.6,1.6,0,0,1,1.6,1.6v31a1.6,1.6,0,0,1-1.6,1.6H152a1.6,1.6,0,0,1-1.6-1.6v-31a1.6,1.6,0,0,1,1.6-1.6h46m0-.4H152a2,2,0,0,0-2,2v31a2,2,0,0,0,2,2h46a2,2,0,0,0,2-2v-31a2,2,0,0,0-2-2Z"/><rect class="cls-4" x="150.2" y="675.4" width="49.6" height="34.6" rx="1.8" ry="1.8"/><path class="cls-5" d="M198,675.6a1.6,1.6,0,0,1,1.6,1.6v31a1.6,1.6,0,0,1-1.6,1.6H152a1.6,1.6,0,0,1-1.6-1.6v-31a1.6,1.6,0,0,1,1.6-1.6h46m0-.4H152a2,2,0,0,0-2,2v31a2,2,0,0,0,2,2h46a2,2,0,0,0,2-2v-31a2,2,0,0,0-2-2Z"/><rect class="cls-4" x="200.2" y="640.4" width="49.6" height="34.6" rx="1.8" ry="1.8"/><path class="cls-5" d="M248,640.6a1.6,1.6,0,0,1,1.6,1.6v31a1.6,1.6,0,0,1-1.6,1.6H202a1.6,1.6,0,0,1-1.6-1.6v-31a1.6,1.6,0,0,1,1.6-1.6h46m0-.4H202a2,2,0,0,0-2,2v31a2,2,0,0,0,2,2h46a2,2,0,0,0,2-2v-31a2,2,0,0,0-2-2Z"/><rect class="cls-4" x="200.2" y="675.4" width="49.6" height="34.6" rx="1.8" ry="1.8"/><path class="cls-5" d="M248,675.6a1.6,1.6,0,0,1,1.6,1.6v31a1.6,1.6,0,0,1-1.6,1.6H202a1.6,1.6,0,0,1-1.6-1.6v-31a1.6,1.6,0,0,1,1.6-1.6h46m0-.4H202a2,2,0,0,0-2,2v31a2,2,0,0,0,2,2h46a2,2,0,0,0,2-2v-31a2,2,0,0,0-2-2Z"/><rect class="cls-1" x="15.2" y="460.4" width="34.6" height="49.6" rx="1.8" ry="1.8"/><path class="cls-2" d="M48,460.6a1.6,1.6,0,0,1,1.6,1.6v46a1.6,1.6,0,0,1-1.6,1.6H17a1.6,1.6,0,0,1-1.6-1.6v-46a1.6,1.6,0,0,1,1.6-1.6H48m0-.4H17a2,2,0,0,0-2,2v46a2,2,0,0,0,2,2H48a2,2,0,0,0,2-2v-46a2,2,0,0,0-2-2Z"/><rect class="cls-4" x="50.2" y="730.4" width="49.6" height="34.6" rx="1.8" ry="1.8"/><path class="cls-5" d="M98,730.6a1.6,1.6,0,0,1,1.6,1.6v31a1.6,1.6,0,0,1-1.6,1.6H52a1.6,1.6,0,0,1-1.6-1.6v-31a1.6,1.6,0,0,1,1.6-1.6H98m0-.4H52a2,2,0,0,0-2,2v31a2,2,0,0,0,2,2H98a2,2,0,0,0,2-2v-31a2,2,0,0,0-2-2Z"/><rect class="cls-4" x="50.2" y="765.4" width="49.6" height="34.6" rx="1.8" ry="1.8"/><path class="cls-5" d="M98,765.6a1.6,1.6,0,0,1,1.6,1.6v31a1.6,1.6,0,0,1-1.6,1.6H52a1.6,1.6,0,0,1-1.6-1.6v-31a1.6,1.6,0,0,1,1.6-1.6H98m0-.4H52a2,2,0,0,0-2,2v31a2,2,0,0,0,2,2H98a2,2,0,0,0,2-2v-31a2,2,0,0,0-2-2Z"/><rect class="cls-4" x="100.2" y="730.4" width="49.6" height="34.6" rx="1.8" ry="1.8"/><path class="cls-5" d="M148,730.6a1.6,1.6,0,0,1,1.6,1.6v31a1.6,1.6,0,0,1-1.6,1.6H102a1.6,1.6,0,0,1-1.6-1.6v-31a1.6,1.6,0,0,1,1.6-1.6h46m0-.4H102a2,2,0,0,0-2,2v31a2,2,0,0,0,2,2h46a2,2,0,0,0,2-2v-31a2,2,0,0,0-2-2Z"/><rect class="cls-4" x="100.2" y="765.4" width="49.6" height="34.6" rx="1.8" ry="1.8"/><path class="cls-5" d="M148,765.6a1.6,1.6,0,0,1,1.6,1.6v31a1.6,1.6,0,0,1-1.6,1.6H102a1.6,1.6,0,0,1-1.6-1.6v-31a1.6,1.6,0,0,1,1.6-1.6h46m0-.4H102a2,2,0,0,0-2,2v31a2,2,0,0,0,2,2h46a2,2,0,0,0,2-2v-31a2,2,0,0,0-2-2Z"/><rect class="cls-4" x="150.2" y="730.4" width="49.6" height="34.6" rx="1.8" ry="1.8"/><path class="cls-5" d="M198,730.6a1.6,1.6,0,0,1,1.6,1.6v31a1.6,1.6,0,0,1-1.6,1.6H152a1.6,1.6,0,0,1-1.6-1.6v-31a1.6,1.6,0,0,1,1.6-1.6h46m0-.4H152a2,2,0,0,0-2,2v31a2,2,0,0,0,2,2h46a2,2,0,0,0,2-2v-31a2,2,0,0,0-2-2Z"/><rect class="cls-4" x="150.2" y="765.4" width="49.6" height="34.6" rx="1.8" ry="1.8"/><path class="cls-5" d="M198,765.6a1.6,1.6,0,0,1,1.6,1.6v31a1.6,1.6,0,0,1-1.6,1.6H152a1.6,1.6,0,0,1-1.6-1.6v-31a1.6,1.6,0,0,1,1.6-1.6h46m0-.4H152a2,2,0,0,0-2,2v31a2,2,0,0,0,2,2h46a2,2,0,0,0,2-2v-31a2,2,0,0,0-2-2Z"/><rect class="cls-4" x="200.2" y="730.4" width="49.6" height="34.6" rx="1.8" ry="1.8"/><path class="cls-5" d="M248,730.6a1.6,1.6,0,0,1,1.6,1.6v31a1.6,1.6,0,0,1-1.6,1.6H202a1.6,1.6,0,0,1-1.6-1.6v-31a1.6,1.6,0,0,1,1.6-1.6h46m0-.4H202a2,2,0,0,0-2,2v31a2,2,0,0,0,2,2h46a2,2,0,0,0,2-2v-31a2,2,0,0,0-2-2Z"/><rect class="cls-4" x="200.2" y="765.4" width="49.6" height="34.6" rx="1.8" ry="1.8"/><path class="cls-5" d="M248,765.6a1.6,1.6,0,0,1,1.6,1.6v31a1.6,1.6,0,0,1-1.6,1.6H202a1.6,1.6,0,0,1-1.6-1.6v-31a1.6,1.6,0,0,1,1.6-1.6h46m0-.4H202a2,2,0,0,0-2,2v31a2,2,0,0,0,2,2h46a2,2,0,0,0,2-2v-31a2,2,0,0,0-2-2Z"/><rect class="cls-4" x="15.2" y="740.4" width="34.6" height="49.6" rx="1.8" ry="1.8"/><path class="cls-5" d="M48,740.6a1.6,1.6,0,0,1,1.6,1.6v46a1.6,1.6,0,0,1-1.6,1.6H17a1.6,1.6,0,0,1-1.6-1.6v-46a1.6,1.6,0,0,1,1.6-1.6H48m0-.4H17a2,2,0,0,0-2,2v46a2,2,0,0,0,2,2H48a2,2,0,0,0,2-2v-46a2,2,0,0,0-2-2Z"/><circle class="cls-3" cx="1012.5" cy="137.7" r="87.5"/><rect class="cls-3" x="350" y="0.2" width="475" height="250" rx="2" ry="2"/><rect class="cls-1" x="1045.2" y="530.4" width="89.6" height="89.6" rx="1.8" ry="1.8"/><path class="cls-2" d="M1133,530.6a1.6,1.6,0,0,1,1.6,1.6v86a1.6,1.6,0,0,1-1.6,1.6h-86a1.6,1.6,0,0,1-1.6-1.6v-86a1.6,1.6,0,0,1,1.6-1.6h86m0-.4h-86a2,2,0,0,0-2,2v86a2,2,0,0,0,2,2h86a2,2,0,0,0,2-2v-86a2,2,0,0,0-2-2Z"/><rect class="cls-1" x="1045.2" y="620.4" width="89.6" height="89.6" rx="1.8" ry="1.8"/><path class="cls-2" d="M1133,620.6a1.6,1.6,0,0,1,1.6,1.6v86a1.6,1.6,0,0,1-1.6,1.6h-86a1.6,1.6,0,0,1-1.6-1.6v-86a1.6,1.6,0,0,1,1.6-1.6h86m0-.4h-86a2,2,0,0,0-2,2v86a2,2,0,0,0,2,2h86a2,2,0,0,0,2-2v-86a2,2,0,0,0-2-2Z"/><rect class="cls-3" x="500" y="300.2" width="90" height="90" rx="2" ry="2"/><rect class="cls-3" x="500" y="390.2" width="90" height="90" rx="2" ry="2"/><rect class="cls-3" x="1540" y="300.2" width="145" height="60" rx="2" ry="2"/><rect class="cls-3" x="1625" y="250.2" width="60" height="50" rx="2" ry="2"/><rect class="cls-3" x="1625" y="480.2" width="60" height="50" rx="2" ry="2"/><rect class="cls-3" x="1540" y="360.2" width="145" height="60" rx="2" ry="2"/><rect class="cls-3" x="1540" y="420.2" width="145" height="60" rx="2" ry="2"/><rect class="cls-3" x="590" y="300.2" width="355" height="180" rx="2" ry="2"/><rect class="cls-3" x="1125" y="300.2" width="355" height="180" rx="2" ry="2"/><rect class="cls-1" x="1250.2" y="530.4" width="144.6" height="144.6" rx="1.8" ry="1.8"/><path class="cls-2" d="M1393,530.6a1.6,1.6,0,0,1,1.6,1.6v141a1.6,1.6,0,0,1-1.6,1.6H1252a1.6,1.6,0,0,1-1.6-1.6v-141a1.6,1.6,0,0,1,1.6-1.6h141m0-.4H1252a2,2,0,0,0-2,2v141a2,2,0,0,0,2,2h141a2,2,0,0,0,2-2v-141a2,2,0,0,0-2-2Z"/><rect class="cls-1" x="1395.2" y="530.4" width="144.6" height="144.6" rx="1.8" ry="1.8"/><path class="cls-2" d="M1538,530.6a1.6,1.6,0,0,1,1.6,1.6v141a1.6,1.6,0,0,1-1.6,1.6H1397a1.6,1.6,0,0,1-1.6-1.6v-141a1.6,1.6,0,0,1,1.6-1.6h141m0-.4H1397a2,2,0,0,0-2,2v141a2,2,0,0,0,2,2h141a2,2,0,0,0,2-2v-141a2,2,0,0,0-2-2Z"/><rect class="cls-1" x="1540.2" y="530.4" width="144.6" height="269.6" rx="1.8" ry="1.8"/><path class="cls-2" d="M1683,530.6a1.6,1.6,0,0,1,1.6,1.6v266a1.6,1.6,0,0,1-1.6,1.6H1542a1.6,1.6,0,0,1-1.6-1.6v-266a1.6,1.6,0,0,1,1.6-1.6h141m0-.4H1542a2,2,0,0,0-2,2v266a2,2,0,0,0,2,2h141a2,2,0,0,0,2-2v-266a2,2,0,0,0-2-2Z"/><rect class="cls-3" x="350" y="425.2" width="35" height="75" rx="2" ry="2" transform="translate(-95.2 830.2) rotate(-90)"/><rect class="cls-3" x="1245" y="195.2" width="35" height="75" rx="2" ry="2" transform="translate(1029.8 1495.2) rotate(-90)"/><rect class="cls-3" x="350" y="300.2" width="35" height="120" rx="2" ry="2"/><rect class="cls-3" x="1242.5" y="677.7" width="35" height="120" rx="2" ry="2" transform="translate(1997.7 -522.3) rotate(90)"/><rect class="cls-3" x="1382.5" y="677.7" width="35" height="120" rx="2" ry="2" transform="translate(2137.7 -662.3) rotate(90)"/><rect class="cls-6" x="870.2" y="215.4" width="74.6" height="34.6" rx="1.8" ry="1.8"/><path class="cls-7" d="M943,215.6a1.6,1.6,0,0,1,1.6,1.6v31a1.6,1.6,0,0,1-1.6,1.6H872a1.6,1.6,0,0,1-1.6-1.6v-31a1.6,1.6,0,0,1,1.6-1.6h71m0-.4H872a2,2,0,0,0-2,2v31a2,2,0,0,0,2,2h71a2,2,0,0,0,2-2v-31a2,2,0,0,0-2-2Z"/><path class="cls-8" d="M1023.55,130.2H1018a1.44,1.44,0,0,0-1.45,1.45V134h-3.73a1.44,1.44,0,0,0-1.45,1.45v2.35h-4.22a1.45,1.45,0,0,0-1.45,1.45v2.35h-4.21a1.45,1.45,0,0,0,0,2.9h5.66a1.45,1.45,0,0,0,1.45-1.45V140.7h4.22a1.45,1.45,0,0,0,1.45-1.45V136.9H1018a1.45,1.45,0,0,0,1.45-1.45V133.1h4.14a1.45,1.45,0,1,0,0-2.9Z"/><rect class="cls-4" x="290.2" y="565.4" width="49.6" height="34.6" rx="1.8" ry="1.8"/><path class="cls-5" d="M338,565.6a1.6,1.6,0,0,1,1.6,1.6v31a1.6,1.6,0,0,1-1.6,1.6H292a1.6,1.6,0,0,1-1.6-1.6v-31a1.6,1.6,0,0,1,1.6-1.6h46m0-.4H292a2,2,0,0,0-2,2v31a2,2,0,0,0,2,2h46a2,2,0,0,0,2-2v-31a2,2,0,0,0-2-2Z"/><rect class="cls-4" x="290.2" y="600.4" width="49.6" height="34.6" rx="1.8" ry="1.8"/><path class="cls-5" d="M338,600.6a1.6,1.6,0,0,1,1.6,1.6v31a1.6,1.6,0,0,1-1.6,1.6H292a1.6,1.6,0,0,1-1.6-1.6v-31a1.6,1.6,0,0,1,1.6-1.6h46m0-.4H292a2,2,0,0,0-2,2v31a2,2,0,0,0,2,2h46a2,2,0,0,0,2-2v-31a2,2,0,0,0-2-2Z"/><rect class="cls-4" x="290.2" y="635.4" width="49.6" height="34.6" rx="1.8" ry="1.8"/><path class="cls-5" d="M338,635.6a1.6,1.6,0,0,1,1.6,1.6v31a1.6,1.6,0,0,1-1.6,1.6H292a1.6,1.6,0,0,1-1.6-1.6v-31a1.6,1.6,0,0,1,1.6-1.6h46m0-.4H292a2,2,0,0,0-2,2v31a2,2,0,0,0,2,2h46a2,2,0,0,0,2-2v-31a2,2,0,0,0-2-2Z"/><rect class="cls-4" x="340.2" y="565.4" width="49.6" height="34.6" rx="1.8" ry="1.8"/><path class="cls-5" d="M388,565.6a1.6,1.6,0,0,1,1.6,1.6v31a1.6,1.6,0,0,1-1.6,1.6H342a1.6,1.6,0,0,1-1.6-1.6v-31a1.6,1.6,0,0,1,1.6-1.6h46m0-.4H342a2,2,0,0,0-2,2v31a2,2,0,0,0,2,2h46a2,2,0,0,0,2-2v-31a2,2,0,0,0-2-2Z"/><rect class="cls-4" x="290.2" y="530.4" width="49.6" height="34.6" rx="1.8" ry="1.8"/><path class="cls-5" d="M338,530.6a1.6,1.6,0,0,1,1.6,1.6v31a1.6,1.6,0,0,1-1.6,1.6H292a1.6,1.6,0,0,1-1.6-1.6v-31a1.6,1.6,0,0,1,1.6-1.6h46m0-.4H292a2,2,0,0,0-2,2v31a2,2,0,0,0,2,2h46a2,2,0,0,0,2-2v-31a2,2,0,0,0-2-2Z"/><rect class="cls-4" x="340.2" y="530.4" width="49.6" height="34.6" rx="1.8" ry="1.8"/><path class="cls-5" d="M388,530.6a1.6,1.6,0,0,1,1.6,1.6v31a1.6,1.6,0,0,1-1.6,1.6H342a1.6,1.6,0,0,1-1.6-1.6v-31a1.6,1.6,0,0,1,1.6-1.6h46m0-.4H342a2,2,0,0,0-2,2v31a2,2,0,0,0,2,2h46a2,2,0,0,0,2-2v-31a2,2,0,0,0-2-2Z"/><rect class="cls-4" x="340.2" y="600.4" width="49.6" height="34.6" rx="1.8" ry="1.8"/><path class="cls-5" d="M388,600.6a1.6,1.6,0,0,1,1.6,1.6v31a1.6,1.6,0,0,1-1.6,1.6H342a1.6,1.6,0,0,1-1.6-1.6v-31a1.6,1.6,0,0,1,1.6-1.6h46m0-.4H342a2,2,0,0,0-2,2v31a2,2,0,0,0,2,2h46a2,2,0,0,0,2-2v-31a2,2,0,0,0-2-2Z"/><rect class="cls-4" x="340.2" y="635.4" width="49.6" height="34.6" rx="1.8" ry="1.8"/><path class="cls-5" d="M388,635.6a1.6,1.6,0,0,1,1.6,1.6v31a1.6,1.6,0,0,1-1.6,1.6H342a1.6,1.6,0,0,1-1.6-1.6v-31a1.6,1.6,0,0,1,1.6-1.6h46m0-.4H342a2,2,0,0,0-2,2v31a2,2,0,0,0,2,2h46a2,2,0,0,0,2-2v-31a2,2,0,0,0-2-2Z"/><rect class="cls-4" x="290.2" y="670.4" width="49.6" height="34.6" rx="1.8" ry="1.8"/><path class="cls-5" d="M338,670.6a1.6,1.6,0,0,1,1.6,1.6v31a1.6,1.6,0,0,1-1.6,1.6H292a1.6,1.6,0,0,1-1.6-1.6v-31a1.6,1.6,0,0,1,1.6-1.6h46m0-.4H292a2,2,0,0,0-2,2v31a2,2,0,0,0,2,2h46a2,2,0,0,0,2-2v-31a2,2,0,0,0-2-2Z"/><rect class="cls-4" x="340.2" y="670.4" width="49.6" height="34.6" rx="1.8" ry="1.8"/><path class="cls-5" d="M388,670.6a1.6,1.6,0,0,1,1.6,1.6v31a1.6,1.6,0,0,1-1.6,1.6H342a1.6,1.6,0,0,1-1.6-1.6v-31a1.6,1.6,0,0,1,1.6-1.6h46m0-.4H342a2,2,0,0,0-2,2v31a2,2,0,0,0,2,2h46a2,2,0,0,0,2-2v-31a2,2,0,0,0-2-2Z"/><rect class="cls-4" x="410.2" y="565.4" width="49.6" height="34.6" rx="1.8" ry="1.8"/><path class="cls-5" d="M458,565.6a1.6,1.6,0,0,1,1.6,1.6v31a1.6,1.6,0,0,1-1.6,1.6H412a1.6,1.6,0,0,1-1.6-1.6v-31a1.6,1.6,0,0,1,1.6-1.6h46m0-.4H412a2,2,0,0,0-2,2v31a2,2,0,0,0,2,2h46a2,2,0,0,0,2-2v-31a2,2,0,0,0-2-2Z"/><rect class="cls-4" x="410.2" y="600.4" width="49.6" height="34.6" rx="1.8" ry="1.8"/><path class="cls-5" d="M458,600.6a1.6,1.6,0,0,1,1.6,1.6v31a1.6,1.6,0,0,1-1.6,1.6H412a1.6,1.6,0,0,1-1.6-1.6v-31a1.6,1.6,0,0,1,1.6-1.6h46m0-.4H412a2,2,0,0,0-2,2v31a2,2,0,0,0,2,2h46a2,2,0,0,0,2-2v-31a2,2,0,0,0-2-2Z"/><rect class="cls-4" x="410.2" y="635.4" width="49.6" height="34.6" rx="1.8" ry="1.8"/><path class="cls-5" d="M458,635.6a1.6,1.6,0,0,1,1.6,1.6v31a1.6,1.6,0,0,1-1.6,1.6H412a1.6,1.6,0,0,1-1.6-1.6v-31a1.6,1.6,0,0,1,1.6-1.6h46m0-.4H412a2,2,0,0,0-2,2v31a2,2,0,0,0,2,2h46a2,2,0,0,0,2-2v-31a2,2,0,0,0-2-2Z"/><rect class="cls-4" x="460.2" y="565.4" width="49.6" height="34.6" rx="1.8" ry="1.8"/><path class="cls-5" d="M508,565.6a1.6,1.6,0,0,1,1.6,1.6v31a1.6,1.6,0,0,1-1.6,1.6H462a1.6,1.6,0,0,1-1.6-1.6v-31a1.6,1.6,0,0,1,1.6-1.6h46m0-.4H462a2,2,0,0,0-2,2v31a2,2,0,0,0,2,2h46a2,2,0,0,0,2-2v-31a2,2,0,0,0-2-2Z"/><rect class="cls-4" x="410.2" y="530.4" width="49.6" height="34.6" rx="1.8" ry="1.8"/><path class="cls-5" d="M458,530.6a1.6,1.6,0,0,1,1.6,1.6v31a1.6,1.6,0,0,1-1.6,1.6H412a1.6,1.6,0,0,1-1.6-1.6v-31a1.6,1.6,0,0,1,1.6-1.6h46m0-.4H412a2,2,0,0,0-2,2v31a2,2,0,0,0,2,2h46a2,2,0,0,0,2-2v-31a2,2,0,0,0-2-2Z"/><rect class="cls-4" x="460.2" y="530.4" width="49.6" height="34.6" rx="1.8" ry="1.8"/><path class="cls-5" d="M508,530.6a1.6,1.6,0,0,1,1.6,1.6v31a1.6,1.6,0,0,1-1.6,1.6H462a1.6,1.6,0,0,1-1.6-1.6v-31a1.6,1.6,0,0,1,1.6-1.6h46m0-.4H462a2,2,0,0,0-2,2v31a2,2,0,0,0,2,2h46a2,2,0,0,0,2-2v-31a2,2,0,0,0-2-2Z"/><rect class="cls-4" x="460.2" y="600.4" width="49.6" height="34.6" rx="1.8" ry="1.8"/><path class="cls-5" d="M508,600.6a1.6,1.6,0,0,1,1.6,1.6v31a1.6,1.6,0,0,1-1.6,1.6H462a1.6,1.6,0,0,1-1.6-1.6v-31a1.6,1.6,0,0,1,1.6-1.6h46m0-.4H462a2,2,0,0,0-2,2v31a2,2,0,0,0,2,2h46a2,2,0,0,0,2-2v-31a2,2,0,0,0-2-2Z"/><rect class="cls-4" x="460.2" y="635.4" width="49.6" height="34.6" rx="1.8" ry="1.8"/><path class="cls-5" d="M508,635.6a1.6,1.6,0,0,1,1.6,1.6v31a1.6,1.6,0,0,1-1.6,1.6H462a1.6,1.6,0,0,1-1.6-1.6v-31a1.6,1.6,0,0,1,1.6-1.6h46m0-.4H462a2,2,0,0,0-2,2v31a2,2,0,0,0,2,2h46a2,2,0,0,0,2-2v-31a2,2,0,0,0-2-2Z"/><rect class="cls-4" x="410.2" y="670.4" width="49.6" height="34.6" rx="1.8" ry="1.8"/><path class="cls-5" d="M458,670.6a1.6,1.6,0,0,1,1.6,1.6v31a1.6,1.6,0,0,1-1.6,1.6H412a1.6,1.6,0,0,1-1.6-1.6v-31a1.6,1.6,0,0,1,1.6-1.6h46m0-.4H412a2,2,0,0,0-2,2v31a2,2,0,0,0,2,2h46a2,2,0,0,0,2-2v-31a2,2,0,0,0-2-2Z"/><rect class="cls-4" x="460.2" y="670.4" width="49.6" height="34.6" rx="1.8" ry="1.8"/><path class="cls-5" d="M508,670.6a1.6,1.6,0,0,1,1.6,1.6v31a1.6,1.6,0,0,1-1.6,1.6H462a1.6,1.6,0,0,1-1.6-1.6v-31a1.6,1.6,0,0,1,1.6-1.6h46m0-.4H462a2,2,0,0,0-2,2v31a2,2,0,0,0,2,2h46a2,2,0,0,0,2-2v-31a2,2,0,0,0-2-2Z"/><rect class="cls-6" x="650.2" y="565.4" width="49.6" height="34.6" rx="1.8" ry="1.8"/><path class="cls-7" d="M698,565.6a1.6,1.6,0,0,1,1.6,1.6v31a1.6,1.6,0,0,1-1.6,1.6H652a1.6,1.6,0,0,1-1.6-1.6v-31a1.6,1.6,0,0,1,1.6-1.6h46m0-.4H652a2,2,0,0,0-2,2v31a2,2,0,0,0,2,2h46a2,2,0,0,0,2-2v-31a2,2,0,0,0-2-2Z"/><rect class="cls-6" x="650.2" y="600.4" width="49.6" height="34.6" rx="1.8" ry="1.8"/><path class="cls-7" d="M698,600.6a1.6,1.6,0,0,1,1.6,1.6v31a1.6,1.6,0,0,1-1.6,1.6H652a1.6,1.6,0,0,1-1.6-1.6v-31a1.6,1.6,0,0,1,1.6-1.6h46m0-.4H652a2,2,0,0,0-2,2v31a2,2,0,0,0,2,2h46a2,2,0,0,0,2-2v-31a2,2,0,0,0-2-2Z"/><rect class="cls-6" x="650.2" y="635.4" width="49.6" height="34.6" rx="1.8" ry="1.8"/><path class="cls-7" d="M698,635.6a1.6,1.6,0,0,1,1.6,1.6v31a1.6,1.6,0,0,1-1.6,1.6H652a1.6,1.6,0,0,1-1.6-1.6v-31a1.6,1.6,0,0,1,1.6-1.6h46m0-.4H652a2,2,0,0,0-2,2v31a2,2,0,0,0,2,2h46a2,2,0,0,0,2-2v-31a2,2,0,0,0-2-2Z"/><rect class="cls-6" x="700.2" y="565.4" width="49.6" height="34.6" rx="1.8" ry="1.8"/><path class="cls-7" d="M748,565.6a1.6,1.6,0,0,1,1.6,1.6v31a1.6,1.6,0,0,1-1.6,1.6H702a1.6,1.6,0,0,1-1.6-1.6v-31a1.6,1.6,0,0,1,1.6-1.6h46m0-.4H702a2,2,0,0,0-2,2v31a2,2,0,0,0,2,2h46a2,2,0,0,0,2-2v-31a2,2,0,0,0-2-2Z"/><rect class="cls-6" x="650.2" y="530.4" width="49.6" height="34.6" rx="1.8" ry="1.8"/><path class="cls-7" d="M698,530.6a1.6,1.6,0,0,1,1.6,1.6v31a1.6,1.6,0,0,1-1.6,1.6H652a1.6,1.6,0,0,1-1.6-1.6v-31a1.6,1.6,0,0,1,1.6-1.6h46m0-.4H652a2,2,0,0,0-2,2v31a2,2,0,0,0,2,2h46a2,2,0,0,0,2-2v-31a2,2,0,0,0-2-2Z"/><rect class="cls-6" x="700.2" y="530.4" width="49.6" height="34.6" rx="1.8" ry="1.8"/><path class="cls-7" d="M748,530.6a1.6,1.6,0,0,1,1.6,1.6v31a1.6,1.6,0,0,1-1.6,1.6H702a1.6,1.6,0,0,1-1.6-1.6v-31a1.6,1.6,0,0,1,1.6-1.6h46m0-.4H702a2,2,0,0,0-2,2v31a2,2,0,0,0,2,2h46a2,2,0,0,0,2-2v-31a2,2,0,0,0-2-2Z"/><rect class="cls-6" x="700.2" y="600.4" width="49.6" height="34.6" rx="1.8" ry="1.8"/><path class="cls-7" d="M748,600.6a1.6,1.6,0,0,1,1.6,1.6v31a1.6,1.6,0,0,1-1.6,1.6H702a1.6,1.6,0,0,1-1.6-1.6v-31a1.6,1.6,0,0,1,1.6-1.6h46m0-.4H702a2,2,0,0,0-2,2v31a2,2,0,0,0,2,2h46a2,2,0,0,0,2-2v-31a2,2,0,0,0-2-2Z"/><rect class="cls-6" x="700.2" y="635.4" width="49.6" height="34.6" rx="1.8" ry="1.8"/><path class="cls-7" d="M748,635.6a1.6,1.6,0,0,1,1.6,1.6v31a1.6,1.6,0,0,1-1.6,1.6H702a1.6,1.6,0,0,1-1.6-1.6v-31a1.6,1.6,0,0,1,1.6-1.6h46m0-.4H702a2,2,0,0,0-2,2v31a2,2,0,0,0,2,2h46a2,2,0,0,0,2-2v-31a2,2,0,0,0-2-2Z"/><rect class="cls-6" x="650.2" y="670.4" width="49.6" height="34.6" rx="1.8" ry="1.8"/><path class="cls-7" d="M698,670.6a1.6,1.6,0,0,1,1.6,1.6v31a1.6,1.6,0,0,1-1.6,1.6H652a1.6,1.6,0,0,1-1.6-1.6v-31a1.6,1.6,0,0,1,1.6-1.6h46m0-.4H652a2,2,0,0,0-2,2v31a2,2,0,0,0,2,2h46a2,2,0,0,0,2-2v-31a2,2,0,0,0-2-2Z"/><rect class="cls-6" x="700.2" y="670.4" width="49.6" height="34.6" rx="1.8" ry="1.8"/><path class="cls-7" d="M748,670.6a1.6,1.6,0,0,1,1.6,1.6v31a1.6,1.6,0,0,1-1.6,1.6H702a1.6,1.6,0,0,1-1.6-1.6v-31a1.6,1.6,0,0,1,1.6-1.6h46m0-.4H702a2,2,0,0,0-2,2v31a2,2,0,0,0,2,2h46a2,2,0,0,0,2-2v-31a2,2,0,0,0-2-2Z"/><rect class="cls-6" x="770.2" y="565.4" width="49.6" height="34.6" rx="1.8" ry="1.8"/><path class="cls-7" d="M818,565.6a1.6,1.6,0,0,1,1.6,1.6v31a1.6,1.6,0,0,1-1.6,1.6H772a1.6,1.6,0,0,1-1.6-1.6v-31a1.6,1.6,0,0,1,1.6-1.6h46m0-.4H772a2,2,0,0,0-2,2v31a2,2,0,0,0,2,2h46a2,2,0,0,0,2-2v-31a2,2,0,0,0-2-2Z"/><rect class="cls-6" x="770.2" y="600.4" width="49.6" height="34.6" rx="1.8" ry="1.8"/><path class="cls-7" d="M818,600.6a1.6,1.6,0,0,1,1.6,1.6v31a1.6,1.6,0,0,1-1.6,1.6H772a1.6,1.6,0,0,1-1.6-1.6v-31a1.6,1.6,0,0,1,1.6-1.6h46m0-.4H772a2,2,0,0,0-2,2v31a2,2,0,0,0,2,2h46a2,2,0,0,0,2-2v-31a2,2,0,0,0-2-2Z"/><rect class="cls-6" x="770.2" y="635.4" width="49.6" height="34.6" rx="1.8" ry="1.8"/><path class="cls-7" d="M818,635.6a1.6,1.6,0,0,1,1.6,1.6v31a1.6,1.6,0,0,1-1.6,1.6H772a1.6,1.6,0,0,1-1.6-1.6v-31a1.6,1.6,0,0,1,1.6-1.6h46m0-.4H772a2,2,0,0,0-2,2v31a2,2,0,0,0,2,2h46a2,2,0,0,0,2-2v-31a2,2,0,0,0-2-2Z"/><rect class="cls-6" x="820.2" y="565.4" width="49.6" height="34.6" rx="1.8" ry="1.8"/><path class="cls-7" d="M868,565.6a1.6,1.6,0,0,1,1.6,1.6v31a1.6,1.6,0,0,1-1.6,1.6H822a1.6,1.6,0,0,1-1.6-1.6v-31a1.6,1.6,0,0,1,1.6-1.6h46m0-.4H822a2,2,0,0,0-2,2v31a2,2,0,0,0,2,2h46a2,2,0,0,0,2-2v-31a2,2,0,0,0-2-2Z"/><rect class="cls-6" x="770.2" y="530.4" width="49.6" height="34.6" rx="1.8" ry="1.8"/><path class="cls-7" d="M818,530.6a1.6,1.6,0,0,1,1.6,1.6v31a1.6,1.6,0,0,1-1.6,1.6H772a1.6,1.6,0,0,1-1.6-1.6v-31a1.6,1.6,0,0,1,1.6-1.6h46m0-.4H772a2,2,0,0,0-2,2v31a2,2,0,0,0,2,2h46a2,2,0,0,0,2-2v-31a2,2,0,0,0-2-2Z"/><rect class="cls-6" x="820.2" y="530.4" width="49.6" height="34.6" rx="1.8" ry="1.8"/><path class="cls-7" d="M868,530.6a1.6,1.6,0,0,1,1.6,1.6v31a1.6,1.6,0,0,1-1.6,1.6H822a1.6,1.6,0,0,1-1.6-1.6v-31a1.6,1.6,0,0,1,1.6-1.6h46m0-.4H822a2,2,0,0,0-2,2v31a2,2,0,0,0,2,2h46a2,2,0,0,0,2-2v-31a2,2,0,0,0-2-2Z"/><rect class="cls-6" x="820.2" y="600.4" width="49.6" height="34.6" rx="1.8" ry="1.8"/><path class="cls-7" d="M868,600.6a1.6,1.6,0,0,1,1.6,1.6v31a1.6,1.6,0,0,1-1.6,1.6H822a1.6,1.6,0,0,1-1.6-1.6v-31a1.6,1.6,0,0,1,1.6-1.6h46m0-.4H822a2,2,0,0,0-2,2v31a2,2,0,0,0,2,2h46a2,2,0,0,0,2-2v-31a2,2,0,0,0-2-2Z"/><rect class="cls-6" x="820.2" y="635.4" width="49.6" height="34.6" rx="1.8" ry="1.8"/><path class="cls-7" d="M868,635.6a1.6,1.6,0,0,1,1.6,1.6v31a1.6,1.6,0,0,1-1.6,1.6H822a1.6,1.6,0,0,1-1.6-1.6v-31a1.6,1.6,0,0,1,1.6-1.6h46m0-.4H822a2,2,0,0,0-2,2v31a2,2,0,0,0,2,2h46a2,2,0,0,0,2-2v-31a2,2,0,0,0-2-2Z"/><rect class="cls-6" x="770.2" y="670.4" width="49.6" height="34.6" rx="1.8" ry="1.8"/><path class="cls-7" d="M818,670.6a1.6,1.6,0,0,1,1.6,1.6v31a1.6,1.6,0,0,1-1.6,1.6H772a1.6,1.6,0,0,1-1.6-1.6v-31a1.6,1.6,0,0,1,1.6-1.6h46m0-.4H772a2,2,0,0,0-2,2v31a2,2,0,0,0,2,2h46a2,2,0,0,0,2-2v-31a2,2,0,0,0-2-2Z"/><rect class="cls-6" x="820.2" y="670.4" width="49.6" height="34.6" rx="1.8" ry="1.8"/><path class="cls-7" d="M868,670.6a1.6,1.6,0,0,1,1.6,1.6v31a1.6,1.6,0,0,1-1.6,1.6H822a1.6,1.6,0,0,1-1.6-1.6v-31a1.6,1.6,0,0,1,1.6-1.6h46m0-.4H822a2,2,0,0,0-2,2v31a2,2,0,0,0,2,2h46a2,2,0,0,0,2-2v-31a2,2,0,0,0-2-2Z"/><rect class="cls-6" x="890.2" y="565.4" width="49.6" height="34.6" rx="1.8" ry="1.8"/><path class="cls-7" d="M938,565.6a1.6,1.6,0,0,1,1.6,1.6v31a1.6,1.6,0,0,1-1.6,1.6H892a1.6,1.6,0,0,1-1.6-1.6v-31a1.6,1.6,0,0,1,1.6-1.6h46m0-.4H892a2,2,0,0,0-2,2v31a2,2,0,0,0,2,2h46a2,2,0,0,0,2-2v-31a2,2,0,0,0-2-2Z"/><rect class="cls-6" x="890.2" y="600.4" width="49.6" height="34.6" rx="1.8" ry="1.8"/><path class="cls-7" d="M938,600.6a1.6,1.6,0,0,1,1.6,1.6v31a1.6,1.6,0,0,1-1.6,1.6H892a1.6,1.6,0,0,1-1.6-1.6v-31a1.6,1.6,0,0,1,1.6-1.6h46m0-.4H892a2,2,0,0,0-2,2v31a2,2,0,0,0,2,2h46a2,2,0,0,0,2-2v-31a2,2,0,0,0-2-2Z"/><rect class="cls-6" x="890.2" y="635.4" width="49.6" height="34.6" rx="1.8" ry="1.8"/><path class="cls-7" d="M938,635.6a1.6,1.6,0,0,1,1.6,1.6v31a1.6,1.6,0,0,1-1.6,1.6H892a1.6,1.6,0,0,1-1.6-1.6v-31a1.6,1.6,0,0,1,1.6-1.6h46m0-.4H892a2,2,0,0,0-2,2v31a2,2,0,0,0,2,2h46a2,2,0,0,0,2-2v-31a2,2,0,0,0-2-2Z"/><rect class="cls-6" x="940.2" y="565.4" width="49.6" height="34.6" rx="1.8" ry="1.8"/><path class="cls-7" d="M988,565.6a1.6,1.6,0,0,1,1.6,1.6v31a1.6,1.6,0,0,1-1.6,1.6H942a1.6,1.6,0,0,1-1.6-1.6v-31a1.6,1.6,0,0,1,1.6-1.6h46m0-.4H942a2,2,0,0,0-2,2v31a2,2,0,0,0,2,2h46a2,2,0,0,0,2-2v-31a2,2,0,0,0-2-2Z"/><rect class="cls-6" x="890.2" y="530.4" width="49.6" height="34.6" rx="1.8" ry="1.8"/><path class="cls-7" d="M938,530.6a1.6,1.6,0,0,1,1.6,1.6v31a1.6,1.6,0,0,1-1.6,1.6H892a1.6,1.6,0,0,1-1.6-1.6v-31a1.6,1.6,0,0,1,1.6-1.6h46m0-.4H892a2,2,0,0,0-2,2v31a2,2,0,0,0,2,2h46a2,2,0,0,0,2-2v-31a2,2,0,0,0-2-2Z"/><rect class="cls-6" x="940.2" y="530.4" width="49.6" height="34.6" rx="1.8" ry="1.8"/><path class="cls-7" d="M988,530.6a1.6,1.6,0,0,1,1.6,1.6v31a1.6,1.6,0,0,1-1.6,1.6H942a1.6,1.6,0,0,1-1.6-1.6v-31a1.6,1.6,0,0,1,1.6-1.6h46m0-.4H942a2,2,0,0,0-2,2v31a2,2,0,0,0,2,2h46a2,2,0,0,0,2-2v-31a2,2,0,0,0-2-2Z"/><rect class="cls-6" x="940.2" y="600.4" width="49.6" height="34.6" rx="1.8" ry="1.8"/><path class="cls-7" d="M988,600.6a1.6,1.6,0,0,1,1.6,1.6v31a1.6,1.6,0,0,1-1.6,1.6H942a1.6,1.6,0,0,1-1.6-1.6v-31a1.6,1.6,0,0,1,1.6-1.6h46m0-.4H942a2,2,0,0,0-2,2v31a2,2,0,0,0,2,2h46a2,2,0,0,0,2-2v-31a2,2,0,0,0-2-2Z"/><rect class="cls-6" x="940.2" y="635.4" width="49.6" height="34.6" rx="1.8" ry="1.8"/><path class="cls-7" d="M988,635.6a1.6,1.6,0,0,1,1.6,1.6v31a1.6,1.6,0,0,1-1.6,1.6H942a1.6,1.6,0,0,1-1.6-1.6v-31a1.6,1.6,0,0,1,1.6-1.6h46m0-.4H942a2,2,0,0,0-2,2v31a2,2,0,0,0,2,2h46a2,2,0,0,0,2-2v-31a2,2,0,0,0-2-2Z"/><rect class="cls-1" x="1345.2" y="35.4" width="49.6" height="34.6" rx="1.8" ry="1.8"/><path class="cls-2" d="M1393,35.6a1.6,1.6,0,0,1,1.6,1.6v31a1.6,1.6,0,0,1-1.6,1.6h-46a1.6,1.6,0,0,1-1.6-1.6v-31a1.6,1.6,0,0,1,1.6-1.6h46m0-.4h-46a2,2,0,0,0-2,2v31a2,2,0,0,0,2,2h46a2,2,0,0,0,2-2v-31a2,2,0,0,0-2-2Z"/><rect class="cls-1" x="1345.2" y="70.4" width="49.6" height="34.6" rx="1.8" ry="1.8"/><path class="cls-2" d="M1393,70.6a1.6,1.6,0,0,1,1.6,1.6v31a1.6,1.6,0,0,1-1.6,1.6h-46a1.6,1.6,0,0,1-1.6-1.6v-31a1.6,1.6,0,0,1,1.6-1.6h46m0-.4h-46a2,2,0,0,0-2,2v31a2,2,0,0,0,2,2h46a2,2,0,0,0,2-2v-31a2,2,0,0,0-2-2Z"/><rect class="cls-1" x="1345.2" y="105.4" width="49.6" height="34.6" rx="1.8" ry="1.8"/><path class="cls-2" d="M1393,105.6a1.6,1.6,0,0,1,1.6,1.6v31a1.6,1.6,0,0,1-1.6,1.6h-46a1.6,1.6,0,0,1-1.6-1.6v-31a1.6,1.6,0,0,1,1.6-1.6h46m0-.4h-46a2,2,0,0,0-2,2v31a2,2,0,0,0,2,2h46a2,2,0,0,0,2-2v-31a2,2,0,0,0-2-2Z"/><rect class="cls-1" x="1395.2" y="35.4" width="49.6" height="34.6" rx="1.8" ry="1.8"/><path class="cls-2" d="M1443,35.6a1.6,1.6,0,0,1,1.6,1.6v31a1.6,1.6,0,0,1-1.6,1.6h-46a1.6,1.6,0,0,1-1.6-1.6v-31a1.6,1.6,0,0,1,1.6-1.6h46m0-.4h-46a2,2,0,0,0-2,2v31a2,2,0,0,0,2,2h46a2,2,0,0,0,2-2v-31a2,2,0,0,0-2-2Z"/><rect class="cls-1" x="1345.2" y="0.4" width="49.6" height="34.6" rx="1.8" ry="1.8"/><path class="cls-2" d="M1393,.6a1.6,1.6,0,0,1,1.6,1.6v31a1.6,1.6,0,0,1-1.6,1.6h-46a1.6,1.6,0,0,1-1.6-1.6V2.2A1.6,1.6,0,0,1,1347,.6h46m0-.4h-46a2,2,0,0,0-2,2v31a2,2,0,0,0,2,2h46a2,2,0,0,0,2-2V2.2a2,2,0,0,0-2-2Z"/><rect class="cls-1" x="1395.2" y="0.4" width="49.6" height="34.6" rx="1.8" ry="1.8"/><path class="cls-2" d="M1443,.6a1.6,1.6,0,0,1,1.6,1.6v31a1.6,1.6,0,0,1-1.6,1.6h-46a1.6,1.6,0,0,1-1.6-1.6V2.2A1.6,1.6,0,0,1,1397,.6h46m0-.4h-46a2,2,0,0,0-2,2v31a2,2,0,0,0,2,2h46a2,2,0,0,0,2-2V2.2a2,2,0,0,0-2-2Z"/><rect class="cls-1" x="1395.2" y="70.4" width="49.6" height="34.6" rx="1.8" ry="1.8"/><path class="cls-2" d="M1443,70.6a1.6,1.6,0,0,1,1.6,1.6v31a1.6,1.6,0,0,1-1.6,1.6h-46a1.6,1.6,0,0,1-1.6-1.6v-31a1.6,1.6,0,0,1,1.6-1.6h46m0-.4h-46a2,2,0,0,0-2,2v31a2,2,0,0,0,2,2h46a2,2,0,0,0,2-2v-31a2,2,0,0,0-2-2Z"/><rect class="cls-1" x="1395.2" y="105.4" width="49.6" height="34.6" rx="1.8" ry="1.8"/><path class="cls-2" d="M1443,105.6a1.6,1.6,0,0,1,1.6,1.6v31a1.6,1.6,0,0,1-1.6,1.6h-46a1.6,1.6,0,0,1-1.6-1.6v-31a1.6,1.6,0,0,1,1.6-1.6h46m0-.4h-46a2,2,0,0,0-2,2v31a2,2,0,0,0,2,2h46a2,2,0,0,0,2-2v-31a2,2,0,0,0-2-2Z"/><rect class="cls-1" x="1225.2" y="35.4" width="49.6" height="34.6" rx="1.8" ry="1.8"/><path class="cls-2" d="M1273,35.6a1.6,1.6,0,0,1,1.6,1.6v31a1.6,1.6,0,0,1-1.6,1.6h-46a1.6,1.6,0,0,1-1.6-1.6v-31a1.6,1.6,0,0,1,1.6-1.6h46m0-.4h-46a2,2,0,0,0-2,2v31a2,2,0,0,0,2,2h46a2,2,0,0,0,2-2v-31a2,2,0,0,0-2-2Z"/><rect class="cls-1" x="1225.2" y="70.4" width="49.6" height="34.6" rx="1.8" ry="1.8"/><path class="cls-2" d="M1273,70.6a1.6,1.6,0,0,1,1.6,1.6v31a1.6,1.6,0,0,1-1.6,1.6h-46a1.6,1.6,0,0,1-1.6-1.6v-31a1.6,1.6,0,0,1,1.6-1.6h46m0-.4h-46a2,2,0,0,0-2,2v31a2,2,0,0,0,2,2h46a2,2,0,0,0,2-2v-31a2,2,0,0,0-2-2Z"/><rect class="cls-1" x="1225.2" y="105.4" width="49.6" height="34.6" rx="1.8" ry="1.8"/><path class="cls-2" d="M1273,105.6a1.6,1.6,0,0,1,1.6,1.6v31a1.6,1.6,0,0,1-1.6,1.6h-46a1.6,1.6,0,0,1-1.6-1.6v-31a1.6,1.6,0,0,1,1.6-1.6h46m0-.4h-46a2,2,0,0,0-2,2v31a2,2,0,0,0,2,2h46a2,2,0,0,0,2-2v-31a2,2,0,0,0-2-2Z"/><rect class="cls-1" x="1275.2" y="35.4" width="49.6" height="34.6" rx="1.8" ry="1.8"/><path class="cls-2" d="M1323,35.6a1.6,1.6,0,0,1,1.6,1.6v31a1.6,1.6,0,0,1-1.6,1.6h-46a1.6,1.6,0,0,1-1.6-1.6v-31a1.6,1.6,0,0,1,1.6-1.6h46m0-.4h-46a2,2,0,0,0-2,2v31a2,2,0,0,0,2,2h46a2,2,0,0,0,2-2v-31a2,2,0,0,0-2-2Z"/><rect class="cls-1" x="1275.2" y="70.4" width="49.6" height="34.6" rx="1.8" ry="1.8"/><path class="cls-2" d="M1323,70.6a1.6,1.6,0,0,1,1.6,1.6v31a1.6,1.6,0,0,1-1.6,1.6h-46a1.6,1.6,0,0,1-1.6-1.6v-31a1.6,1.6,0,0,1,1.6-1.6h46m0-.4h-46a2,2,0,0,0-2,2v31a2,2,0,0,0,2,2h46a2,2,0,0,0,2-2v-31a2,2,0,0,0-2-2Z"/><rect class="cls-1" x="1275.2" y="105.4" width="49.6" height="34.6" rx="1.8" ry="1.8"/><path class="cls-2" d="M1323,105.6a1.6,1.6,0,0,1,1.6,1.6v31a1.6,1.6,0,0,1-1.6,1.6h-46a1.6,1.6,0,0,1-1.6-1.6v-31a1.6,1.6,0,0,1,1.6-1.6h46m0-.4h-46a2,2,0,0,0-2,2v31a2,2,0,0,0,2,2h46a2,2,0,0,0,2-2v-31a2,2,0,0,0-2-2Z"/><rect class="cls-1" x="1465.2" y="35.4" width="49.6" height="34.6" rx="1.8" ry="1.8"/><path class="cls-2" d="M1513,35.6a1.6,1.6,0,0,1,1.6,1.6v31a1.6,1.6,0,0,1-1.6,1.6h-46a1.6,1.6,0,0,1-1.6-1.6v-31a1.6,1.6,0,0,1,1.6-1.6h46m0-.4h-46a2,2,0,0,0-2,2v31a2,2,0,0,0,2,2h46a2,2,0,0,0,2-2v-31a2,2,0,0,0-2-2Z"/><rect class="cls-1" x="1465.2" y="70.4" width="49.6" height="34.6" rx="1.8" ry="1.8"/><path class="cls-2" d="M1513,70.6a1.6,1.6,0,0,1,1.6,1.6v31a1.6,1.6,0,0,1-1.6,1.6h-46a1.6,1.6,0,0,1-1.6-1.6v-31a1.6,1.6,0,0,1,1.6-1.6h46m0-.4h-46a2,2,0,0,0-2,2v31a2,2,0,0,0,2,2h46a2,2,0,0,0,2-2v-31a2,2,0,0,0-2-2Z"/><rect class="cls-1" x="1465.2" y="105.4" width="49.6" height="34.6" rx="1.8" ry="1.8"/><path class="cls-2" d="M1513,105.6a1.6,1.6,0,0,1,1.6,1.6v31a1.6,1.6,0,0,1-1.6,1.6h-46a1.6,1.6,0,0,1-1.6-1.6v-31a1.6,1.6,0,0,1,1.6-1.6h46m0-.4h-46a2,2,0,0,0-2,2v31a2,2,0,0,0,2,2h46a2,2,0,0,0,2-2v-31a2,2,0,0,0-2-2Z"/><rect class="cls-1" x="1515.2" y="35.4" width="49.6" height="34.6" rx="1.8" ry="1.8"/><path class="cls-2" d="M1563,35.6a1.6,1.6,0,0,1,1.6,1.6v31a1.6,1.6,0,0,1-1.6,1.6h-46a1.6,1.6,0,0,1-1.6-1.6v-31a1.6,1.6,0,0,1,1.6-1.6h46m0-.4h-46a2,2,0,0,0-2,2v31a2,2,0,0,0,2,2h46a2,2,0,0,0,2-2v-31a2,2,0,0,0-2-2Z"/><rect class="cls-1" x="1465.2" y="0.4" width="49.6" height="34.6" rx="1.8" ry="1.8"/><path class="cls-2" d="M1513,.6a1.6,1.6,0,0,1,1.6,1.6v31a1.6,1.6,0,0,1-1.6,1.6h-46a1.6,1.6,0,0,1-1.6-1.6V2.2A1.6,1.6,0,0,1,1467,.6h46m0-.4h-46a2,2,0,0,0-2,2v31a2,2,0,0,0,2,2h46a2,2,0,0,0,2-2V2.2a2,2,0,0,0-2-2Z"/><rect class="cls-1" x="1515.2" y="0.4" width="49.6" height="34.6" rx="1.8" ry="1.8"/><path class="cls-2" d="M1563,.6a1.6,1.6,0,0,1,1.6,1.6v31a1.6,1.6,0,0,1-1.6,1.6h-46a1.6,1.6,0,0,1-1.6-1.6V2.2A1.6,1.6,0,0,1,1517,.6h46m0-.4h-46a2,2,0,0,0-2,2v31a2,2,0,0,0,2,2h46a2,2,0,0,0,2-2V2.2a2,2,0,0,0-2-2Z"/><rect class="cls-1" x="1515.2" y="70.4" width="49.6" height="34.6" rx="1.8" ry="1.8"/><path class="cls-2" d="M1563,70.6a1.6,1.6,0,0,1,1.6,1.6v31a1.6,1.6,0,0,1-1.6,1.6h-46a1.6,1.6,0,0,1-1.6-1.6v-31a1.6,1.6,0,0,1,1.6-1.6h46m0-.4h-46a2,2,0,0,0-2,2v31a2,2,0,0,0,2,2h46a2,2,0,0,0,2-2v-31a2,2,0,0,0-2-2Z"/><rect class="cls-1" x="1515.2" y="105.4" width="49.6" height="34.6" rx="1.8" ry="1.8"/><path class="cls-2" d="M1563,105.6a1.6,1.6,0,0,1,1.6,1.6v31a1.6,1.6,0,0,1-1.6,1.6h-46a1.6,1.6,0,0,1-1.6-1.6v-31a1.6,1.6,0,0,1,1.6-1.6h46m0-.4h-46a2,2,0,0,0-2,2v31a2,2,0,0,0,2,2h46a2,2,0,0,0,2-2v-31a2,2,0,0,0-2-2Z"/><rect class="cls-1" x="1585.2" y="35.4" width="49.6" height="34.6" rx="1.8" ry="1.8"/><path class="cls-2" d="M1633,35.6a1.6,1.6,0,0,1,1.6,1.6v31a1.6,1.6,0,0,1-1.6,1.6h-46a1.6,1.6,0,0,1-1.6-1.6v-31a1.6,1.6,0,0,1,1.6-1.6h46m0-.4h-46a2,2,0,0,0-2,2v31a2,2,0,0,0,2,2h46a2,2,0,0,0,2-2v-31a2,2,0,0,0-2-2Z"/><rect class="cls-1" x="1585.2" y="70.4" width="49.6" height="34.6" rx="1.8" ry="1.8"/><path class="cls-2" d="M1633,70.6a1.6,1.6,0,0,1,1.6,1.6v31a1.6,1.6,0,0,1-1.6,1.6h-46a1.6,1.6,0,0,1-1.6-1.6v-31a1.6,1.6,0,0,1,1.6-1.6h46m0-.4h-46a2,2,0,0,0-2,2v31a2,2,0,0,0,2,2h46a2,2,0,0,0,2-2v-31a2,2,0,0,0-2-2Z"/><rect class="cls-1" x="1585.2" y="105.4" width="49.6" height="34.6" rx="1.8" ry="1.8"/><path class="cls-2" d="M1633,105.6a1.6,1.6,0,0,1,1.6,1.6v31a1.6,1.6,0,0,1-1.6,1.6h-46a1.6,1.6,0,0,1-1.6-1.6v-31a1.6,1.6,0,0,1,1.6-1.6h46m0-.4h-46a2,2,0,0,0-2,2v31a2,2,0,0,0,2,2h46a2,2,0,0,0,2-2v-31a2,2,0,0,0-2-2Z"/><rect class="cls-1" x="1635.2" y="35.4" width="49.6" height="34.6" rx="1.8" ry="1.8"/><path class="cls-2" d="M1683,35.6a1.6,1.6,0,0,1,1.6,1.6v31a1.6,1.6,0,0,1-1.6,1.6h-46a1.6,1.6,0,0,1-1.6-1.6v-31a1.6,1.6,0,0,1,1.6-1.6h46m0-.4h-46a2,2,0,0,0-2,2v31a2,2,0,0,0,2,2h46a2,2,0,0,0,2-2v-31a2,2,0,0,0-2-2Z"/><rect class="cls-1" x="1610.2" y="0.4" width="49.6" height="34.6" rx="1.8" ry="1.8"/><path class="cls-2" d="M1658,.6a1.6,1.6,0,0,1,1.6,1.6v31a1.6,1.6,0,0,1-1.6,1.6h-46a1.6,1.6,0,0,1-1.6-1.6V2.2A1.6,1.6,0,0,1,1612,.6h46m0-.4h-46a2,2,0,0,0-2,2v31a2,2,0,0,0,2,2h46a2,2,0,0,0,2-2V2.2a2,2,0,0,0-2-2Z"/><rect class="cls-1" x="1635.2" y="70.4" width="49.6" height="34.6" rx="1.8" ry="1.8"/><path class="cls-2" d="M1683,70.6a1.6,1.6,0,0,1,1.6,1.6v31a1.6,1.6,0,0,1-1.6,1.6h-46a1.6,1.6,0,0,1-1.6-1.6v-31a1.6,1.6,0,0,1,1.6-1.6h46m0-.4h-46a2,2,0,0,0-2,2v31a2,2,0,0,0,2,2h46a2,2,0,0,0,2-2v-31a2,2,0,0,0-2-2Z"/><rect class="cls-1" x="1635.2" y="105.4" width="49.6" height="34.6" rx="1.8" ry="1.8"/><path class="cls-2" d="M1683,105.6a1.6,1.6,0,0,1,1.6,1.6v31a1.6,1.6,0,0,1-1.6,1.6h-46a1.6,1.6,0,0,1-1.6-1.6v-31a1.6,1.6,0,0,1,1.6-1.6h46m0-.4h-46a2,2,0,0,0-2,2v31a2,2,0,0,0,2,2h46a2,2,0,0,0,2-2v-31a2,2,0,0,0-2-2Z"/><rect class="cls-6" x="530.2" y="565.4" width="49.6" height="34.6" rx="1.8" ry="1.8"/><path class="cls-7" d="M578,565.6a1.6,1.6,0,0,1,1.6,1.6v31a1.6,1.6,0,0,1-1.6,1.6H532a1.6,1.6,0,0,1-1.6-1.6v-31a1.6,1.6,0,0,1,1.6-1.6h46m0-.4H532a2,2,0,0,0-2,2v31a2,2,0,0,0,2,2h46a2,2,0,0,0,2-2v-31a2,2,0,0,0-2-2Z"/><rect class="cls-6" x="530.2" y="600.4" width="49.6" height="34.6" rx="1.8" ry="1.8"/><path class="cls-7" d="M578,600.6a1.6,1.6,0,0,1,1.6,1.6v31a1.6,1.6,0,0,1-1.6,1.6H532a1.6,1.6,0,0,1-1.6-1.6v-31a1.6,1.6,0,0,1,1.6-1.6h46m0-.4H532a2,2,0,0,0-2,2v31a2,2,0,0,0,2,2h46a2,2,0,0,0,2-2v-31a2,2,0,0,0-2-2Z"/><rect class="cls-6" x="530.2" y="635.4" width="49.6" height="34.6" rx="1.8" ry="1.8"/><path class="cls-7" d="M578,635.6a1.6,1.6,0,0,1,1.6,1.6v31a1.6,1.6,0,0,1-1.6,1.6H532a1.6,1.6,0,0,1-1.6-1.6v-31a1.6,1.6,0,0,1,1.6-1.6h46m0-.4H532a2,2,0,0,0-2,2v31a2,2,0,0,0,2,2h46a2,2,0,0,0,2-2v-31a2,2,0,0,0-2-2Z"/><rect class="cls-6" x="580.2" y="565.4" width="49.6" height="34.6" rx="1.8" ry="1.8"/><path class="cls-7" d="M628,565.6a1.6,1.6,0,0,1,1.6,1.6v31a1.6,1.6,0,0,1-1.6,1.6H582a1.6,1.6,0,0,1-1.6-1.6v-31a1.6,1.6,0,0,1,1.6-1.6h46m0-.4H582a2,2,0,0,0-2,2v31a2,2,0,0,0,2,2h46a2,2,0,0,0,2-2v-31a2,2,0,0,0-2-2Z"/><rect class="cls-6" x="530.2" y="530.4" width="49.6" height="34.6" rx="1.8" ry="1.8"/><path class="cls-7" d="M578,530.6a1.6,1.6,0,0,1,1.6,1.6v31a1.6,1.6,0,0,1-1.6,1.6H532a1.6,1.6,0,0,1-1.6-1.6v-31a1.6,1.6,0,0,1,1.6-1.6h46m0-.4H532a2,2,0,0,0-2,2v31a2,2,0,0,0,2,2h46a2,2,0,0,0,2-2v-31a2,2,0,0,0-2-2Z"/><rect class="cls-6" x="580.2" y="530.4" width="49.6" height="34.6" rx="1.8" ry="1.8"/><path class="cls-7" d="M628,530.6a1.6,1.6,0,0,1,1.6,1.6v31a1.6,1.6,0,0,1-1.6,1.6H582a1.6,1.6,0,0,1-1.6-1.6v-31a1.6,1.6,0,0,1,1.6-1.6h46m0-.4H582a2,2,0,0,0-2,2v31a2,2,0,0,0,2,2h46a2,2,0,0,0,2-2v-31a2,2,0,0,0-2-2Z"/><rect class="cls-6" x="580.2" y="600.4" width="49.6" height="34.6" rx="1.8" ry="1.8"/><path class="cls-7" d="M628,600.6a1.6,1.6,0,0,1,1.6,1.6v31a1.6,1.6,0,0,1-1.6,1.6H582a1.6,1.6,0,0,1-1.6-1.6v-31a1.6,1.6,0,0,1,1.6-1.6h46m0-.4H582a2,2,0,0,0-2,2v31a2,2,0,0,0,2,2h46a2,2,0,0,0,2-2v-31a2,2,0,0,0-2-2Z"/><rect class="cls-6" x="580.2" y="635.4" width="49.6" height="34.6" rx="1.8" ry="1.8"/><path class="cls-7" d="M628,635.6a1.6,1.6,0,0,1,1.6,1.6v31a1.6,1.6,0,0,1-1.6,1.6H582a1.6,1.6,0,0,1-1.6-1.6v-31a1.6,1.6,0,0,1,1.6-1.6h46m0-.4H582a2,2,0,0,0-2,2v31a2,2,0,0,0,2,2h46a2,2,0,0,0,2-2v-31a2,2,0,0,0-2-2Z"/><rect class="cls-6" x="555.2" y="670.4" width="49.6" height="34.6" rx="1.8" ry="1.8"/><path class="cls-7" d="M603,670.6a1.6,1.6,0,0,1,1.6,1.6v31a1.6,1.6,0,0,1-1.6,1.6H557a1.6,1.6,0,0,1-1.6-1.6v-31a1.6,1.6,0,0,1,1.6-1.6h46m0-.4H557a2,2,0,0,0-2,2v31a2,2,0,0,0,2,2h46a2,2,0,0,0,2-2v-31a2,2,0,0,0-2-2Z"/></g><g id="text"><text class="cls-9" transform="matrix(1, 0.01, -0.01, 1, 215, 141.2)"></text><text class="cls-10" transform="matrix(1, 0.01, -0.01, 1, 214.95, 150.2)"></text><text class="cls-9" transform="matrix(1, 0.01, -0.01, 1, 219.43, 196.23)">C-8</text><text class="cls-10" transform="matrix(1, 0.01, -0.01, 1, 215, 205.2)"></text><text class="cls-9" transform="matrix(1, 0.01, -0.01, 1, 355, 461.22)">OA</text><text class="cls-10" transform="matrix(1, 0.01, -0.01, 1, 352.11, 470.2)">6948-3777</text></g><g id="facility"><path class="cls-8" d="M958.59,329.67a2.44,2.44,0,0,1,.91-1.87,4.67,4.67,0,0,1,.51-.36,3.14,3.14,0,0,0-.71-.76,2.57,2.57,0,0,0-1.84-.62,3.16,3.16,0,0,0-2.1.75,2,2,0,0,0-.85,1.46c0,.73,0,4.21,0,5h4.1C958.57,332.85,958.58,330,958.59,329.67Z"/><path class="cls-8" d="M957.56,325.24a2.11,2.11,0,1,0-2.1-2.11A2.12,2.12,0,0,0,957.56,325.24Z"/><path class="cls-8" d="M966.45,329.7c0,.34,0,3.17,0,3.54h4c0-.75,0-4.15,0-4.94a2.21,2.21,0,0,0-1-1.56,2.93,2.93,0,0,0-2-.68,2.77,2.77,0,0,0-2,.69,3.4,3.4,0,0,0-.61.67l.44.29A2.67,2.67,0,0,1,966.45,329.7Z"/><path class="cls-8" d="M967.44,325.24a2.11,2.11,0,1,0-2.11-2.11A2.12,2.12,0,0,0,967.44,325.24Z"/><path class="cls-8" d="M959.41,333.24h6.19c0-.75,0-2.72,0-3.51a2.21,2.21,0,0,0-1-1.56,3.56,3.56,0,0,0-4.29.08,2,2,0,0,0-.86,1.46C959.42,330.44,959.42,332.48,959.41,333.24Z"/><path class="cls-8" d="M962.5,326.67a2.11,2.11,0,1,0-2.1-2.1A2.11,2.11,0,0,0,962.5,326.67Z"/><path class="cls-8" d="M965.42,313.46h1.3v3.27c0,.13.08.24.18.24h1.16c.1,0,.18-.11.18-.24v-3.27h1.22a.2.2,0,0,0,.17-.16.32.32,0,0,0,0-.27l-2.07-2.76a.17.17,0,0,0-.13-.07.21.21,0,0,0-.13.07l-2,2.76a.32.32,0,0,0,0,.27A.2.2,0,0,0,965.42,313.46Z"/><path class="cls-8" d="M957.48,316.9a.15.15,0,0,0,.13.07.17.17,0,0,0,.13-.07l2-2.76a.31.31,0,0,0,0-.27.2.2,0,0,0-.17-.15h-1.26v-3.27c0-.14-.08-.25-.18-.25H957c-.1,0-.18.11-.18.25v3.27h-1.26a.2.2,0,0,0-.17.15.35.35,0,0,0,0,.27Z"/><path class="cls-8" d="M974.21,318.12H950.8a.79.79,0,0,0-.8.79v17a.8.8,0,0,0,.8.8h23.41a.79.79,0,0,0,.79-.8v-17A.79.79,0,0,0,974.21,318.12Zm-.8,17H951.59V319.71h21.82Z"/><path class="cls-8" d="M958.59,394.67a2.44,2.44,0,0,1,.91-1.87,4.67,4.67,0,0,1,.51-.36,3.14,3.14,0,0,0-.71-.76,2.57,2.57,0,0,0-1.84-.62,3.16,3.16,0,0,0-2.1.75,2,2,0,0,0-.85,1.46c0,.73,0,4.21,0,5h4.1C958.57,397.85,958.58,395,958.59,394.67Z"/><path class="cls-8" d="M957.56,390.24a2.11,2.11,0,1,0-2.1-2.11A2.12,2.12,0,0,0,957.56,390.24Z"/><path class="cls-8" d="M966.45,394.7c0,.34,0,3.17,0,3.54h4c0-.75,0-4.15,0-4.94a2.21,2.21,0,0,0-1-1.56,2.93,2.93,0,0,0-2-.68,2.77,2.77,0,0,0-2,.69,3.4,3.4,0,0,0-.61.67l.44.29A2.67,2.67,0,0,1,966.45,394.7Z"/><path class="cls-8" d="M967.44,390.24a2.11,2.11,0,1,0-2.11-2.11A2.12,2.12,0,0,0,967.44,390.24Z"/><path class="cls-8" d="M959.41,398.24h6.19c0-.75,0-2.72,0-3.51a2.21,2.21,0,0,0-1-1.56,3.56,3.56,0,0,0-4.29.08,2,2,0,0,0-.86,1.46C959.42,395.44,959.42,397.48,959.41,398.24Z"/><path class="cls-8" d="M962.5,391.67a2.11,2.11,0,1,0-2.1-2.1A2.11,2.11,0,0,0,962.5,391.67Z"/><path class="cls-8" d="M965.42,378.46h1.3v3.27c0,.13.08.24.18.24h1.16c.1,0,.18-.11.18-.24v-3.27h1.22a.2.2,0,0,0,.17-.16.32.32,0,0,0,0-.27l-2.07-2.76a.17.17,0,0,0-.13-.07.21.21,0,0,0-.13.07l-2,2.76a.32.32,0,0,0,0,.27A.2.2,0,0,0,965.42,378.46Z"/><path class="cls-8" d="M957.48,381.9a.15.15,0,0,0,.13.07.17.17,0,0,0,.13-.07l2-2.76a.31.31,0,0,0,0-.27.2.2,0,0,0-.17-.15h-1.26v-3.27c0-.14-.08-.25-.18-.25H957c-.1,0-.18.11-.18.25v3.27h-1.26a.2.2,0,0,0-.17.15.35.35,0,0,0,0,.27Z"/><path class="cls-8" d="M974.21,383.12H950.8a.79.79,0,0,0-.8.79v17a.8.8,0,0,0,.8.8h23.41a.79.79,0,0,0,.79-.8v-17A.79.79,0,0,0,974.21,383.12Zm-.8,17H951.59V384.71h21.82Z"/><path class="cls-8" d="M958.59,459.67a2.44,2.44,0,0,1,.91-1.87,4.67,4.67,0,0,1,.51-.36,3.14,3.14,0,0,0-.71-.76,2.57,2.57,0,0,0-1.84-.62,3.16,3.16,0,0,0-2.1.75,2,2,0,0,0-.85,1.46c0,.73,0,4.21,0,5h4.1C958.57,462.85,958.58,460,958.59,459.67Z"/><path class="cls-8" d="M957.56,455.24a2.11,2.11,0,1,0-2.1-2.11A2.12,2.12,0,0,0,957.56,455.24Z"/><path class="cls-8" d="M966.45,459.7c0,.34,0,3.17,0,3.54h4c0-.75,0-4.15,0-4.94a2.21,2.21,0,0,0-1-1.56,2.93,2.93,0,0,0-2-.68,2.77,2.77,0,0,0-2,.69,3.4,3.4,0,0,0-.61.67l.44.29A2.67,2.67,0,0,1,966.45,459.7Z"/><path class="cls-8" d="M967.44,455.24a2.11,2.11,0,1,0-2.11-2.11A2.12,2.12,0,0,0,967.44,455.24Z"/><path class="cls-8" d="M959.41,463.24h6.19c0-.75,0-2.72,0-3.51a2.21,2.21,0,0,0-1-1.56,3.56,3.56,0,0,0-4.29.08,2,2,0,0,0-.86,1.46C959.42,460.44,959.42,462.48,959.41,463.24Z"/><path class="cls-8" d="M962.5,456.67a2.11,2.11,0,1,0-2.1-2.1A2.11,2.11,0,0,0,962.5,456.67Z"/><path class="cls-8" d="M965.42,443.46h1.3v3.27c0,.13.08.24.18.24h1.16c.1,0,.18-.11.18-.24v-3.27h1.22a.2.2,0,0,0,.17-.16.32.32,0,0,0,0-.27l-2.07-2.76a.17.17,0,0,0-.13-.07.21.21,0,0,0-.13.07l-2,2.76a.32.32,0,0,0,0,.27A.2.2,0,0,0,965.42,443.46Z"/><path class="cls-8" d="M957.48,446.9a.15.15,0,0,0,.13.07.17.17,0,0,0,.13-.07l2-2.76a.31.31,0,0,0,0-.27.2.2,0,0,0-.17-.15h-1.26v-3.27c0-.14-.08-.25-.18-.25H957c-.1,0-.18.11-.18.25v3.27h-1.26a.2.2,0,0,0-.17.15.35.35,0,0,0,0,.27Z"/><path class="cls-8" d="M974.21,448.12H950.8a.79.79,0,0,0-.8.79v17a.8.8,0,0,0,.8.8h23.41a.79.79,0,0,0,.79-.8v-17A.79.79,0,0,0,974.21,448.12Zm-.8,17H951.59V449.71h21.82Z"/><path class="cls-8" d="M1103.59,358.2a2.44,2.44,0,0,1,.91-1.87,4.67,4.67,0,0,1,.51-.36,3.36,3.36,0,0,0-.71-.77,2.61,2.61,0,0,0-1.84-.61,3.16,3.16,0,0,0-2.1.75,2,2,0,0,0-.85,1.46c0,.73,0,4.21,0,5h4.1C1103.57,361.37,1103.58,358.53,1103.59,358.2Z"/><path class="cls-8" d="M1102.56,353.76a2.11,2.11,0,1,0-2.1-2.1A2.11,2.11,0,0,0,1102.56,353.76Z"/><path class="cls-8" d="M1111.45,358.23c0,.34,0,3.17,0,3.54h4c0-.75,0-4.15,0-4.95a2.21,2.21,0,0,0-1-1.55,2.89,2.89,0,0,0-2-.68,2.77,2.77,0,0,0-2,.69,3.4,3.4,0,0,0-.61.67,4.17,4.17,0,0,1,.44.29A2.67,2.67,0,0,1,1111.45,358.23Z"/><path class="cls-8" d="M1112.44,353.76a2.11,2.11,0,1,0-2.11-2.1A2.11,2.11,0,0,0,1112.44,353.76Z"/><path class="cls-8" d="M1104.41,361.77h6.19c0-.75,0-2.72,0-3.51a2.19,2.19,0,0,0-1-1.56,3.25,3.25,0,0,0-2.12-.68,3.34,3.34,0,0,0-2.17.76,2,2,0,0,0-.86,1.46C1104.42,359,1104.42,361,1104.41,361.77Z"/><path class="cls-8" d="M1107.5,355.2a2.11,2.11,0,1,0-2.1-2.11A2.11,2.11,0,0,0,1107.5,355.2Z"/><path class="cls-8" d="M1110.42,342h1.3v3.26c0,.14.08.25.18.25h1.16c.1,0,.18-.11.18-.25V342h1.22a.2.2,0,0,0,.17-.16.32.32,0,0,0,0-.27l-2.07-2.76a.17.17,0,0,0-.13-.07.21.21,0,0,0-.13.07l-2,2.76a.32.32,0,0,0,0,.27A.2.2,0,0,0,1110.42,342Z"/><path class="cls-8" d="M1102.48,345.43a.15.15,0,0,0,.13.07.17.17,0,0,0,.13-.07l2-2.76a.31.31,0,0,0,0-.27.2.2,0,0,0-.17-.16h-1.26V339c0-.14-.08-.25-.18-.25H1102c-.1,0-.18.11-.18.25v3.26h-1.26a.2.2,0,0,0-.17.16.35.35,0,0,0,0,.27Z"/><path class="cls-8" d="M1119.21,346.64H1095.8a.8.8,0,0,0-.8.8v17a.8.8,0,0,0,.8.8h23.41a.8.8,0,0,0,.79-.8v-17A.8.8,0,0,0,1119.21,346.64Zm-.8,17h-21.82V348.23h21.82Z"/><path class="cls-8" d="M1103.59,423.2a2.44,2.44,0,0,1,.91-1.87,4.67,4.67,0,0,1,.51-.36,3.36,3.36,0,0,0-.71-.77,2.61,2.61,0,0,0-1.84-.61,3.16,3.16,0,0,0-2.1.75,2,2,0,0,0-.85,1.46c0,.73,0,4.21,0,5h4.1C1103.57,426.37,1103.58,423.53,1103.59,423.2Z"/><path class="cls-8" d="M1102.56,418.76a2.11,2.11,0,1,0-2.1-2.1A2.11,2.11,0,0,0,1102.56,418.76Z"/><path class="cls-8" d="M1111.45,423.23c0,.34,0,3.17,0,3.54h4c0-.75,0-4.15,0-4.95a2.21,2.21,0,0,0-1-1.55,2.89,2.89,0,0,0-2-.68,2.77,2.77,0,0,0-2,.69,3.4,3.4,0,0,0-.61.67,4.17,4.17,0,0,1,.44.29A2.67,2.67,0,0,1,1111.45,423.23Z"/><path class="cls-8" d="M1112.44,418.76a2.11,2.11,0,1,0-2.11-2.1A2.11,2.11,0,0,0,1112.44,418.76Z"/><path class="cls-8" d="M1104.41,426.77h6.19c0-.75,0-2.72,0-3.51a2.19,2.19,0,0,0-1-1.56,3.25,3.25,0,0,0-2.12-.68,3.34,3.34,0,0,0-2.17.76,2,2,0,0,0-.86,1.46C1104.42,424,1104.42,426,1104.41,426.77Z"/><path class="cls-8" d="M1107.5,420.2a2.11,2.11,0,1,0-2.1-2.11A2.11,2.11,0,0,0,1107.5,420.2Z"/><path class="cls-8" d="M1110.42,407h1.3v3.26c0,.14.08.25.18.25h1.16c.1,0,.18-.11.18-.25V407h1.22a.2.2,0,0,0,.17-.16.32.32,0,0,0,0-.27l-2.07-2.76a.17.17,0,0,0-.13-.07.21.21,0,0,0-.13.07l-2,2.76a.32.32,0,0,0,0,.27A.2.2,0,0,0,1110.42,407Z"/><path class="cls-8" d="M1102.48,410.43a.15.15,0,0,0,.13.07.17.17,0,0,0,.13-.07l2-2.76a.31.31,0,0,0,0-.27.2.2,0,0,0-.17-.16h-1.26V404c0-.14-.08-.25-.18-.25H1102c-.1,0-.18.11-.18.25v3.26h-1.26a.2.2,0,0,0-.17.16.35.35,0,0,0,0,.27Z"/><path class="cls-8" d="M1119.21,411.64H1095.8a.8.8,0,0,0-.8.8v17a.8.8,0,0,0,.8.8h23.41a.8.8,0,0,0,.79-.8v-17A.8.8,0,0,0,1119.21,411.64Zm-.8,17h-21.82V413.23h21.82Z"/><path class="cls-8" d="M548.81,429.6a2.2,2.2,0,1,0-2.2-2.2A2.2,2.2,0,0,0,548.81,429.6Z"/><path class="cls-8" d="M552.49,438.14l-2.2-7a.44.44,0,0,0-.34-.33h-2.24a.54.54,0,0,0-.38.37l-2.2,6.95a.3.3,0,0,0,0,.24.28.28,0,0,0,.21.1h2.24s.48,3.16.59,3.35a.46.46,0,0,0,.46.21h.23a.5.5,0,0,0,.42-.14c.15-.17.66-3.42.66-3.42h2.24a.32.32,0,0,0,.22-.1A.29.29,0,0,0,552.49,438.14Z"/><path class="cls-8" d="M540.92,429.6a2.2,2.2,0,1,0-2.2-2.2A2.21,2.21,0,0,0,540.92,429.6Z"/><path class="cls-8" d="M544.29,430.75a.28.28,0,0,0-.22-.11h-6.3a.28.28,0,0,0-.22.11.29.29,0,0,0,0,.24l2.6,9.85c.17.85.15,1.2.71,1.2H541c.56,0,.53-.29.74-1.2l2.55-9.86A.27.27,0,0,0,544.29,430.75Z"/><path class="cls-8" d="M541.31,342.75a2.2,2.2,0,1,0-2.2-2.19A2.19,2.19,0,0,0,541.31,342.75Z"/><path class="cls-8" d="M545,351.3l-2.2-7c-.11-.32-.34-.34-.34-.34h-2.24a.57.57,0,0,0-.38.38l-2.2,6.95a.27.27,0,0,0,0,.23.26.26,0,0,0,.21.11h2.24s.48,3.16.59,3.34a.47.47,0,0,0,.46.22h.23a.5.5,0,0,0,.42-.14c.15-.17.66-3.42.66-3.42h2.24a.29.29,0,0,0,.22-.11A.26.26,0,0,0,545,351.3Z"/><path class="cls-8" d="M533.42,342.75a2.2,2.2,0,1,0-2.2-2.19A2.2,2.2,0,0,0,533.42,342.75Z"/><path class="cls-8" d="M536.79,343.91a.28.28,0,0,0-.22-.11h-6.3a.28.28,0,0,0-.22.11.27.27,0,0,0,0,.23l2.6,9.85c.17.86.15,1.21.71,1.21h.22c.56,0,.53-.3.74-1.21l2.55-9.85A.26.26,0,0,0,536.79,343.91Z"/><polygon class="cls-8" points="556.29 338.01 556.29 339.89 558.65 339.89 558.65 338.01 556.29 338.01 556.29 338.01"/><path class="cls-8" d="M555.69,355a.68.68,0,1,0-.68-.68.67.67,0,0,0,.68.68Z"/><path class="cls-8" d="M559.24,355a.68.68,0,1,0-.67-.68.67.67,0,0,0,.67.68Z"/><path class="cls-8" d="M556.44,346.43a.44.44,0,0,0,.44-.44.44.44,0,0,0-.88,0,.44.44,0,0,0,.44.44Z"/><path class="cls-8" d="M554.32,346.43a.44.44,0,0,0,.44-.44.44.44,0,0,0-.88,0,.44.44,0,0,0,.44.44Z"/><path class="cls-8" d="M558.56,346.43A.44.44,0,0,0,559,346a.44.44,0,0,0-.88,0,.44.44,0,0,0,.44.44Z"/><path class="cls-8" d="M560.68,346.43a.44.44,0,0,0,.44-.44.44.44,0,0,0-.88,0,.44.44,0,0,0,.44.44Z"/><path class="cls-8" d="M556.29,347.93a.46.46,0,0,0,.46-.46.47.47,0,0,0-.46-.46.46.46,0,0,0-.46.46.45.45,0,0,0,.46.46Z"/><path class="cls-8" d="M554,347.93a.46.46,0,0,0,.46-.46A.47.47,0,0,0,554,347a.46.46,0,0,0-.46.46.45.45,0,0,0,.46.46Z"/><path class="cls-8" d="M558.71,347.93a.45.45,0,0,0,.46-.46.46.46,0,0,0-.46-.46.47.47,0,0,0-.46.46.46.46,0,0,0,.46.46Z"/><path class="cls-8" d="M561,347.93a.45.45,0,0,0,.46-.46A.46.46,0,0,0,561,347a.47.47,0,0,0-.46.46.46.46,0,0,0,.46.46Z"/><path class="cls-8" d="M556.14,349.53a.5.5,0,0,0,.5-.51.5.5,0,0,0-.5-.5.5.5,0,0,0-.51.5.51.51,0,0,0,.51.51Z"/><path class="cls-8" d="M553.71,349.53a.51.51,0,0,0,.51-.51.51.51,0,0,0-1,0,.51.51,0,0,0,.5.51Z"/><path class="cls-8" d="M558.86,349.53a.51.51,0,0,0,.51-.51.5.5,0,0,0-.51-.5.5.5,0,0,0-.5.5.5.5,0,0,0,.5.51Z"/><path class="cls-8" d="M561.29,349.53a.51.51,0,0,0,.5-.51.51.51,0,0,0-1,0,.51.51,0,0,0,.51.51Z"/><path class="cls-8" d="M556,351.22a.56.56,0,1,0-.56-.55.55.55,0,0,0,.56.55Z"/><path class="cls-8" d="M553.41,351.22a.56.56,0,1,0-.55-.55.56.56,0,0,0,.55.55Z"/><path class="cls-8" d="M559,351.22a.56.56,0,1,0-.55-.55.56.56,0,0,0,.55.55Z"/><path class="cls-8" d="M561.59,351.22a.56.56,0,1,0-.56-.55.55.55,0,0,0,.56.55Z"/><path class="cls-8" d="M555.84,353a.62.62,0,0,0,.61-.61.62.62,0,0,0-1.23,0,.62.62,0,0,0,.62.61Z"/><path class="cls-8" d="M553.11,353a.61.61,0,0,0,.61-.61.61.61,0,1,0-1.22,0,.61.61,0,0,0,.61.61Z"/><path class="cls-8" d="M559.16,353a.62.62,0,0,0,.62-.61.62.62,0,1,0-.62.61Z"/><path class="cls-8" d="M561.89,353a.61.61,0,0,0,.61-.61.61.61,0,1,0-1.22,0,.61.61,0,0,0,.61.61Z"/><path class="cls-8" d="M561.73,344.08v-.56h-8.52v.56a.41.41,0,0,0,.42.42h7.68a.41.41,0,0,0,.42-.42Z"/><path class="cls-8" d="M561.67,343.08l-2.87-2.75a.57.57,0,0,0-.35-.14h-2a.56.56,0,0,0-.35.14l-2.87,2.75s-.15.14.05.14h8.3s.2,0,0-.14Z"/><path class="cls-8" d="M1616.31,327.75a2.2,2.2,0,1,0-2.2-2.19A2.19,2.19,0,0,0,1616.31,327.75Z"/><path class="cls-8" d="M1620,336.3l-2.2-7c-.11-.32-.34-.34-.34-.34h-2.24a.57.57,0,0,0-.38.38l-2.2,6.95a.27.27,0,0,0,0,.23.26.26,0,0,0,.21.11h2.24s.48,3.16.59,3.34a.47.47,0,0,0,.46.22h.23a.5.5,0,0,0,.42-.14c.15-.17.66-3.42.66-3.42h2.24a.29.29,0,0,0,.22-.11A.26.26,0,0,0,1620,336.3Z"/><path class="cls-8" d="M1608.42,327.75a2.2,2.2,0,1,0-2.2-2.19A2.2,2.2,0,0,0,1608.42,327.75Z"/><path class="cls-8" d="M1611.79,328.91a.28.28,0,0,0-.22-.11h-6.3a.28.28,0,0,0-.22.11.27.27,0,0,0,0,.23l2.6,9.85c.17.86.15,1.21.71,1.21h.22c.56,0,.53-.3.74-1.21l2.55-9.85A.26.26,0,0,0,1611.79,328.91Z"/><path class="cls-8" d="M1616.31,387.75a2.2,2.2,0,1,0-2.2-2.19A2.19,2.19,0,0,0,1616.31,387.75Z"/><path class="cls-8" d="M1620,396.3l-2.2-7c-.11-.32-.34-.34-.34-.34h-2.24a.57.57,0,0,0-.38.38l-2.2,6.95a.27.27,0,0,0,0,.23.26.26,0,0,0,.21.11h2.24s.48,3.16.59,3.34a.47.47,0,0,0,.46.22h.23a.5.5,0,0,0,.42-.14c.15-.17.66-3.42.66-3.42h2.24a.29.29,0,0,0,.22-.11A.26.26,0,0,0,1620,396.3Z"/><path class="cls-8" d="M1608.42,387.75a2.2,2.2,0,1,0-2.2-2.19A2.2,2.2,0,0,0,1608.42,387.75Z"/><path class="cls-8" d="M1611.79,388.91a.28.28,0,0,0-.22-.11h-6.3a.28.28,0,0,0-.22.11.27.27,0,0,0,0,.23l2.6,9.85c.17.86.15,1.21.71,1.21h.22c.56,0,.53-.3.74-1.21l2.55-9.85A.26.26,0,0,0,1611.79,388.91Z"/></g></g></svg>