<svg xmlns="http://www.w3.org/2000/svg" viewBox="0 0 1685.2 800"><defs><style>.cls-1{fill:#cae8ff;}.cls-2{fill:#8cb8d3;}.cls-3{fill:#c5c5e8;}.cls-4{fill:#a6a6dd;}.cls-5{fill:#e5e5e5;stroke:#b5b5b5;stroke-linejoin:round;stroke-width:0.4px;}.cls-6{fill:#f7f06d;}.cls-7{fill:#e5c613;}.cls-8{fill:#565656;}.cls-10,.cls-9{isolation:isolate;font-family:SpoqaHanSans-Regular, SpoqaHanSans;}.cls-9{font-size:8px;}.cls-10{font-size:6px;}</style></defs><title>floor5_2</title><g id="Layer_2" data-name="Layer 2"><g id="Layer_3" data-name="Layer 3"><rect class="cls-1" x="0.2" y="110.2" width="49.6" height="34.6" rx="1.8" ry="1.8"/><path class="cls-2" d="M48,110.4a1.6,1.6,0,0,1,1.6,1.6v31a1.6,1.6,0,0,1-1.6,1.6H2A1.6,1.6,0,0,1,.4,143V112A1.6,1.6,0,0,1,2,110.4H48m0-.4H2a2,2,0,0,0-2,2v31a2,2,0,0,0,2,2H48a2,2,0,0,0,2-2V112a2,2,0,0,0-2-2Z"/><rect class="cls-1" x="0.2" y="145.2" width="49.6" height="34.6" rx="1.8" ry="1.8"/><path class="cls-2" d="M48,145.4a1.6,1.6,0,0,1,1.6,1.6v31a1.6,1.6,0,0,1-1.6,1.6H2A1.6,1.6,0,0,1,.4,178V147A1.6,1.6,0,0,1,2,145.4H48m0-.4H2a2,2,0,0,0-2,2v31a2,2,0,0,0,2,2H48a2,2,0,0,0,2-2V147a2,2,0,0,0-2-2Z"/><rect class="cls-1" x="0.2" y="180.2" width="49.6" height="34.6" rx="1.8" ry="1.8"/><path class="cls-2" d="M48,180.4a1.6,1.6,0,0,1,1.6,1.6v31a1.6,1.6,0,0,1-1.6,1.6H2A1.6,1.6,0,0,1,.4,213V182A1.6,1.6,0,0,1,2,180.4H48m0-.4H2a2,2,0,0,0-2,2v31a2,2,0,0,0,2,2H48a2,2,0,0,0,2-2V182a2,2,0,0,0-2-2Z"/><rect class="cls-1" x="50.2" y="110.2" width="49.6" height="34.6" rx="1.8" ry="1.8"/><path class="cls-2" d="M98,110.4a1.6,1.6,0,0,1,1.6,1.6v31a1.6,1.6,0,0,1-1.6,1.6H52a1.6,1.6,0,0,1-1.6-1.6V112a1.6,1.6,0,0,1,1.6-1.6H98m0-.4H52a2,2,0,0,0-2,2v31a2,2,0,0,0,2,2H98a2,2,0,0,0,2-2V112a2,2,0,0,0-2-2Z"/><rect class="cls-1" x="50.2" y="145.2" width="49.6" height="34.6" rx="1.8" ry="1.8"/><path class="cls-2" d="M98,145.4a1.6,1.6,0,0,1,1.6,1.6v31a1.6,1.6,0,0,1-1.6,1.6H52a1.6,1.6,0,0,1-1.6-1.6V147a1.6,1.6,0,0,1,1.6-1.6H98m0-.4H52a2,2,0,0,0-2,2v31a2,2,0,0,0,2,2H98a2,2,0,0,0,2-2V147a2,2,0,0,0-2-2Z"/><rect class="cls-1" x="50.2" y="180.2" width="49.6" height="34.6" rx="1.8" ry="1.8"/><path class="cls-2" d="M98,180.4a1.6,1.6,0,0,1,1.6,1.6v31a1.6,1.6,0,0,1-1.6,1.6H52a1.6,1.6,0,0,1-1.6-1.6V182a1.6,1.6,0,0,1,1.6-1.6H98m0-.4H52a2,2,0,0,0-2,2v31a2,2,0,0,0,2,2H98a2,2,0,0,0,2-2V182a2,2,0,0,0-2-2Z"/><rect class="cls-1" x="140.2" y="110.2" width="49.6" height="34.6" rx="1.8" ry="1.8"/><path class="cls-2" d="M188,110.4a1.6,1.6,0,0,1,1.6,1.6v31a1.6,1.6,0,0,1-1.6,1.6H142a1.6,1.6,0,0,1-1.6-1.6V112a1.6,1.6,0,0,1,1.6-1.6h46m0-.4H142a2,2,0,0,0-2,2v31a2,2,0,0,0,2,2h46a2,2,0,0,0,2-2V112a2,2,0,0,0-2-2Z"/><rect class="cls-1" x="140.2" y="145.2" width="49.6" height="34.6" rx="1.8" ry="1.8"/><path class="cls-2" d="M188,145.4a1.6,1.6,0,0,1,1.6,1.6v31a1.6,1.6,0,0,1-1.6,1.6H142a1.6,1.6,0,0,1-1.6-1.6V147a1.6,1.6,0,0,1,1.6-1.6h46m0-.4H142a2,2,0,0,0-2,2v31a2,2,0,0,0,2,2h46a2,2,0,0,0,2-2V147a2,2,0,0,0-2-2Z"/><rect class="cls-1" x="140.2" y="180.2" width="49.6" height="34.6" rx="1.8" ry="1.8"/><path class="cls-2" d="M188,180.4a1.6,1.6,0,0,1,1.6,1.6v31a1.6,1.6,0,0,1-1.6,1.6H142a1.6,1.6,0,0,1-1.6-1.6V182a1.6,1.6,0,0,1,1.6-1.6h46m0-.4H142a2,2,0,0,0-2,2v31a2,2,0,0,0,2,2h46a2,2,0,0,0,2-2V182a2,2,0,0,0-2-2Z"/><rect class="cls-1" x="190.2" y="110.2" width="49.6" height="34.6" rx="1.8" ry="1.8"/><path class="cls-2" d="M238,110.4a1.6,1.6,0,0,1,1.6,1.6v31a1.6,1.6,0,0,1-1.6,1.6H192a1.6,1.6,0,0,1-1.6-1.6V112a1.6,1.6,0,0,1,1.6-1.6h46m0-.4H192a2,2,0,0,0-2,2v31a2,2,0,0,0,2,2h46a2,2,0,0,0,2-2V112a2,2,0,0,0-2-2Z"/><rect class="cls-1" x="165.2" y="75.2" width="49.6" height="34.6" rx="1.8" ry="1.8"/><path class="cls-2" d="M213,75.4a1.6,1.6,0,0,1,1.6,1.6v31a1.6,1.6,0,0,1-1.6,1.6H167a1.6,1.6,0,0,1-1.6-1.6V77a1.6,1.6,0,0,1,1.6-1.6h46m0-.4H167a2,2,0,0,0-2,2v31a2,2,0,0,0,2,2h46a2,2,0,0,0,2-2V77a2,2,0,0,0-2-2Z"/><rect class="cls-1" x="190.2" y="145.2" width="49.6" height="34.6" rx="1.8" ry="1.8"/><path class="cls-2" d="M238,145.4a1.6,1.6,0,0,1,1.6,1.6v31a1.6,1.6,0,0,1-1.6,1.6H192a1.6,1.6,0,0,1-1.6-1.6V147a1.6,1.6,0,0,1,1.6-1.6h46m0-.4H192a2,2,0,0,0-2,2v31a2,2,0,0,0,2,2h46a2,2,0,0,0,2-2V147a2,2,0,0,0-2-2Z"/><rect class="cls-1" x="190.2" y="180.2" width="49.6" height="34.6" rx="1.8" ry="1.8"/><path class="cls-2" d="M238,180.4a1.6,1.6,0,0,1,1.6,1.6v31a1.6,1.6,0,0,1-1.6,1.6H192a1.6,1.6,0,0,1-1.6-1.6V182a1.6,1.6,0,0,1,1.6-1.6h46m0-.4H192a2,2,0,0,0-2,2v31a2,2,0,0,0,2,2h46a2,2,0,0,0,2-2V182a2,2,0,0,0-2-2Z"/><rect class="cls-1" x="140.2" y="215.2" width="49.6" height="34.6" rx="1.8" ry="1.8"/><path class="cls-2" d="M188,215.4a1.6,1.6,0,0,1,1.6,1.6v31a1.6,1.6,0,0,1-1.6,1.6H142a1.6,1.6,0,0,1-1.6-1.6V217a1.6,1.6,0,0,1,1.6-1.6h46m0-.4H142a2,2,0,0,0-2,2v31a2,2,0,0,0,2,2h46a2,2,0,0,0,2-2V217a2,2,0,0,0-2-2Z"/><rect class="cls-1" x="190.2" y="215.2" width="49.6" height="34.6" rx="1.8" ry="1.8"/><path class="cls-2" d="M238,215.4a1.6,1.6,0,0,1,1.6,1.6v31a1.6,1.6,0,0,1-1.6,1.6H192a1.6,1.6,0,0,1-1.6-1.6V217a1.6,1.6,0,0,1,1.6-1.6h46m0-.4H192a2,2,0,0,0-2,2v31a2,2,0,0,0,2,2h46a2,2,0,0,0,2-2V217a2,2,0,0,0-2-2Z"/><rect class="cls-3" x="475.2" y="635.2" width="49.6" height="34.6" rx="1.8" ry="1.8"/><path class="cls-4" d="M523,635.4a1.6,1.6,0,0,1,1.6,1.6v31a1.6,1.6,0,0,1-1.6,1.6H477a1.6,1.6,0,0,1-1.6-1.6V637a1.6,1.6,0,0,1,1.6-1.6h46m0-.4H477a2,2,0,0,0-2,2v31a2,2,0,0,0,2,2h46a2,2,0,0,0,2-2V637a2,2,0,0,0-2-2Z"/><rect class="cls-3" x="475.2" y="600.2" width="49.6" height="34.6" rx="1.8" ry="1.8"/><path class="cls-4" d="M523,600.4a1.6,1.6,0,0,1,1.6,1.6v31a1.6,1.6,0,0,1-1.6,1.6H477a1.6,1.6,0,0,1-1.6-1.6V602a1.6,1.6,0,0,1,1.6-1.6h46m0-.4H477a2,2,0,0,0-2,2v31a2,2,0,0,0,2,2h46a2,2,0,0,0,2-2V602a2,2,0,0,0-2-2Z"/><rect class="cls-3" x="475.2" y="565.2" width="49.6" height="34.6" rx="1.8" ry="1.8"/><path class="cls-4" d="M523,565.4a1.6,1.6,0,0,1,1.6,1.6v31a1.6,1.6,0,0,1-1.6,1.6H477a1.6,1.6,0,0,1-1.6-1.6V567a1.6,1.6,0,0,1,1.6-1.6h46m0-.4H477a2,2,0,0,0-2,2v31a2,2,0,0,0,2,2h46a2,2,0,0,0,2-2V567a2,2,0,0,0-2-2Z"/><rect class="cls-3" x="425.2" y="635.2" width="49.6" height="34.6" rx="1.8" ry="1.8"/><path class="cls-4" d="M473,635.4a1.6,1.6,0,0,1,1.6,1.6v31a1.6,1.6,0,0,1-1.6,1.6H427a1.6,1.6,0,0,1-1.6-1.6V637a1.6,1.6,0,0,1,1.6-1.6h46m0-.4H427a2,2,0,0,0-2,2v31a2,2,0,0,0,2,2h46a2,2,0,0,0,2-2V637a2,2,0,0,0-2-2Z"/><rect class="cls-3" x="450.2" y="670.2" width="49.6" height="34.6" rx="1.8" ry="1.8"/><path class="cls-4" d="M498,670.4a1.6,1.6,0,0,1,1.6,1.6v31a1.6,1.6,0,0,1-1.6,1.6H452a1.6,1.6,0,0,1-1.6-1.6V672a1.6,1.6,0,0,1,1.6-1.6h46m0-.4H452a2,2,0,0,0-2,2v31a2,2,0,0,0,2,2h46a2,2,0,0,0,2-2V672a2,2,0,0,0-2-2Z"/><rect class="cls-3" x="425.2" y="600.2" width="49.6" height="34.6" rx="1.8" ry="1.8"/><path class="cls-4" d="M473,600.4a1.6,1.6,0,0,1,1.6,1.6v31a1.6,1.6,0,0,1-1.6,1.6H427a1.6,1.6,0,0,1-1.6-1.6V602a1.6,1.6,0,0,1,1.6-1.6h46m0-.4H427a2,2,0,0,0-2,2v31a2,2,0,0,0,2,2h46a2,2,0,0,0,2-2V602a2,2,0,0,0-2-2Z"/><rect class="cls-3" x="425.2" y="565.2" width="49.6" height="34.6" rx="1.8" ry="1.8"/><path class="cls-4" d="M473,565.4a1.6,1.6,0,0,1,1.6,1.6v31a1.6,1.6,0,0,1-1.6,1.6H427a1.6,1.6,0,0,1-1.6-1.6V567a1.6,1.6,0,0,1,1.6-1.6h46m0-.4H427a2,2,0,0,0-2,2v31a2,2,0,0,0,2,2h46a2,2,0,0,0,2-2V567a2,2,0,0,0-2-2Z"/><rect class="cls-3" x="475.2" y="530.2" width="49.6" height="34.6" rx="1.8" ry="1.8"/><path class="cls-4" d="M523,530.4a1.6,1.6,0,0,1,1.6,1.6v31a1.6,1.6,0,0,1-1.6,1.6H477a1.6,1.6,0,0,1-1.6-1.6V532a1.6,1.6,0,0,1,1.6-1.6h46m0-.4H477a2,2,0,0,0-2,2v31a2,2,0,0,0,2,2h46a2,2,0,0,0,2-2V532a2,2,0,0,0-2-2Z"/><rect class="cls-3" x="425.2" y="530.2" width="49.6" height="34.6" rx="1.8" ry="1.8"/><path class="cls-4" d="M473,530.4a1.6,1.6,0,0,1,1.6,1.6v31a1.6,1.6,0,0,1-1.6,1.6H427a1.6,1.6,0,0,1-1.6-1.6V532a1.6,1.6,0,0,1,1.6-1.6h46m0-.4H427a2,2,0,0,0-2,2v31a2,2,0,0,0,2,2h46a2,2,0,0,0,2-2V532a2,2,0,0,0-2-2Z"/><rect class="cls-3" x="755.2" y="635.2" width="49.6" height="34.6" rx="1.8" ry="1.8"/><path class="cls-4" d="M803,635.4a1.6,1.6,0,0,1,1.6,1.6v31a1.6,1.6,0,0,1-1.6,1.6H757a1.6,1.6,0,0,1-1.6-1.6V637a1.6,1.6,0,0,1,1.6-1.6h46m0-.4H757a2,2,0,0,0-2,2v31a2,2,0,0,0,2,2h46a2,2,0,0,0,2-2V637a2,2,0,0,0-2-2Z"/><rect class="cls-3" x="755.2" y="600.2" width="49.6" height="34.6" rx="1.8" ry="1.8"/><path class="cls-4" d="M803,600.4a1.6,1.6,0,0,1,1.6,1.6v31a1.6,1.6,0,0,1-1.6,1.6H757a1.6,1.6,0,0,1-1.6-1.6V602a1.6,1.6,0,0,1,1.6-1.6h46m0-.4H757a2,2,0,0,0-2,2v31a2,2,0,0,0,2,2h46a2,2,0,0,0,2-2V602a2,2,0,0,0-2-2Z"/><rect class="cls-3" x="755.2" y="565.2" width="49.6" height="34.6" rx="1.8" ry="1.8"/><path class="cls-4" d="M803,565.4a1.6,1.6,0,0,1,1.6,1.6v31a1.6,1.6,0,0,1-1.6,1.6H757a1.6,1.6,0,0,1-1.6-1.6V567a1.6,1.6,0,0,1,1.6-1.6h46m0-.4H757a2,2,0,0,0-2,2v31a2,2,0,0,0,2,2h46a2,2,0,0,0,2-2V567a2,2,0,0,0-2-2Z"/><rect class="cls-3" x="705.2" y="635.2" width="49.6" height="34.6" rx="1.8" ry="1.8"/><path class="cls-4" d="M753,635.4a1.6,1.6,0,0,1,1.6,1.6v31a1.6,1.6,0,0,1-1.6,1.6H707a1.6,1.6,0,0,1-1.6-1.6V637a1.6,1.6,0,0,1,1.6-1.6h46m0-.4H707a2,2,0,0,0-2,2v31a2,2,0,0,0,2,2h46a2,2,0,0,0,2-2V637a2,2,0,0,0-2-2Z"/><rect class="cls-3" x="730.2" y="670.2" width="49.6" height="34.6" rx="1.8" ry="1.8"/><path class="cls-4" d="M778,670.4a1.6,1.6,0,0,1,1.6,1.6v31a1.6,1.6,0,0,1-1.6,1.6H732a1.6,1.6,0,0,1-1.6-1.6V672a1.6,1.6,0,0,1,1.6-1.6h46m0-.4H732a2,2,0,0,0-2,2v31a2,2,0,0,0,2,2h46a2,2,0,0,0,2-2V672a2,2,0,0,0-2-2Z"/><rect class="cls-3" x="705.2" y="600.2" width="49.6" height="34.6" rx="1.8" ry="1.8"/><path class="cls-4" d="M753,600.4a1.6,1.6,0,0,1,1.6,1.6v31a1.6,1.6,0,0,1-1.6,1.6H707a1.6,1.6,0,0,1-1.6-1.6V602a1.6,1.6,0,0,1,1.6-1.6h46m0-.4H707a2,2,0,0,0-2,2v31a2,2,0,0,0,2,2h46a2,2,0,0,0,2-2V602a2,2,0,0,0-2-2Z"/><rect class="cls-3" x="705.2" y="565.2" width="49.6" height="34.6" rx="1.8" ry="1.8"/><path class="cls-4" d="M753,565.4a1.6,1.6,0,0,1,1.6,1.6v31a1.6,1.6,0,0,1-1.6,1.6H707a1.6,1.6,0,0,1-1.6-1.6V567a1.6,1.6,0,0,1,1.6-1.6h46m0-.4H707a2,2,0,0,0-2,2v31a2,2,0,0,0,2,2h46a2,2,0,0,0,2-2V567a2,2,0,0,0-2-2Z"/><rect class="cls-3" x="755.2" y="530.2" width="49.6" height="34.6" rx="1.8" ry="1.8"/><path class="cls-4" d="M803,530.4a1.6,1.6,0,0,1,1.6,1.6v31a1.6,1.6,0,0,1-1.6,1.6H757a1.6,1.6,0,0,1-1.6-1.6V532a1.6,1.6,0,0,1,1.6-1.6h46m0-.4H757a2,2,0,0,0-2,2v31a2,2,0,0,0,2,2h46a2,2,0,0,0,2-2V532a2,2,0,0,0-2-2Z"/><rect class="cls-3" x="705.2" y="530.2" width="49.6" height="34.6" rx="1.8" ry="1.8"/><path class="cls-4" d="M753,530.4a1.6,1.6,0,0,1,1.6,1.6v31a1.6,1.6,0,0,1-1.6,1.6H707a1.6,1.6,0,0,1-1.6-1.6V532a1.6,1.6,0,0,1,1.6-1.6h46m0-.4H707a2,2,0,0,0-2,2v31a2,2,0,0,0,2,2h46a2,2,0,0,0,2-2V532a2,2,0,0,0-2-2Z"/><rect class="cls-1" x="285.2" y="110.2" width="49.6" height="34.6" rx="1.8" ry="1.8"/><path class="cls-2" d="M333,110.4a1.6,1.6,0,0,1,1.6,1.6v31a1.6,1.6,0,0,1-1.6,1.6H287a1.6,1.6,0,0,1-1.6-1.6V112a1.6,1.6,0,0,1,1.6-1.6h46m0-.4H287a2,2,0,0,0-2,2v31a2,2,0,0,0,2,2h46a2,2,0,0,0,2-2V112a2,2,0,0,0-2-2Z"/><rect class="cls-1" x="285.2" y="145.2" width="49.6" height="34.6" rx="1.8" ry="1.8"/><path class="cls-2" d="M333,145.4a1.6,1.6,0,0,1,1.6,1.6v31a1.6,1.6,0,0,1-1.6,1.6H287a1.6,1.6,0,0,1-1.6-1.6V147a1.6,1.6,0,0,1,1.6-1.6h46m0-.4H287a2,2,0,0,0-2,2v31a2,2,0,0,0,2,2h46a2,2,0,0,0,2-2V147a2,2,0,0,0-2-2Z"/><rect class="cls-1" x="285.2" y="180.2" width="49.6" height="34.6" rx="1.8" ry="1.8"/><path class="cls-2" d="M333,180.4a1.6,1.6,0,0,1,1.6,1.6v31a1.6,1.6,0,0,1-1.6,1.6H287a1.6,1.6,0,0,1-1.6-1.6V182a1.6,1.6,0,0,1,1.6-1.6h46m0-.4H287a2,2,0,0,0-2,2v31a2,2,0,0,0,2,2h46a2,2,0,0,0,2-2V182a2,2,0,0,0-2-2Z"/><rect class="cls-1" x="335.2" y="110.2" width="49.6" height="34.6" rx="1.8" ry="1.8"/><path class="cls-2" d="M383,110.4a1.6,1.6,0,0,1,1.6,1.6v31a1.6,1.6,0,0,1-1.6,1.6H337a1.6,1.6,0,0,1-1.6-1.6V112a1.6,1.6,0,0,1,1.6-1.6h46m0-.4H337a2,2,0,0,0-2,2v31a2,2,0,0,0,2,2h46a2,2,0,0,0,2-2V112a2,2,0,0,0-2-2Z"/><rect class="cls-1" x="335.2" y="145.2" width="49.6" height="34.6" rx="1.8" ry="1.8"/><path class="cls-2" d="M383,145.4a1.6,1.6,0,0,1,1.6,1.6v31a1.6,1.6,0,0,1-1.6,1.6H337a1.6,1.6,0,0,1-1.6-1.6V147a1.6,1.6,0,0,1,1.6-1.6h46m0-.4H337a2,2,0,0,0-2,2v31a2,2,0,0,0,2,2h46a2,2,0,0,0,2-2V147a2,2,0,0,0-2-2Z"/><rect class="cls-1" x="335.2" y="180.2" width="49.6" height="34.6" rx="1.8" ry="1.8"/><path class="cls-2" d="M383,180.4a1.6,1.6,0,0,1,1.6,1.6v31a1.6,1.6,0,0,1-1.6,1.6H337a1.6,1.6,0,0,1-1.6-1.6V182a1.6,1.6,0,0,1,1.6-1.6h46m0-.4H337a2,2,0,0,0-2,2v31a2,2,0,0,0,2,2h46a2,2,0,0,0,2-2V182a2,2,0,0,0-2-2Z"/><rect class="cls-1" x="285.2" y="215.2" width="49.6" height="34.6" rx="1.8" ry="1.8"/><path class="cls-2" d="M333,215.4a1.6,1.6,0,0,1,1.6,1.6v31a1.6,1.6,0,0,1-1.6,1.6H287a1.6,1.6,0,0,1-1.6-1.6V217a1.6,1.6,0,0,1,1.6-1.6h46m0-.4H287a2,2,0,0,0-2,2v31a2,2,0,0,0,2,2h46a2,2,0,0,0,2-2V217a2,2,0,0,0-2-2Z"/><rect class="cls-1" x="335.2" y="215.2" width="49.6" height="34.6" rx="1.8" ry="1.8"/><path class="cls-2" d="M383,215.4a1.6,1.6,0,0,1,1.6,1.6v31a1.6,1.6,0,0,1-1.6,1.6H337a1.6,1.6,0,0,1-1.6-1.6V217a1.6,1.6,0,0,1,1.6-1.6h46m0-.4H337a2,2,0,0,0-2,2v31a2,2,0,0,0,2,2h46a2,2,0,0,0,2-2V217a2,2,0,0,0-2-2Z"/><rect class="cls-1" x="425.2" y="110.2" width="49.6" height="34.6" rx="1.8" ry="1.8"/><path class="cls-2" d="M473,110.4a1.6,1.6,0,0,1,1.6,1.6v31a1.6,1.6,0,0,1-1.6,1.6H427a1.6,1.6,0,0,1-1.6-1.6V112a1.6,1.6,0,0,1,1.6-1.6h46m0-.4H427a2,2,0,0,0-2,2v31a2,2,0,0,0,2,2h46a2,2,0,0,0,2-2V112a2,2,0,0,0-2-2Z"/><rect class="cls-1" x="425.2" y="145.2" width="49.6" height="34.6" rx="1.8" ry="1.8"/><path class="cls-2" d="M473,145.4a1.6,1.6,0,0,1,1.6,1.6v31a1.6,1.6,0,0,1-1.6,1.6H427a1.6,1.6,0,0,1-1.6-1.6V147a1.6,1.6,0,0,1,1.6-1.6h46m0-.4H427a2,2,0,0,0-2,2v31a2,2,0,0,0,2,2h46a2,2,0,0,0,2-2V147a2,2,0,0,0-2-2Z"/><rect class="cls-1" x="425.2" y="180.2" width="49.6" height="34.6" rx="1.8" ry="1.8"/><path class="cls-2" d="M473,180.4a1.6,1.6,0,0,1,1.6,1.6v31a1.6,1.6,0,0,1-1.6,1.6H427a1.6,1.6,0,0,1-1.6-1.6V182a1.6,1.6,0,0,1,1.6-1.6h46m0-.4H427a2,2,0,0,0-2,2v31a2,2,0,0,0,2,2h46a2,2,0,0,0,2-2V182a2,2,0,0,0-2-2Z"/><rect class="cls-1" x="475.2" y="110.2" width="49.6" height="34.6" rx="1.8" ry="1.8"/><path class="cls-2" d="M523,110.4a1.6,1.6,0,0,1,1.6,1.6v31a1.6,1.6,0,0,1-1.6,1.6H477a1.6,1.6,0,0,1-1.6-1.6V112a1.6,1.6,0,0,1,1.6-1.6h46m0-.4H477a2,2,0,0,0-2,2v31a2,2,0,0,0,2,2h46a2,2,0,0,0,2-2V112a2,2,0,0,0-2-2Z"/><rect class="cls-1" x="475.2" y="145.2" width="49.6" height="34.6" rx="1.8" ry="1.8"/><path class="cls-2" d="M523,145.4a1.6,1.6,0,0,1,1.6,1.6v31a1.6,1.6,0,0,1-1.6,1.6H477a1.6,1.6,0,0,1-1.6-1.6V147a1.6,1.6,0,0,1,1.6-1.6h46m0-.4H477a2,2,0,0,0-2,2v31a2,2,0,0,0,2,2h46a2,2,0,0,0,2-2V147a2,2,0,0,0-2-2Z"/><rect class="cls-1" x="475.2" y="180.2" width="49.6" height="34.6" rx="1.8" ry="1.8"/><path class="cls-2" d="M523,180.4a1.6,1.6,0,0,1,1.6,1.6v31a1.6,1.6,0,0,1-1.6,1.6H477a1.6,1.6,0,0,1-1.6-1.6V182a1.6,1.6,0,0,1,1.6-1.6h46m0-.4H477a2,2,0,0,0-2,2v31a2,2,0,0,0,2,2h46a2,2,0,0,0,2-2V182a2,2,0,0,0-2-2Z"/><rect class="cls-1" x="425.2" y="215.2" width="49.6" height="34.6" rx="1.8" ry="1.8"/><path class="cls-2" d="M473,215.4a1.6,1.6,0,0,1,1.6,1.6v31a1.6,1.6,0,0,1-1.6,1.6H427a1.6,1.6,0,0,1-1.6-1.6V217a1.6,1.6,0,0,1,1.6-1.6h46m0-.4H427a2,2,0,0,0-2,2v31a2,2,0,0,0,2,2h46a2,2,0,0,0,2-2V217a2,2,0,0,0-2-2Z"/><rect class="cls-1" x="475.2" y="215.2" width="49.6" height="34.6" rx="1.8" ry="1.8"/><path class="cls-2" d="M523,215.4a1.6,1.6,0,0,1,1.6,1.6v31a1.6,1.6,0,0,1-1.6,1.6H477a1.6,1.6,0,0,1-1.6-1.6V217a1.6,1.6,0,0,1,1.6-1.6h46m0-.4H477a2,2,0,0,0-2,2v31a2,2,0,0,0,2,2h46a2,2,0,0,0,2-2V217a2,2,0,0,0-2-2Z"/><rect class="cls-1" x="565.2" y="110.2" width="49.6" height="34.6" rx="1.8" ry="1.8"/><path class="cls-2" d="M613,110.4a1.6,1.6,0,0,1,1.6,1.6v31a1.6,1.6,0,0,1-1.6,1.6H567a1.6,1.6,0,0,1-1.6-1.6V112a1.6,1.6,0,0,1,1.6-1.6h46m0-.4H567a2,2,0,0,0-2,2v31a2,2,0,0,0,2,2h46a2,2,0,0,0,2-2V112a2,2,0,0,0-2-2Z"/><rect class="cls-1" x="565.2" y="145.2" width="49.6" height="34.6" rx="1.8" ry="1.8"/><path class="cls-2" d="M613,145.4a1.6,1.6,0,0,1,1.6,1.6v31a1.6,1.6,0,0,1-1.6,1.6H567a1.6,1.6,0,0,1-1.6-1.6V147a1.6,1.6,0,0,1,1.6-1.6h46m0-.4H567a2,2,0,0,0-2,2v31a2,2,0,0,0,2,2h46a2,2,0,0,0,2-2V147a2,2,0,0,0-2-2Z"/><rect class="cls-1" x="565.2" y="180.2" width="49.6" height="34.6" rx="1.8" ry="1.8"/><path class="cls-2" d="M613,180.4a1.6,1.6,0,0,1,1.6,1.6v31a1.6,1.6,0,0,1-1.6,1.6H567a1.6,1.6,0,0,1-1.6-1.6V182a1.6,1.6,0,0,1,1.6-1.6h46m0-.4H567a2,2,0,0,0-2,2v31a2,2,0,0,0,2,2h46a2,2,0,0,0,2-2V182a2,2,0,0,0-2-2Z"/><rect class="cls-1" x="615.2" y="110.2" width="49.6" height="34.6" rx="1.8" ry="1.8"/><path class="cls-2" d="M663,110.4a1.6,1.6,0,0,1,1.6,1.6v31a1.6,1.6,0,0,1-1.6,1.6H617a1.6,1.6,0,0,1-1.6-1.6V112a1.6,1.6,0,0,1,1.6-1.6h46m0-.4H617a2,2,0,0,0-2,2v31a2,2,0,0,0,2,2h46a2,2,0,0,0,2-2V112a2,2,0,0,0-2-2Z"/><rect class="cls-1" x="615.2" y="145.2" width="49.6" height="34.6" rx="1.8" ry="1.8"/><path class="cls-2" d="M663,145.4a1.6,1.6,0,0,1,1.6,1.6v31a1.6,1.6,0,0,1-1.6,1.6H617a1.6,1.6,0,0,1-1.6-1.6V147a1.6,1.6,0,0,1,1.6-1.6h46m0-.4H617a2,2,0,0,0-2,2v31a2,2,0,0,0,2,2h46a2,2,0,0,0,2-2V147a2,2,0,0,0-2-2Z"/><rect class="cls-1" x="615.2" y="180.2" width="49.6" height="34.6" rx="1.8" ry="1.8"/><path class="cls-2" d="M663,180.4a1.6,1.6,0,0,1,1.6,1.6v31a1.6,1.6,0,0,1-1.6,1.6H617a1.6,1.6,0,0,1-1.6-1.6V182a1.6,1.6,0,0,1,1.6-1.6h46m0-.4H617a2,2,0,0,0-2,2v31a2,2,0,0,0,2,2h46a2,2,0,0,0,2-2V182a2,2,0,0,0-2-2Z"/><rect class="cls-5" x="565" y="215" width="50" height="35" rx="2" ry="2"/><rect class="cls-5" x="615" y="215" width="50" height="35" rx="2" ry="2"/><rect class="cls-1" x="705.2" y="110.2" width="49.6" height="34.6" rx="1.8" ry="1.8"/><path class="cls-2" d="M753,110.4a1.6,1.6,0,0,1,1.6,1.6v31a1.6,1.6,0,0,1-1.6,1.6H707a1.6,1.6,0,0,1-1.6-1.6V112a1.6,1.6,0,0,1,1.6-1.6h46m0-.4H707a2,2,0,0,0-2,2v31a2,2,0,0,0,2,2h46a2,2,0,0,0,2-2V112a2,2,0,0,0-2-2Z"/><rect class="cls-1" x="705.2" y="145.2" width="49.6" height="34.6" rx="1.8" ry="1.8"/><path class="cls-2" d="M753,145.4a1.6,1.6,0,0,1,1.6,1.6v31a1.6,1.6,0,0,1-1.6,1.6H707a1.6,1.6,0,0,1-1.6-1.6V147a1.6,1.6,0,0,1,1.6-1.6h46m0-.4H707a2,2,0,0,0-2,2v31a2,2,0,0,0,2,2h46a2,2,0,0,0,2-2V147a2,2,0,0,0-2-2Z"/><rect class="cls-1" x="705.2" y="180.2" width="49.6" height="34.6" rx="1.8" ry="1.8"/><path class="cls-2" d="M753,180.4a1.6,1.6,0,0,1,1.6,1.6v31a1.6,1.6,0,0,1-1.6,1.6H707a1.6,1.6,0,0,1-1.6-1.6V182a1.6,1.6,0,0,1,1.6-1.6h46m0-.4H707a2,2,0,0,0-2,2v31a2,2,0,0,0,2,2h46a2,2,0,0,0,2-2V182a2,2,0,0,0-2-2Z"/><rect class="cls-1" x="755.2" y="110.2" width="49.6" height="34.6" rx="1.8" ry="1.8"/><path class="cls-2" d="M803,110.4a1.6,1.6,0,0,1,1.6,1.6v31a1.6,1.6,0,0,1-1.6,1.6H757a1.6,1.6,0,0,1-1.6-1.6V112a1.6,1.6,0,0,1,1.6-1.6h46m0-.4H757a2,2,0,0,0-2,2v31a2,2,0,0,0,2,2h46a2,2,0,0,0,2-2V112a2,2,0,0,0-2-2Z"/><rect class="cls-1" x="755.2" y="145.2" width="49.6" height="34.6" rx="1.8" ry="1.8"/><path class="cls-2" d="M803,145.4a1.6,1.6,0,0,1,1.6,1.6v31a1.6,1.6,0,0,1-1.6,1.6H757a1.6,1.6,0,0,1-1.6-1.6V147a1.6,1.6,0,0,1,1.6-1.6h46m0-.4H757a2,2,0,0,0-2,2v31a2,2,0,0,0,2,2h46a2,2,0,0,0,2-2V147a2,2,0,0,0-2-2Z"/><rect class="cls-1" x="755.2" y="180.2" width="49.6" height="34.6" rx="1.8" ry="1.8"/><path class="cls-2" d="M803,180.4a1.6,1.6,0,0,1,1.6,1.6v31a1.6,1.6,0,0,1-1.6,1.6H757a1.6,1.6,0,0,1-1.6-1.6V182a1.6,1.6,0,0,1,1.6-1.6h46m0-.4H757a2,2,0,0,0-2,2v31a2,2,0,0,0,2,2h46a2,2,0,0,0,2-2V182a2,2,0,0,0-2-2Z"/><rect class="cls-1" x="705.2" y="215.2" width="49.6" height="34.6" rx="1.8" ry="1.8"/><path class="cls-2" d="M753,215.4a1.6,1.6,0,0,1,1.6,1.6v31a1.6,1.6,0,0,1-1.6,1.6H707a1.6,1.6,0,0,1-1.6-1.6V217a1.6,1.6,0,0,1,1.6-1.6h46m0-.4H707a2,2,0,0,0-2,2v31a2,2,0,0,0,2,2h46a2,2,0,0,0,2-2V217a2,2,0,0,0-2-2Z"/><rect class="cls-1" x="755.2" y="215.2" width="49.6" height="34.6" rx="1.8" ry="1.8"/><path class="cls-2" d="M803,215.4a1.6,1.6,0,0,1,1.6,1.6v31a1.6,1.6,0,0,1-1.6,1.6H757a1.6,1.6,0,0,1-1.6-1.6V217a1.6,1.6,0,0,1,1.6-1.6h46m0-.4H757a2,2,0,0,0-2,2v31a2,2,0,0,0,2,2h46a2,2,0,0,0,2-2V217a2,2,0,0,0-2-2Z"/><rect class="cls-6" x="1300.2" y="110.2" width="49.6" height="34.6" rx="1.8" ry="1.8"/><path class="cls-7" d="M1348,110.4a1.6,1.6,0,0,1,1.6,1.6v31a1.6,1.6,0,0,1-1.6,1.6h-46a1.6,1.6,0,0,1-1.6-1.6V112a1.6,1.6,0,0,1,1.6-1.6h46m0-.4h-46a2,2,0,0,0-2,2v31a2,2,0,0,0,2,2h46a2,2,0,0,0,2-2V112a2,2,0,0,0-2-2Z"/><rect class="cls-6" x="1300.2" y="145.2" width="49.6" height="34.6" rx="1.8" ry="1.8"/><path class="cls-7" d="M1348,145.4a1.6,1.6,0,0,1,1.6,1.6v31a1.6,1.6,0,0,1-1.6,1.6h-46a1.6,1.6,0,0,1-1.6-1.6V147a1.6,1.6,0,0,1,1.6-1.6h46m0-.4h-46a2,2,0,0,0-2,2v31a2,2,0,0,0,2,2h46a2,2,0,0,0,2-2V147a2,2,0,0,0-2-2Z"/><rect class="cls-6" x="1300.2" y="180.2" width="49.6" height="34.6" rx="1.8" ry="1.8"/><path class="cls-7" d="M1348,180.4a1.6,1.6,0,0,1,1.6,1.6v31a1.6,1.6,0,0,1-1.6,1.6h-46a1.6,1.6,0,0,1-1.6-1.6V182a1.6,1.6,0,0,1,1.6-1.6h46m0-.4h-46a2,2,0,0,0-2,2v31a2,2,0,0,0,2,2h46a2,2,0,0,0,2-2V182a2,2,0,0,0-2-2Z"/><rect class="cls-6" x="1350.2" y="110.2" width="49.6" height="34.6" rx="1.8" ry="1.8"/><path class="cls-7" d="M1398,110.4a1.6,1.6,0,0,1,1.6,1.6v31a1.6,1.6,0,0,1-1.6,1.6h-46a1.6,1.6,0,0,1-1.6-1.6V112a1.6,1.6,0,0,1,1.6-1.6h46m0-.4h-46a2,2,0,0,0-2,2v31a2,2,0,0,0,2,2h46a2,2,0,0,0,2-2V112a2,2,0,0,0-2-2Z"/><rect class="cls-6" x="1300.2" y="75.2" width="49.6" height="34.6" rx="1.8" ry="1.8"/><path class="cls-7" d="M1348,75.4a1.6,1.6,0,0,1,1.6,1.6v31a1.6,1.6,0,0,1-1.6,1.6h-46a1.6,1.6,0,0,1-1.6-1.6V77a1.6,1.6,0,0,1,1.6-1.6h46m0-.4h-46a2,2,0,0,0-2,2v31a2,2,0,0,0,2,2h46a2,2,0,0,0,2-2V77a2,2,0,0,0-2-2Z"/><rect class="cls-6" x="1350.2" y="75.2" width="49.6" height="34.6" rx="1.8" ry="1.8"/><path class="cls-7" d="M1398,75.4a1.6,1.6,0,0,1,1.6,1.6v31a1.6,1.6,0,0,1-1.6,1.6h-46a1.6,1.6,0,0,1-1.6-1.6V77a1.6,1.6,0,0,1,1.6-1.6h46m0-.4h-46a2,2,0,0,0-2,2v31a2,2,0,0,0,2,2h46a2,2,0,0,0,2-2V77a2,2,0,0,0-2-2Z"/><rect class="cls-6" x="1350.2" y="145.2" width="49.6" height="34.6" rx="1.8" ry="1.8"/><path class="cls-7" d="M1398,145.4a1.6,1.6,0,0,1,1.6,1.6v31a1.6,1.6,0,0,1-1.6,1.6h-46a1.6,1.6,0,0,1-1.6-1.6V147a1.6,1.6,0,0,1,1.6-1.6h46m0-.4h-46a2,2,0,0,0-2,2v31a2,2,0,0,0,2,2h46a2,2,0,0,0,2-2V147a2,2,0,0,0-2-2Z"/><rect class="cls-6" x="1350.2" y="180.2" width="49.6" height="34.6" rx="1.8" ry="1.8"/><path class="cls-7" d="M1398,180.4a1.6,1.6,0,0,1,1.6,1.6v31a1.6,1.6,0,0,1-1.6,1.6h-46a1.6,1.6,0,0,1-1.6-1.6V182a1.6,1.6,0,0,1,1.6-1.6h46m0-.4h-46a2,2,0,0,0-2,2v31a2,2,0,0,0,2,2h46a2,2,0,0,0,2-2V182a2,2,0,0,0-2-2Z"/><rect class="cls-6" x="1300.2" y="215.2" width="49.6" height="34.6" rx="1.8" ry="1.8"/><path class="cls-7" d="M1348,215.4a1.6,1.6,0,0,1,1.6,1.6v31a1.6,1.6,0,0,1-1.6,1.6h-46a1.6,1.6,0,0,1-1.6-1.6V217a1.6,1.6,0,0,1,1.6-1.6h46m0-.4h-46a2,2,0,0,0-2,2v31a2,2,0,0,0,2,2h46a2,2,0,0,0,2-2V217a2,2,0,0,0-2-2Z"/><rect class="cls-6" x="1350.2" y="215.2" width="49.6" height="34.6" rx="1.8" ry="1.8"/><path class="cls-7" d="M1398,215.4a1.6,1.6,0,0,1,1.6,1.6v31a1.6,1.6,0,0,1-1.6,1.6h-46a1.6,1.6,0,0,1-1.6-1.6V217a1.6,1.6,0,0,1,1.6-1.6h46m0-.4h-46a2,2,0,0,0-2,2v31a2,2,0,0,0,2,2h46a2,2,0,0,0,2-2V217a2,2,0,0,0-2-2Z"/><rect class="cls-3" x="285.2" y="530.2" width="49.6" height="34.6" rx="1.8" ry="1.8"/><path class="cls-4" d="M333,530.4a1.6,1.6,0,0,1,1.6,1.6v31a1.6,1.6,0,0,1-1.6,1.6H287a1.6,1.6,0,0,1-1.6-1.6V532a1.6,1.6,0,0,1,1.6-1.6h46m0-.4H287a2,2,0,0,0-2,2v31a2,2,0,0,0,2,2h46a2,2,0,0,0,2-2V532a2,2,0,0,0-2-2Z"/><rect class="cls-3" x="285.2" y="565.2" width="49.6" height="34.6" rx="1.8" ry="1.8"/><path class="cls-4" d="M333,565.4a1.6,1.6,0,0,1,1.6,1.6v31a1.6,1.6,0,0,1-1.6,1.6H287a1.6,1.6,0,0,1-1.6-1.6V567a1.6,1.6,0,0,1,1.6-1.6h46m0-.4H287a2,2,0,0,0-2,2v31a2,2,0,0,0,2,2h46a2,2,0,0,0,2-2V567a2,2,0,0,0-2-2Z"/><rect class="cls-3" x="285.2" y="600.2" width="49.6" height="34.6" rx="1.8" ry="1.8"/><path class="cls-4" d="M333,600.4a1.6,1.6,0,0,1,1.6,1.6v31a1.6,1.6,0,0,1-1.6,1.6H287a1.6,1.6,0,0,1-1.6-1.6V602a1.6,1.6,0,0,1,1.6-1.6h46m0-.4H287a2,2,0,0,0-2,2v31a2,2,0,0,0,2,2h46a2,2,0,0,0,2-2V602a2,2,0,0,0-2-2Z"/><rect class="cls-3" x="335.2" y="530.2" width="49.6" height="34.6" rx="1.8" ry="1.8"/><path class="cls-4" d="M383,530.4a1.6,1.6,0,0,1,1.6,1.6v31a1.6,1.6,0,0,1-1.6,1.6H337a1.6,1.6,0,0,1-1.6-1.6V532a1.6,1.6,0,0,1,1.6-1.6h46m0-.4H337a2,2,0,0,0-2,2v31a2,2,0,0,0,2,2h46a2,2,0,0,0,2-2V532a2,2,0,0,0-2-2Z"/><rect class="cls-3" x="335.2" y="565.2" width="49.6" height="34.6" rx="1.8" ry="1.8"/><path class="cls-4" d="M383,565.4a1.6,1.6,0,0,1,1.6,1.6v31a1.6,1.6,0,0,1-1.6,1.6H337a1.6,1.6,0,0,1-1.6-1.6V567a1.6,1.6,0,0,1,1.6-1.6h46m0-.4H337a2,2,0,0,0-2,2v31a2,2,0,0,0,2,2h46a2,2,0,0,0,2-2V567a2,2,0,0,0-2-2Z"/><rect class="cls-3" x="335.2" y="600.2" width="49.6" height="34.6" rx="1.8" ry="1.8"/><path class="cls-4" d="M383,600.4a1.6,1.6,0,0,1,1.6,1.6v31a1.6,1.6,0,0,1-1.6,1.6H337a1.6,1.6,0,0,1-1.6-1.6V602a1.6,1.6,0,0,1,1.6-1.6h46m0-.4H337a2,2,0,0,0-2,2v31a2,2,0,0,0,2,2h46a2,2,0,0,0,2-2V602a2,2,0,0,0-2-2Z"/><rect class="cls-3" x="285.2" y="635.2" width="49.6" height="34.6" rx="1.8" ry="1.8"/><path class="cls-4" d="M333,635.4a1.6,1.6,0,0,1,1.6,1.6v31a1.6,1.6,0,0,1-1.6,1.6H287a1.6,1.6,0,0,1-1.6-1.6V637a1.6,1.6,0,0,1,1.6-1.6h46m0-.4H287a2,2,0,0,0-2,2v31a2,2,0,0,0,2,2h46a2,2,0,0,0,2-2V637a2,2,0,0,0-2-2Z"/><rect class="cls-3" x="335.2" y="635.2" width="49.6" height="34.6" rx="1.8" ry="1.8"/><path class="cls-4" d="M383,635.4a1.6,1.6,0,0,1,1.6,1.6v31a1.6,1.6,0,0,1-1.6,1.6H337a1.6,1.6,0,0,1-1.6-1.6V637a1.6,1.6,0,0,1,1.6-1.6h46m0-.4H337a2,2,0,0,0-2,2v31a2,2,0,0,0,2,2h46a2,2,0,0,0,2-2V637a2,2,0,0,0-2-2Z"/><rect class="cls-3" x="0.2" y="530.2" width="49.6" height="34.6" rx="1.8" ry="1.8"/><path class="cls-4" d="M48,530.4a1.6,1.6,0,0,1,1.6,1.6v31a1.6,1.6,0,0,1-1.6,1.6H2A1.6,1.6,0,0,1,.4,563V532A1.6,1.6,0,0,1,2,530.4H48m0-.4H2a2,2,0,0,0-2,2v31a2,2,0,0,0,2,2H48a2,2,0,0,0,2-2V532a2,2,0,0,0-2-2Z"/><rect class="cls-3" x="0.2" y="565.2" width="49.6" height="34.6" rx="1.8" ry="1.8"/><path class="cls-4" d="M48,565.4a1.6,1.6,0,0,1,1.6,1.6v31a1.6,1.6,0,0,1-1.6,1.6H2A1.6,1.6,0,0,1,.4,598V567A1.6,1.6,0,0,1,2,565.4H48m0-.4H2a2,2,0,0,0-2,2v31a2,2,0,0,0,2,2H48a2,2,0,0,0,2-2V567a2,2,0,0,0-2-2Z"/><rect class="cls-3" x="0.2" y="600.2" width="49.6" height="34.6" rx="1.8" ry="1.8"/><path class="cls-4" d="M48,600.4a1.6,1.6,0,0,1,1.6,1.6v31a1.6,1.6,0,0,1-1.6,1.6H2A1.6,1.6,0,0,1,.4,633V602A1.6,1.6,0,0,1,2,600.4H48m0-.4H2a2,2,0,0,0-2,2v31a2,2,0,0,0,2,2H48a2,2,0,0,0,2-2V602a2,2,0,0,0-2-2Z"/><rect class="cls-3" x="50.2" y="530.2" width="49.6" height="34.6" rx="1.8" ry="1.8"/><path class="cls-4" d="M98,530.4a1.6,1.6,0,0,1,1.6,1.6v31a1.6,1.6,0,0,1-1.6,1.6H52a1.6,1.6,0,0,1-1.6-1.6V532a1.6,1.6,0,0,1,1.6-1.6H98m0-.4H52a2,2,0,0,0-2,2v31a2,2,0,0,0,2,2H98a2,2,0,0,0,2-2V532a2,2,0,0,0-2-2Z"/><rect class="cls-3" x="50.2" y="565.2" width="49.6" height="34.6" rx="1.8" ry="1.8"/><path class="cls-4" d="M98,565.4a1.6,1.6,0,0,1,1.6,1.6v31a1.6,1.6,0,0,1-1.6,1.6H52a1.6,1.6,0,0,1-1.6-1.6V567a1.6,1.6,0,0,1,1.6-1.6H98m0-.4H52a2,2,0,0,0-2,2v31a2,2,0,0,0,2,2H98a2,2,0,0,0,2-2V567a2,2,0,0,0-2-2Z"/><rect class="cls-3" x="50.2" y="600.2" width="49.6" height="34.6" rx="1.8" ry="1.8"/><path class="cls-4" d="M98,600.4a1.6,1.6,0,0,1,1.6,1.6v31a1.6,1.6,0,0,1-1.6,1.6H52a1.6,1.6,0,0,1-1.6-1.6V602a1.6,1.6,0,0,1,1.6-1.6H98m0-.4H52a2,2,0,0,0-2,2v31a2,2,0,0,0,2,2H98a2,2,0,0,0,2-2V602a2,2,0,0,0-2-2Z"/><rect class="cls-3" x="0.2" y="635.2" width="49.6" height="34.6" rx="1.8" ry="1.8"/><path class="cls-4" d="M48,635.4a1.6,1.6,0,0,1,1.6,1.6v31a1.6,1.6,0,0,1-1.6,1.6H2A1.6,1.6,0,0,1,.4,668V637A1.6,1.6,0,0,1,2,635.4H48m0-.4H2a2,2,0,0,0-2,2v31a2,2,0,0,0,2,2H48a2,2,0,0,0,2-2V637a2,2,0,0,0-2-2Z"/><rect class="cls-3" x="50.2" y="635.2" width="49.6" height="34.6" rx="1.8" ry="1.8"/><path class="cls-4" d="M98,635.4a1.6,1.6,0,0,1,1.6,1.6v31a1.6,1.6,0,0,1-1.6,1.6H52a1.6,1.6,0,0,1-1.6-1.6V637a1.6,1.6,0,0,1,1.6-1.6H98m0-.4H52a2,2,0,0,0-2,2v31a2,2,0,0,0,2,2H98a2,2,0,0,0,2-2V637a2,2,0,0,0-2-2Z"/><rect class="cls-3" x="140.2" y="530.2" width="49.6" height="34.6" rx="1.8" ry="1.8"/><path class="cls-4" d="M188,530.4a1.6,1.6,0,0,1,1.6,1.6v31a1.6,1.6,0,0,1-1.6,1.6H142a1.6,1.6,0,0,1-1.6-1.6V532a1.6,1.6,0,0,1,1.6-1.6h46m0-.4H142a2,2,0,0,0-2,2v31a2,2,0,0,0,2,2h46a2,2,0,0,0,2-2V532a2,2,0,0,0-2-2Z"/><rect class="cls-3" x="140.2" y="565.2" width="49.6" height="34.6" rx="1.8" ry="1.8"/><path class="cls-4" d="M188,565.4a1.6,1.6,0,0,1,1.6,1.6v31a1.6,1.6,0,0,1-1.6,1.6H142a1.6,1.6,0,0,1-1.6-1.6V567a1.6,1.6,0,0,1,1.6-1.6h46m0-.4H142a2,2,0,0,0-2,2v31a2,2,0,0,0,2,2h46a2,2,0,0,0,2-2V567a2,2,0,0,0-2-2Z"/><rect class="cls-3" x="140.2" y="600.2" width="49.6" height="34.6" rx="1.8" ry="1.8"/><path class="cls-4" d="M188,600.4a1.6,1.6,0,0,1,1.6,1.6v31a1.6,1.6,0,0,1-1.6,1.6H142a1.6,1.6,0,0,1-1.6-1.6V602a1.6,1.6,0,0,1,1.6-1.6h46m0-.4H142a2,2,0,0,0-2,2v31a2,2,0,0,0,2,2h46a2,2,0,0,0,2-2V602a2,2,0,0,0-2-2Z"/><rect class="cls-3" x="190.2" y="530.2" width="49.6" height="34.6" rx="1.8" ry="1.8"/><path class="cls-4" d="M238,530.4a1.6,1.6,0,0,1,1.6,1.6v31a1.6,1.6,0,0,1-1.6,1.6H192a1.6,1.6,0,0,1-1.6-1.6V532a1.6,1.6,0,0,1,1.6-1.6h46m0-.4H192a2,2,0,0,0-2,2v31a2,2,0,0,0,2,2h46a2,2,0,0,0,2-2V532a2,2,0,0,0-2-2Z"/><rect class="cls-3" x="190.2" y="565.2" width="49.6" height="34.6" rx="1.8" ry="1.8"/><path class="cls-4" d="M238,565.4a1.6,1.6,0,0,1,1.6,1.6v31a1.6,1.6,0,0,1-1.6,1.6H192a1.6,1.6,0,0,1-1.6-1.6V567a1.6,1.6,0,0,1,1.6-1.6h46m0-.4H192a2,2,0,0,0-2,2v31a2,2,0,0,0,2,2h46a2,2,0,0,0,2-2V567a2,2,0,0,0-2-2Z"/><rect class="cls-3" x="190.2" y="600.2" width="49.6" height="34.6" rx="1.8" ry="1.8"/><path class="cls-4" d="M238,600.4a1.6,1.6,0,0,1,1.6,1.6v31a1.6,1.6,0,0,1-1.6,1.6H192a1.6,1.6,0,0,1-1.6-1.6V602a1.6,1.6,0,0,1,1.6-1.6h46m0-.4H192a2,2,0,0,0-2,2v31a2,2,0,0,0,2,2h46a2,2,0,0,0,2-2V602a2,2,0,0,0-2-2Z"/><rect class="cls-3" x="140.2" y="635.2" width="49.6" height="34.6" rx="1.8" ry="1.8"/><path class="cls-4" d="M188,635.4a1.6,1.6,0,0,1,1.6,1.6v31a1.6,1.6,0,0,1-1.6,1.6H142a1.6,1.6,0,0,1-1.6-1.6V637a1.6,1.6,0,0,1,1.6-1.6h46m0-.4H142a2,2,0,0,0-2,2v31a2,2,0,0,0,2,2h46a2,2,0,0,0,2-2V637a2,2,0,0,0-2-2Z"/><rect class="cls-3" x="190.2" y="635.2" width="49.6" height="34.6" rx="1.8" ry="1.8"/><path class="cls-4" d="M238,635.4a1.6,1.6,0,0,1,1.6,1.6v31a1.6,1.6,0,0,1-1.6,1.6H192a1.6,1.6,0,0,1-1.6-1.6V637a1.6,1.6,0,0,1,1.6-1.6h46m0-.4H192a2,2,0,0,0-2,2v31a2,2,0,0,0,2,2h46a2,2,0,0,0,2-2V637a2,2,0,0,0-2-2Z"/><rect class="cls-3" x="565.2" y="530.2" width="49.6" height="34.6" rx="1.8" ry="1.8"/><path class="cls-4" d="M613,530.4a1.6,1.6,0,0,1,1.6,1.6v31a1.6,1.6,0,0,1-1.6,1.6H567a1.6,1.6,0,0,1-1.6-1.6V532a1.6,1.6,0,0,1,1.6-1.6h46m0-.4H567a2,2,0,0,0-2,2v31a2,2,0,0,0,2,2h46a2,2,0,0,0,2-2V532a2,2,0,0,0-2-2Z"/><rect class="cls-3" x="565.2" y="565.2" width="49.6" height="34.6" rx="1.8" ry="1.8"/><path class="cls-4" d="M613,565.4a1.6,1.6,0,0,1,1.6,1.6v31a1.6,1.6,0,0,1-1.6,1.6H567a1.6,1.6,0,0,1-1.6-1.6V567a1.6,1.6,0,0,1,1.6-1.6h46m0-.4H567a2,2,0,0,0-2,2v31a2,2,0,0,0,2,2h46a2,2,0,0,0,2-2V567a2,2,0,0,0-2-2Z"/><rect class="cls-3" x="565.2" y="600.2" width="49.6" height="34.6" rx="1.8" ry="1.8"/><path class="cls-4" d="M613,600.4a1.6,1.6,0,0,1,1.6,1.6v31a1.6,1.6,0,0,1-1.6,1.6H567a1.6,1.6,0,0,1-1.6-1.6V602a1.6,1.6,0,0,1,1.6-1.6h46m0-.4H567a2,2,0,0,0-2,2v31a2,2,0,0,0,2,2h46a2,2,0,0,0,2-2V602a2,2,0,0,0-2-2Z"/><rect class="cls-3" x="615.2" y="530.2" width="49.6" height="34.6" rx="1.8" ry="1.8"/><path class="cls-4" d="M663,530.4a1.6,1.6,0,0,1,1.6,1.6v31a1.6,1.6,0,0,1-1.6,1.6H617a1.6,1.6,0,0,1-1.6-1.6V532a1.6,1.6,0,0,1,1.6-1.6h46m0-.4H617a2,2,0,0,0-2,2v31a2,2,0,0,0,2,2h46a2,2,0,0,0,2-2V532a2,2,0,0,0-2-2Z"/><rect class="cls-3" x="615.2" y="565.2" width="49.6" height="34.6" rx="1.8" ry="1.8"/><path class="cls-4" d="M663,565.4a1.6,1.6,0,0,1,1.6,1.6v31a1.6,1.6,0,0,1-1.6,1.6H617a1.6,1.6,0,0,1-1.6-1.6V567a1.6,1.6,0,0,1,1.6-1.6h46m0-.4H617a2,2,0,0,0-2,2v31a2,2,0,0,0,2,2h46a2,2,0,0,0,2-2V567a2,2,0,0,0-2-2Z"/><rect class="cls-3" x="615.2" y="600.2" width="49.6" height="34.6" rx="1.8" ry="1.8"/><path class="cls-4" d="M663,600.4a1.6,1.6,0,0,1,1.6,1.6v31a1.6,1.6,0,0,1-1.6,1.6H617a1.6,1.6,0,0,1-1.6-1.6V602a1.6,1.6,0,0,1,1.6-1.6h46m0-.4H617a2,2,0,0,0-2,2v31a2,2,0,0,0,2,2h46a2,2,0,0,0,2-2V602a2,2,0,0,0-2-2Z"/><rect class="cls-3" x="565.2" y="635.2" width="49.6" height="34.6" rx="1.8" ry="1.8"/><path class="cls-4" d="M613,635.4a1.6,1.6,0,0,1,1.6,1.6v31a1.6,1.6,0,0,1-1.6,1.6H567a1.6,1.6,0,0,1-1.6-1.6V637a1.6,1.6,0,0,1,1.6-1.6h46m0-.4H567a2,2,0,0,0-2,2v31a2,2,0,0,0,2,2h46a2,2,0,0,0,2-2V637a2,2,0,0,0-2-2Z"/><rect class="cls-3" x="615.2" y="635.2" width="49.6" height="34.6" rx="1.8" ry="1.8"/><path class="cls-4" d="M663,635.4a1.6,1.6,0,0,1,1.6,1.6v31a1.6,1.6,0,0,1-1.6,1.6H617a1.6,1.6,0,0,1-1.6-1.6V637a1.6,1.6,0,0,1,1.6-1.6h46m0-.4H617a2,2,0,0,0-2,2v31a2,2,0,0,0,2,2h46a2,2,0,0,0,2-2V637a2,2,0,0,0-2-2Z"/><rect class="cls-3" x="845.2" y="530.2" width="49.6" height="34.6" rx="1.8" ry="1.8"/><path class="cls-4" d="M893,530.4a1.6,1.6,0,0,1,1.6,1.6v31a1.6,1.6,0,0,1-1.6,1.6H847a1.6,1.6,0,0,1-1.6-1.6V532a1.6,1.6,0,0,1,1.6-1.6h46m0-.4H847a2,2,0,0,0-2,2v31a2,2,0,0,0,2,2h46a2,2,0,0,0,2-2V532a2,2,0,0,0-2-2Z"/><rect class="cls-3" x="845.2" y="565.2" width="49.6" height="34.6" rx="1.8" ry="1.8"/><path class="cls-4" d="M893,565.4a1.6,1.6,0,0,1,1.6,1.6v31a1.6,1.6,0,0,1-1.6,1.6H847a1.6,1.6,0,0,1-1.6-1.6V567a1.6,1.6,0,0,1,1.6-1.6h46m0-.4H847a2,2,0,0,0-2,2v31a2,2,0,0,0,2,2h46a2,2,0,0,0,2-2V567a2,2,0,0,0-2-2Z"/><rect class="cls-3" x="845.2" y="600.2" width="49.6" height="34.6" rx="1.8" ry="1.8"/><path class="cls-4" d="M893,600.4a1.6,1.6,0,0,1,1.6,1.6v31a1.6,1.6,0,0,1-1.6,1.6H847a1.6,1.6,0,0,1-1.6-1.6V602a1.6,1.6,0,0,1,1.6-1.6h46m0-.4H847a2,2,0,0,0-2,2v31a2,2,0,0,0,2,2h46a2,2,0,0,0,2-2V602a2,2,0,0,0-2-2Z"/><rect class="cls-3" x="895.2" y="530.2" width="49.6" height="34.6" rx="1.8" ry="1.8"/><path class="cls-4" d="M943,530.4a1.6,1.6,0,0,1,1.6,1.6v31a1.6,1.6,0,0,1-1.6,1.6H897a1.6,1.6,0,0,1-1.6-1.6V532a1.6,1.6,0,0,1,1.6-1.6h46m0-.4H897a2,2,0,0,0-2,2v31a2,2,0,0,0,2,2h46a2,2,0,0,0,2-2V532a2,2,0,0,0-2-2Z"/><rect class="cls-3" x="895.2" y="565.2" width="49.6" height="34.6" rx="1.8" ry="1.8"/><path class="cls-4" d="M943,565.4a1.6,1.6,0,0,1,1.6,1.6v31a1.6,1.6,0,0,1-1.6,1.6H897a1.6,1.6,0,0,1-1.6-1.6V567a1.6,1.6,0,0,1,1.6-1.6h46m0-.4H897a2,2,0,0,0-2,2v31a2,2,0,0,0,2,2h46a2,2,0,0,0,2-2V567a2,2,0,0,0-2-2Z"/><rect class="cls-3" x="895.2" y="600.2" width="49.6" height="34.6" rx="1.8" ry="1.8"/><path class="cls-4" d="M943,600.4a1.6,1.6,0,0,1,1.6,1.6v31a1.6,1.6,0,0,1-1.6,1.6H897a1.6,1.6,0,0,1-1.6-1.6V602a1.6,1.6,0,0,1,1.6-1.6h46m0-.4H897a2,2,0,0,0-2,2v31a2,2,0,0,0,2,2h46a2,2,0,0,0,2-2V602a2,2,0,0,0-2-2Z"/><rect class="cls-3" x="845.2" y="635.2" width="49.6" height="34.6" rx="1.8" ry="1.8"/><path class="cls-4" d="M893,635.4a1.6,1.6,0,0,1,1.6,1.6v31a1.6,1.6,0,0,1-1.6,1.6H847a1.6,1.6,0,0,1-1.6-1.6V637a1.6,1.6,0,0,1,1.6-1.6h46m0-.4H847a2,2,0,0,0-2,2v31a2,2,0,0,0,2,2h46a2,2,0,0,0,2-2V637a2,2,0,0,0-2-2Z"/><rect class="cls-3" x="895.2" y="635.2" width="49.6" height="34.6" rx="1.8" ry="1.8"/><path class="cls-4" d="M943,635.4a1.6,1.6,0,0,1,1.6,1.6v31a1.6,1.6,0,0,1-1.6,1.6H897a1.6,1.6,0,0,1-1.6-1.6V637a1.6,1.6,0,0,1,1.6-1.6h46m0-.4H897a2,2,0,0,0-2,2v31a2,2,0,0,0,2,2h46a2,2,0,0,0,2-2V637a2,2,0,0,0-2-2Z"/><circle class="cls-5" cx="1012.5" cy="137.5" r="87.5"/><rect class="cls-5" x="845" y="50" width="30" height="200" rx="2" ry="2"/><rect class="cls-1" x="0.2" y="300.2" width="89.6" height="89.6" rx="1.8" ry="1.8"/><path class="cls-2" d="M88,300.4a1.6,1.6,0,0,1,1.6,1.6v86a1.6,1.6,0,0,1-1.6,1.6H2A1.6,1.6,0,0,1,.4,388V302A1.6,1.6,0,0,1,2,300.4H88m0-.4H2a2,2,0,0,0-2,2v86a2,2,0,0,0,2,2H88a2,2,0,0,0,2-2V302a2,2,0,0,0-2-2Z"/><rect class="cls-1" x="0.2" y="390.2" width="89.6" height="89.6" rx="1.8" ry="1.8"/><path class="cls-2" d="M88,390.4a1.6,1.6,0,0,1,1.6,1.6v86a1.6,1.6,0,0,1-1.6,1.6H2A1.6,1.6,0,0,1,.4,478V392A1.6,1.6,0,0,1,2,390.4H88m0-.4H2a2,2,0,0,0-2,2v86a2,2,0,0,0,2,2H88a2,2,0,0,0,2-2V392a2,2,0,0,0-2-2Z"/><rect class="cls-1" x="90.2" y="300.2" width="89.6" height="89.6" rx="1.8" ry="1.8"/><path class="cls-2" d="M178,300.4a1.6,1.6,0,0,1,1.6,1.6v86a1.6,1.6,0,0,1-1.6,1.6H92a1.6,1.6,0,0,1-1.6-1.6V302a1.6,1.6,0,0,1,1.6-1.6h86m0-.4H92a2,2,0,0,0-2,2v86a2,2,0,0,0,2,2h86a2,2,0,0,0,2-2V302a2,2,0,0,0-2-2Z"/><rect class="cls-1" x="995.2" y="530.2" width="154.6" height="89.6" rx="1.8" ry="1.8"/><path class="cls-2" d="M1148,530.4a1.6,1.6,0,0,1,1.6,1.6v86a1.6,1.6,0,0,1-1.6,1.6H997a1.6,1.6,0,0,1-1.6-1.6V532a1.6,1.6,0,0,1,1.6-1.6h151m0-.4H997a2,2,0,0,0-2,2v86a2,2,0,0,0,2,2h151a2,2,0,0,0,2-2V532a2,2,0,0,0-2-2Z"/><rect class="cls-1" x="995.2" y="620.2" width="89.6" height="89.6" rx="1.8" ry="1.8"/><path class="cls-2" d="M1083,620.4a1.6,1.6,0,0,1,1.6,1.6v86a1.6,1.6,0,0,1-1.6,1.6H997a1.6,1.6,0,0,1-1.6-1.6V622a1.6,1.6,0,0,1,1.6-1.6h86m0-.4H997a2,2,0,0,0-2,2v86a2,2,0,0,0,2,2h86a2,2,0,0,0,2-2V622a2,2,0,0,0-2-2Z"/><rect class="cls-1" x="995.2" y="710.2" width="89.6" height="89.6" rx="1.8" ry="1.8"/><path class="cls-2" d="M1083,710.4a1.6,1.6,0,0,1,1.6,1.6v86a1.6,1.6,0,0,1-1.6,1.6H997a1.6,1.6,0,0,1-1.6-1.6V712a1.6,1.6,0,0,1,1.6-1.6h86m0-.4H997a2,2,0,0,0-2,2v86a2,2,0,0,0,2,2h86a2,2,0,0,0,2-2V712a2,2,0,0,0-2-2Z"/><rect class="cls-1" x="90.2" y="390.2" width="89.6" height="89.6" rx="1.8" ry="1.8"/><path class="cls-2" d="M178,390.4a1.6,1.6,0,0,1,1.6,1.6v86a1.6,1.6,0,0,1-1.6,1.6H92a1.6,1.6,0,0,1-1.6-1.6V392a1.6,1.6,0,0,1,1.6-1.6h86m0-.4H92a2,2,0,0,0-2,2v86a2,2,0,0,0,2,2h86a2,2,0,0,0,2-2V392a2,2,0,0,0-2-2Z"/><rect class="cls-5" x="500" y="300" width="90" height="90" rx="2" ry="2"/><rect class="cls-5" x="500" y="390" width="90" height="90" rx="2" ry="2"/><rect class="cls-5" x="1540" y="300" width="145" height="60" rx="2" ry="2"/><rect class="cls-5" x="1625" y="250" width="60" height="50" rx="2" ry="2"/><rect class="cls-5" x="1625" y="480" width="60" height="50" rx="2" ry="2"/><rect class="cls-5" x="1540" y="360" width="145" height="60" rx="2" ry="2"/><rect class="cls-5" x="1540" y="420" width="145" height="60" rx="2" ry="2"/><rect class="cls-5" x="590" y="300" width="355" height="180" rx="2" ry="2"/><rect class="cls-5" x="1125" y="300" width="355" height="180" rx="2" ry="2"/><rect class="cls-1" x="1250.2" y="530.2" width="144.6" height="269.6" rx="1.8" ry="1.8"/><path class="cls-2" d="M1393,530.4a1.6,1.6,0,0,1,1.6,1.6V798a1.6,1.6,0,0,1-1.6,1.6H1252a1.6,1.6,0,0,1-1.6-1.6V532a1.6,1.6,0,0,1,1.6-1.6h141m0-.4H1252a2,2,0,0,0-2,2V798a2,2,0,0,0,2,2h141a2,2,0,0,0,2-2V532a2,2,0,0,0-2-2Z"/><rect class="cls-1" x="1395.2" y="530.2" width="144.6" height="269.6" rx="1.8" ry="1.8"/><path class="cls-2" d="M1538,530.4a1.6,1.6,0,0,1,1.6,1.6V798a1.6,1.6,0,0,1-1.6,1.6H1397a1.6,1.6,0,0,1-1.6-1.6V532a1.6,1.6,0,0,1,1.6-1.6h141m0-.4H1397a2,2,0,0,0-2,2V798a2,2,0,0,0,2,2h141a2,2,0,0,0,2-2V532a2,2,0,0,0-2-2Z"/><rect class="cls-1" x="1540.2" y="530.2" width="144.6" height="269.6" rx="1.8" ry="1.8"/><path class="cls-2" d="M1683,530.4a1.6,1.6,0,0,1,1.6,1.6V798a1.6,1.6,0,0,1-1.6,1.6H1542a1.6,1.6,0,0,1-1.6-1.6V532a1.6,1.6,0,0,1,1.6-1.6h141m0-.4H1542a2,2,0,0,0-2,2V798a2,2,0,0,0,2,2h141a2,2,0,0,0,2-2V532a2,2,0,0,0-2-2Z"/><rect class="cls-1" x="1570.2" y="0.2" width="114.6" height="249.6" rx="1.8" ry="1.8"/><path class="cls-2" d="M1683,.4a1.6,1.6,0,0,1,1.6,1.6V248a1.6,1.6,0,0,1-1.6,1.6H1572a1.6,1.6,0,0,1-1.6-1.6V2A1.6,1.6,0,0,1,1572,.4h111m0-.4H1572a2,2,0,0,0-2,2V248a2,2,0,0,0,2,2h111a2,2,0,0,0,2-2V2a2,2,0,0,0-2-2Z"/><rect class="cls-1" x="1475.2" y="0.2" width="94.6" height="199.6" rx="1.8" ry="1.8"/><path class="cls-2" d="M1568,.4a1.6,1.6,0,0,1,1.6,1.6V198a1.6,1.6,0,0,1-1.6,1.6h-91a1.6,1.6,0,0,1-1.6-1.6V2A1.6,1.6,0,0,1,1477,.4h91m0-.4h-91a2,2,0,0,0-2,2V198a2,2,0,0,0,2,2h91a2,2,0,0,0,2-2V2a2,2,0,0,0-2-2Z"/><rect class="cls-5" x="900" y="50" width="25" height="25" rx="2" ry="2"/><rect class="cls-5" x="450" y="355" width="35" height="75" rx="2" ry="2"/><rect class="cls-5" x="285" y="310" width="35" height="160" rx="2" ry="2"/><rect class="cls-5" x="600" y="730" width="35" height="75" rx="2" ry="2" transform="translate(1385 150) rotate(90)"/><rect class="cls-5" x="1125" y="175" width="35" height="75" rx="2" ry="2"/><path class="cls-8" d="M1023.55,130H1018a1.44,1.44,0,0,0-1.45,1.45v2.35h-3.73a1.44,1.44,0,0,0-1.45,1.45v2.35h-4.22a1.45,1.45,0,0,0-1.45,1.45v2.35h-4.21a1.45,1.45,0,0,0,0,2.9h5.66a1.45,1.45,0,0,0,1.45-1.45V140.5h4.22a1.45,1.45,0,0,0,1.45-1.45V136.7H1018a1.45,1.45,0,0,0,1.45-1.45V132.9h4.14a1.45,1.45,0,1,0,0-2.9Z"/></g><g id="text"><text class="cls-9" transform="matrix(1, 0.01, -0.01, 1, 440, 231)">이름을</text><text class="cls-10" transform="matrix(1, 0.01, -0.01, 1, 439.95, 240)">내선번호</text><text class="cls-9" transform="matrix(1, 0.01, -0.01, 1, 584.43, 230)">C-8</text><text class="cls-10" transform="matrix(1, 0.01, -0.01, 1, 580, 238.97)">내선번호</text><text class="cls-9" transform="matrix(1, 0.01, -0.01, 1, 455, 391.02)">팩스OA</text><text class="cls-10" transform="matrix(1, 0.01, -0.01, 1, 452.11, 400)">6948-3777</text></g><g id="facility"><path class="cls-8" d="M958.59,329.47a2.44,2.44,0,0,1,.91-1.87,4.67,4.67,0,0,1,.51-.36,3.14,3.14,0,0,0-.71-.76,2.57,2.57,0,0,0-1.84-.62,3.16,3.16,0,0,0-2.1.75,2,2,0,0,0-.85,1.46c0,.73,0,4.21,0,5h4.1C958.57,332.65,958.58,329.8,958.59,329.47Z"/><path class="cls-8" d="M957.56,325a2.11,2.11,0,1,0-2.1-2.11A2.12,2.12,0,0,0,957.56,325Z"/><path class="cls-8" d="M966.45,329.5c0,.34,0,3.17,0,3.54h4c0-.75,0-4.15,0-4.94a2.21,2.21,0,0,0-1-1.56,2.93,2.93,0,0,0-2-.68,2.77,2.77,0,0,0-2,.69,3.4,3.4,0,0,0-.61.67l.44.29A2.67,2.67,0,0,1,966.45,329.5Z"/><path class="cls-8" d="M967.44,325a2.11,2.11,0,1,0-2.11-2.11A2.12,2.12,0,0,0,967.44,325Z"/><path class="cls-8" d="M959.41,333h6.19c0-.75,0-2.72,0-3.51a2.21,2.21,0,0,0-1-1.56,3.56,3.56,0,0,0-4.29.08,2,2,0,0,0-.86,1.46C959.42,330.24,959.42,332.28,959.41,333Z"/><path class="cls-8" d="M962.5,326.47a2.11,2.11,0,1,0-2.1-2.1A2.11,2.11,0,0,0,962.5,326.47Z"/><path class="cls-8" d="M965.42,313.26h1.3v3.27c0,.13.08.24.18.24h1.16c.1,0,.18-.11.18-.24v-3.27h1.22a.2.2,0,0,0,.17-.16.32.32,0,0,0,0-.27l-2.07-2.76a.17.17,0,0,0-.13-.07.21.21,0,0,0-.13.07l-2,2.76a.32.32,0,0,0,0,.27A.2.2,0,0,0,965.42,313.26Z"/><path class="cls-8" d="M957.48,316.7a.15.15,0,0,0,.13.07.17.17,0,0,0,.13-.07l2-2.76a.31.31,0,0,0,0-.27.2.2,0,0,0-.17-.15h-1.26v-3.27c0-.14-.08-.25-.18-.25H957c-.1,0-.18.11-.18.25v3.27h-1.26a.2.2,0,0,0-.17.15.35.35,0,0,0,0,.27Z"/><path class="cls-8" d="M974.21,317.92H950.8a.79.79,0,0,0-.8.79v17a.8.8,0,0,0,.8.8h23.41a.79.79,0,0,0,.79-.8v-17A.79.79,0,0,0,974.21,317.92Zm-.8,17H951.59V319.51h21.82Z"/><path class="cls-8" d="M958.59,394.47a2.44,2.44,0,0,1,.91-1.87,4.67,4.67,0,0,1,.51-.36,3.14,3.14,0,0,0-.71-.76,2.57,2.57,0,0,0-1.84-.62,3.16,3.16,0,0,0-2.1.75,2,2,0,0,0-.85,1.46c0,.73,0,4.21,0,5h4.1C958.57,397.65,958.58,394.8,958.59,394.47Z"/><path class="cls-8" d="M957.56,390a2.11,2.11,0,1,0-2.1-2.11A2.12,2.12,0,0,0,957.56,390Z"/><path class="cls-8" d="M966.45,394.5c0,.34,0,3.17,0,3.54h4c0-.75,0-4.15,0-4.94a2.21,2.21,0,0,0-1-1.56,2.93,2.93,0,0,0-2-.68,2.77,2.77,0,0,0-2,.69,3.4,3.4,0,0,0-.61.67l.44.29A2.67,2.67,0,0,1,966.45,394.5Z"/><path class="cls-8" d="M967.44,390a2.11,2.11,0,1,0-2.11-2.11A2.12,2.12,0,0,0,967.44,390Z"/><path class="cls-8" d="M959.41,398h6.19c0-.75,0-2.72,0-3.51a2.21,2.21,0,0,0-1-1.56,3.56,3.56,0,0,0-4.29.08,2,2,0,0,0-.86,1.46C959.42,395.24,959.42,397.28,959.41,398Z"/><path class="cls-8" d="M962.5,391.47a2.11,2.11,0,1,0-2.1-2.1A2.11,2.11,0,0,0,962.5,391.47Z"/><path class="cls-8" d="M965.42,378.26h1.3v3.27c0,.13.08.24.18.24h1.16c.1,0,.18-.11.18-.24v-3.27h1.22a.2.2,0,0,0,.17-.16.32.32,0,0,0,0-.27l-2.07-2.76a.17.17,0,0,0-.13-.07.21.21,0,0,0-.13.07l-2,2.76a.32.32,0,0,0,0,.27A.2.2,0,0,0,965.42,378.26Z"/><path class="cls-8" d="M957.48,381.7a.15.15,0,0,0,.13.07.17.17,0,0,0,.13-.07l2-2.76a.31.31,0,0,0,0-.27.2.2,0,0,0-.17-.15h-1.26v-3.27c0-.14-.08-.25-.18-.25H957c-.1,0-.18.11-.18.25v3.27h-1.26a.2.2,0,0,0-.17.15.35.35,0,0,0,0,.27Z"/><path class="cls-8" d="M974.21,382.92H950.8a.79.79,0,0,0-.8.79v17a.8.8,0,0,0,.8.8h23.41a.79.79,0,0,0,.79-.8v-17A.79.79,0,0,0,974.21,382.92Zm-.8,17H951.59V384.51h21.82Z"/><path class="cls-8" d="M958.59,459.47a2.44,2.44,0,0,1,.91-1.87,4.67,4.67,0,0,1,.51-.36,3.14,3.14,0,0,0-.71-.76,2.57,2.57,0,0,0-1.84-.62,3.16,3.16,0,0,0-2.1.75,2,2,0,0,0-.85,1.46c0,.73,0,4.21,0,5h4.1C958.57,462.65,958.58,459.8,958.59,459.47Z"/><path class="cls-8" d="M957.56,455a2.11,2.11,0,1,0-2.1-2.11A2.12,2.12,0,0,0,957.56,455Z"/><path class="cls-8" d="M966.45,459.5c0,.34,0,3.17,0,3.54h4c0-.75,0-4.15,0-4.94a2.21,2.21,0,0,0-1-1.56,2.93,2.93,0,0,0-2-.68,2.77,2.77,0,0,0-2,.69,3.4,3.4,0,0,0-.61.67l.44.29A2.67,2.67,0,0,1,966.45,459.5Z"/><path class="cls-8" d="M967.44,455a2.11,2.11,0,1,0-2.11-2.11A2.12,2.12,0,0,0,967.44,455Z"/><path class="cls-8" d="M959.41,463h6.19c0-.75,0-2.72,0-3.51a2.21,2.21,0,0,0-1-1.56,3.56,3.56,0,0,0-4.29.08,2,2,0,0,0-.86,1.46C959.42,460.24,959.42,462.28,959.41,463Z"/><path class="cls-8" d="M962.5,456.47a2.11,2.11,0,1,0-2.1-2.1A2.11,2.11,0,0,0,962.5,456.47Z"/><path class="cls-8" d="M965.42,443.26h1.3v3.27c0,.13.08.24.18.24h1.16c.1,0,.18-.11.18-.24v-3.27h1.22a.2.2,0,0,0,.17-.16.32.32,0,0,0,0-.27l-2.07-2.76a.17.17,0,0,0-.13-.07.21.21,0,0,0-.13.07l-2,2.76a.32.32,0,0,0,0,.27A.2.2,0,0,0,965.42,443.26Z"/><path class="cls-8" d="M957.48,446.7a.15.15,0,0,0,.13.07.17.17,0,0,0,.13-.07l2-2.76a.31.31,0,0,0,0-.27.2.2,0,0,0-.17-.15h-1.26v-3.27c0-.14-.08-.25-.18-.25H957c-.1,0-.18.11-.18.25v3.27h-1.26a.2.2,0,0,0-.17.15.35.35,0,0,0,0,.27Z"/><path class="cls-8" d="M974.21,447.92H950.8a.79.79,0,0,0-.8.79v17a.8.8,0,0,0,.8.8h23.41a.79.79,0,0,0,.79-.8v-17A.79.79,0,0,0,974.21,447.92Zm-.8,17H951.59V449.51h21.82Z"/><path class="cls-8" d="M1103.59,358a2.44,2.44,0,0,1,.91-1.87,4.67,4.67,0,0,1,.51-.36,3.36,3.36,0,0,0-.71-.77,2.61,2.61,0,0,0-1.84-.61,3.16,3.16,0,0,0-2.1.75,2,2,0,0,0-.85,1.46c0,.73,0,4.21,0,5h4.1C1103.57,361.17,1103.58,358.33,1103.59,358Z"/><path class="cls-8" d="M1102.56,353.56a2.11,2.11,0,1,0-2.1-2.1A2.11,2.11,0,0,0,1102.56,353.56Z"/><path class="cls-8" d="M1111.45,358c0,.34,0,3.17,0,3.54h4c0-.75,0-4.15,0-4.95a2.21,2.21,0,0,0-1-1.55,2.89,2.89,0,0,0-2-.68,2.77,2.77,0,0,0-2,.69,3.4,3.4,0,0,0-.61.67,4.17,4.17,0,0,1,.44.29A2.67,2.67,0,0,1,1111.45,358Z"/><path class="cls-8" d="M1112.44,353.56a2.11,2.11,0,1,0-2.11-2.1A2.11,2.11,0,0,0,1112.44,353.56Z"/><path class="cls-8" d="M1104.41,361.57h6.19c0-.75,0-2.72,0-3.51a2.19,2.19,0,0,0-1-1.56,3.25,3.25,0,0,0-2.12-.68,3.34,3.34,0,0,0-2.17.76,2,2,0,0,0-.86,1.46C1104.42,358.76,1104.42,360.81,1104.41,361.57Z"/><path class="cls-8" d="M1107.5,355a2.11,2.11,0,1,0-2.1-2.11A2.11,2.11,0,0,0,1107.5,355Z"/><path class="cls-8" d="M1110.42,341.79h1.3v3.26c0,.14.08.25.18.25h1.16c.1,0,.18-.11.18-.25v-3.26h1.22a.2.2,0,0,0,.17-.16.32.32,0,0,0,0-.27l-2.07-2.76a.17.17,0,0,0-.13-.07.21.21,0,0,0-.13.07l-2,2.76a.32.32,0,0,0,0,.27A.2.2,0,0,0,1110.42,341.79Z"/><path class="cls-8" d="M1102.48,345.23a.15.15,0,0,0,.13.07.17.17,0,0,0,.13-.07l2-2.76a.31.31,0,0,0,0-.27.2.2,0,0,0-.17-.16h-1.26v-3.26c0-.14-.08-.25-.18-.25H1102c-.1,0-.18.11-.18.25V342h-1.26a.2.2,0,0,0-.17.16.35.35,0,0,0,0,.27Z"/><path class="cls-8" d="M1119.21,346.44H1095.8a.8.8,0,0,0-.8.8v17a.8.8,0,0,0,.8.8h23.41a.8.8,0,0,0,.79-.8v-17A.8.8,0,0,0,1119.21,346.44Zm-.8,17h-21.82V348h21.82Z"/><path class="cls-8" d="M1103.59,423a2.44,2.44,0,0,1,.91-1.87,4.67,4.67,0,0,1,.51-.36,3.36,3.36,0,0,0-.71-.77,2.61,2.61,0,0,0-1.84-.61,3.16,3.16,0,0,0-2.1.75,2,2,0,0,0-.85,1.46c0,.73,0,4.21,0,5h4.1C1103.57,426.17,1103.58,423.33,1103.59,423Z"/><path class="cls-8" d="M1102.56,418.56a2.11,2.11,0,1,0-2.1-2.1A2.11,2.11,0,0,0,1102.56,418.56Z"/><path class="cls-8" d="M1111.45,423c0,.34,0,3.17,0,3.54h4c0-.75,0-4.15,0-4.95a2.21,2.21,0,0,0-1-1.55,2.89,2.89,0,0,0-2-.68,2.77,2.77,0,0,0-2,.69,3.4,3.4,0,0,0-.61.67,4.17,4.17,0,0,1,.44.29A2.67,2.67,0,0,1,1111.45,423Z"/><path class="cls-8" d="M1112.44,418.56a2.11,2.11,0,1,0-2.11-2.1A2.11,2.11,0,0,0,1112.44,418.56Z"/><path class="cls-8" d="M1104.41,426.57h6.19c0-.75,0-2.72,0-3.51a2.19,2.19,0,0,0-1-1.56,3.25,3.25,0,0,0-2.12-.68,3.34,3.34,0,0,0-2.17.76,2,2,0,0,0-.86,1.46C1104.42,423.76,1104.42,425.81,1104.41,426.57Z"/><path class="cls-8" d="M1107.5,420a2.11,2.11,0,1,0-2.1-2.11A2.11,2.11,0,0,0,1107.5,420Z"/><path class="cls-8" d="M1110.42,406.79h1.3v3.26c0,.14.08.25.18.25h1.16c.1,0,.18-.11.18-.25v-3.26h1.22a.2.2,0,0,0,.17-.16.32.32,0,0,0,0-.27l-2.07-2.76a.17.17,0,0,0-.13-.07.21.21,0,0,0-.13.07l-2,2.76a.32.32,0,0,0,0,.27A.2.2,0,0,0,1110.42,406.79Z"/><path class="cls-8" d="M1102.48,410.23a.15.15,0,0,0,.13.07.17.17,0,0,0,.13-.07l2-2.76a.31.31,0,0,0,0-.27.2.2,0,0,0-.17-.16h-1.26v-3.26c0-.14-.08-.25-.18-.25H1102c-.1,0-.18.11-.18.25V407h-1.26a.2.2,0,0,0-.17.16.35.35,0,0,0,0,.27Z"/><path class="cls-8" d="M1119.21,411.44H1095.8a.8.8,0,0,0-.8.8v17a.8.8,0,0,0,.8.8h23.41a.8.8,0,0,0,.79-.8v-17A.8.8,0,0,0,1119.21,411.44Zm-.8,17h-21.82V413h21.82Z"/><path class="cls-8" d="M548.81,429.4a2.2,2.2,0,1,0-2.2-2.2A2.2,2.2,0,0,0,548.81,429.4Z"/><path class="cls-8" d="M552.49,437.94l-2.2-7a.44.44,0,0,0-.34-.33h-2.24a.54.54,0,0,0-.38.37l-2.2,6.95a.3.3,0,0,0,0,.24.28.28,0,0,0,.21.1h2.24s.48,3.16.59,3.35a.46.46,0,0,0,.46.21h.23a.5.5,0,0,0,.42-.14c.15-.17.66-3.42.66-3.42h2.24a.32.32,0,0,0,.22-.1A.29.29,0,0,0,552.49,437.94Z"/><path class="cls-8" d="M540.92,429.4a2.2,2.2,0,1,0-2.2-2.2A2.21,2.21,0,0,0,540.92,429.4Z"/><path class="cls-8" d="M544.29,430.55a.28.28,0,0,0-.22-.11h-6.3a.28.28,0,0,0-.22.11.29.29,0,0,0,0,.24l2.6,9.85c.17.85.15,1.2.71,1.2H541c.56,0,.53-.29.74-1.2l2.55-9.86A.27.27,0,0,0,544.29,430.55Z"/><path class="cls-8" d="M541.31,342.55a2.2,2.2,0,1,0-2.2-2.19A2.19,2.19,0,0,0,541.31,342.55Z"/><path class="cls-8" d="M545,351.1l-2.2-7c-.11-.32-.34-.34-.34-.34h-2.24a.57.57,0,0,0-.38.38l-2.2,7a.27.27,0,0,0,0,.23.26.26,0,0,0,.21.11h2.24s.48,3.16.59,3.34a.47.47,0,0,0,.46.22h.23a.5.5,0,0,0,.42-.14c.15-.17.66-3.42.66-3.42h2.24a.29.29,0,0,0,.22-.11A.26.26,0,0,0,545,351.1Z"/><path class="cls-8" d="M533.42,342.55a2.2,2.2,0,1,0-2.2-2.19A2.2,2.2,0,0,0,533.42,342.55Z"/><path class="cls-8" d="M536.79,343.71a.28.28,0,0,0-.22-.11h-6.3a.28.28,0,0,0-.22.11.27.27,0,0,0,0,.23l2.6,9.85c.17.86.15,1.21.71,1.21h.22c.56,0,.53-.3.74-1.21l2.55-9.85A.26.26,0,0,0,536.79,343.71Z"/><polygon class="cls-8" points="556.29 337.81 556.29 339.69 558.65 339.69 558.65 337.81 556.29 337.81 556.29 337.81"/><path class="cls-8" d="M555.69,354.76a.68.68,0,1,0-.68-.68.67.67,0,0,0,.68.68Z"/><path class="cls-8" d="M559.24,354.76a.68.68,0,1,0-.67-.68.67.67,0,0,0,.67.68Z"/><path class="cls-8" d="M556.44,346.23a.44.44,0,0,0,.44-.44.44.44,0,0,0-.88,0,.44.44,0,0,0,.44.44Z"/><path class="cls-8" d="M554.32,346.23a.44.44,0,0,0,.44-.44.44.44,0,0,0-.88,0,.44.44,0,0,0,.44.44Z"/><path class="cls-8" d="M558.56,346.23a.44.44,0,0,0,.44-.44.44.44,0,0,0-.88,0,.44.44,0,0,0,.44.44Z"/><path class="cls-8" d="M560.68,346.23a.44.44,0,0,0,.44-.44.44.44,0,0,0-.88,0,.44.44,0,0,0,.44.44Z"/><path class="cls-8" d="M556.29,347.73a.46.46,0,0,0,.46-.46.47.47,0,0,0-.46-.46.46.46,0,0,0-.46.46.45.45,0,0,0,.46.46Z"/><path class="cls-8" d="M554,347.73a.46.46,0,0,0,.46-.46.47.47,0,0,0-.46-.46.46.46,0,0,0-.46.46.45.45,0,0,0,.46.46Z"/><path class="cls-8" d="M558.71,347.73a.45.45,0,0,0,.46-.46.46.46,0,0,0-.46-.46.47.47,0,0,0-.46.46.46.46,0,0,0,.46.46Z"/><path class="cls-8" d="M561,347.73a.45.45,0,0,0,.46-.46.46.46,0,0,0-.46-.46.47.47,0,0,0-.46.46.46.46,0,0,0,.46.46Z"/><path class="cls-8" d="M556.14,349.33a.5.5,0,0,0,.5-.51.5.5,0,0,0-.5-.5.5.5,0,0,0-.51.5.51.51,0,0,0,.51.51Z"/><path class="cls-8" d="M553.71,349.33a.51.51,0,0,0,.51-.51.51.51,0,0,0-1,0,.51.51,0,0,0,.5.51Z"/><path class="cls-8" d="M558.86,349.33a.51.51,0,0,0,.51-.51.5.5,0,0,0-.51-.5.5.5,0,0,0-.5.5.5.5,0,0,0,.5.51Z"/><path class="cls-8" d="M561.29,349.33a.51.51,0,0,0,.5-.51.51.51,0,0,0-1,0,.51.51,0,0,0,.51.51Z"/><path class="cls-8" d="M556,351a.56.56,0,1,0-.56-.55.55.55,0,0,0,.56.55Z"/><path class="cls-8" d="M553.41,351a.56.56,0,1,0-.55-.55.56.56,0,0,0,.55.55Z"/><path class="cls-8" d="M559,351a.56.56,0,1,0-.55-.55.56.56,0,0,0,.55.55Z"/><path class="cls-8" d="M561.59,351a.56.56,0,1,0-.56-.55.55.55,0,0,0,.56.55Z"/><path class="cls-8" d="M555.84,352.83a.62.62,0,0,0,.61-.61.62.62,0,0,0-1.23,0,.62.62,0,0,0,.62.61Z"/><path class="cls-8" d="M553.11,352.83a.61.61,0,0,0,.61-.61.61.61,0,1,0-1.22,0,.61.61,0,0,0,.61.61Z"/><path class="cls-8" d="M559.16,352.83a.62.62,0,0,0,.62-.61.62.62,0,1,0-.62.61Z"/><path class="cls-8" d="M561.89,352.83a.61.61,0,0,0,.61-.61.61.61,0,1,0-1.22,0,.61.61,0,0,0,.61.61Z"/><path class="cls-8" d="M561.73,343.88v-.56h-8.52v.56a.41.41,0,0,0,.42.42h7.68a.41.41,0,0,0,.42-.42Z"/><path class="cls-8" d="M561.67,342.88l-2.87-2.75a.57.57,0,0,0-.35-.14h-2a.56.56,0,0,0-.35.14l-2.87,2.75s-.15.14.05.14h8.3s.2,0,0-.14Z"/><path class="cls-8" d="M1616.31,327.55a2.2,2.2,0,1,0-2.2-2.19A2.19,2.19,0,0,0,1616.31,327.55Z"/><path class="cls-8" d="M1620,336.1l-2.2-7c-.11-.32-.34-.34-.34-.34h-2.24a.57.57,0,0,0-.38.38l-2.2,7a.27.27,0,0,0,0,.23.26.26,0,0,0,.21.11h2.24s.48,3.16.59,3.34a.47.47,0,0,0,.46.22h.23a.5.5,0,0,0,.42-.14c.15-.17.66-3.42.66-3.42h2.24a.29.29,0,0,0,.22-.11A.26.26,0,0,0,1620,336.1Z"/><path class="cls-8" d="M1608.42,327.55a2.2,2.2,0,1,0-2.2-2.19A2.2,2.2,0,0,0,1608.42,327.55Z"/><path class="cls-8" d="M1611.79,328.71a.28.28,0,0,0-.22-.11h-6.3a.28.28,0,0,0-.22.11.27.27,0,0,0,0,.23l2.6,9.85c.17.86.15,1.21.71,1.21h.22c.56,0,.53-.3.74-1.21l2.55-9.85A.26.26,0,0,0,1611.79,328.71Z"/><path class="cls-8" d="M1616.31,387.55a2.2,2.2,0,1,0-2.2-2.19A2.19,2.19,0,0,0,1616.31,387.55Z"/><path class="cls-8" d="M1620,396.1l-2.2-7c-.11-.32-.34-.34-.34-.34h-2.24a.57.57,0,0,0-.38.38l-2.2,7a.27.27,0,0,0,0,.23.26.26,0,0,0,.21.11h2.24s.48,3.16.59,3.34a.47.47,0,0,0,.46.22h.23a.5.5,0,0,0,.42-.14c.15-.17.66-3.42.66-3.42h2.24a.29.29,0,0,0,.22-.11A.26.26,0,0,0,1620,396.1Z"/><path class="cls-8" d="M1608.42,387.55a2.2,2.2,0,1,0-2.2-2.19A2.2,2.2,0,0,0,1608.42,387.55Z"/><path class="cls-8" d="M1611.79,388.71a.28.28,0,0,0-.22-.11h-6.3a.28.28,0,0,0-.22.11.27.27,0,0,0,0,.23l2.6,9.85c.17.86.15,1.21.71,1.21h.22c.56,0,.53-.3.74-1.21l2.55-9.85A.26.26,0,0,0,1611.79,388.71Z"/></g></g></svg>